<svg xmlns="http://www.w3.org/2000/svg" width="56.043" height="74.723" viewBox="0 0 56.043 74.723"><defs><style>.a{fill:#fbf6f6;}</style></defs><path class="a" d="M28.019,14a14.01,14.01,0,1,0,14.01,14.01A14.027,14.027,0,0,0,28.019,14Zm0,23.351a9.34,9.34,0,1,1,9.34-9.34A9.351,9.351,0,0,1,28.019,37.352Zm25.632,2.391a8.422,8.422,0,0,0,2.112-8.006c-.933-3.532-.933-2.985,0-6.522a8.421,8.421,0,0,0-2.112-8.006c-2.566-2.586-2.272-2.144-3.2-5.632a8.271,8.271,0,0,0-5.8-5.887c-3.4-.922-3.009-.668-5.509-3.243A8.189,8.189,0,0,0,31.189.283c-3.43.95-2.933.935-6.344,0A8.171,8.171,0,0,0,16.891,2.45c-2.525,2.579-2.074,2.3-5.5,3.238a8.275,8.275,0,0,0-5.8,5.884c-.928,3.508-.639,3.046-3.2,5.636a8.422,8.422,0,0,0-2.11,8.008c.933,3.527.933,2.98,0,6.522a8.421,8.421,0,0,0,2.112,8.006c2.566,2.586,2.272,2.144,3.2,5.632a8.26,8.26,0,0,0,1.55,2.974L.173,65.483A2.335,2.335,0,0,0,2.331,68.7c.08,0-.425.018,7.782-.3l5.29,5.588a2.336,2.336,0,0,0,3.859-.724l7.655-18.831a3.407,3.407,0,0,1,2.205,0l7.653,18.832a2.336,2.336,0,0,0,3.859.724l5.29-5.587c8.206.314,7.7.3,7.782.3a2.335,2.335,0,0,0,2.158-3.217L48.9,48.355a8.266,8.266,0,0,0,1.55-2.973c.928-3.511.639-3.049,3.2-5.639ZM16.3,68.146l-4.251-4.491-6.189.238L11.05,51.126c.115.038.215.109.333.142,3.192.855,2.986.671,4.61,2.322A8.1,8.1,0,0,0,21.241,56Zm33.875-4.254-6.189-.236-4.251,4.491L34.789,55.974a8.074,8.074,0,0,0,5.257-2.386c1.665-1.694,1.435-1.487,4.61-2.322.118-.032.217-.1.333-.14l5.188,12.766Zm-4.24-19.7a3.6,3.6,0,0,1-2.513,2.57c-3.447.912-4.143.941-6.709,3.557a3.439,3.439,0,0,1-4.342.508,8.192,8.192,0,0,0-8.711,0,3.454,3.454,0,0,1-4.342-.514c-2.536-2.58-3.228-2.62-6.709-3.555A3.6,3.6,0,0,1,10.1,44.188c-1.176-4.47-1.1-4.406-4.383-7.716a3.728,3.728,0,0,1-.925-3.548c1.189-4.447,1.2-4.448,0-8.9a3.731,3.731,0,0,1,.925-3.546c3.272-3.313,3.2-3.219,4.383-7.722a3.59,3.59,0,0,1,2.513-2.567c4.494-1.227,4.332-1.138,7.608-4.469a3.484,3.484,0,0,1,3.4-.935c4.445,1.223,4.356,1.226,8.8,0a3.5,3.5,0,0,1,3.4.93c3.253,3.338,3.192,3.275,7.612,4.475a3.6,3.6,0,0,1,2.509,2.57c1.176,4.47,1.1,4.406,4.383,7.716a3.728,3.728,0,0,1,.925,3.548c-1.2,4.454-1.191,4.457,0,8.9a3.731,3.731,0,0,1-.925,3.546c-3.271,3.314-3.2,3.219-4.383,7.722Z" transform="translate(0.003 0.002)"/></svg>