<svg xmlns="http://www.w3.org/2000/svg" width="183.151" height="96.671" viewBox="0 0 183.151 96.671"><defs><style>.a{fill:maroon;}</style></defs><g transform="translate(91.575 48.336)"><g transform="translate(-91.575 -48.336)"><rect class="a" width="1.032" transform="translate(90.092 77.879)"/><rect class="a" width="0.989" height="0.49" transform="translate(25.415 58.914)"/><rect class="a" width="0.989" height="0.49" transform="translate(34.145 59.387)"/><rect class="a" width="0.473" height="0.985" transform="translate(25.888 28.941)"/><path class="a" d="M0,110.671V14H0v96.671H0Z" transform="translate(0 -14)"/><rect class="a" width="0.989" height="0.49" transform="translate(34.145 77.75)"/><path class="a" d="M25.93,35.458h-3.4v-7.44H19.35v7.44H16.082V26.986H12.9V38.9H29.069v-12H25.93Z" transform="translate(-7.353 -21.353)"/><path class="a" d="M207.774,166.36a5.159,5.159,0,0,0-5.5-5.16H198.7v10.321h3.569A5.159,5.159,0,0,0,207.774,166.36Zm-7.913-4.085h2.408a4.091,4.091,0,1,1,0,8.171h-2.408Z" transform="translate(-113.253 -97.899)"/><path class="a" d="M149.787,204.8,145.1,215.207h1.2l1.2-2.752h5.633l1.2,2.752h1.247L150.905,204.8Zm-1.849,6.622,2.365-5.289,2.365,5.289Z" transform="translate(-82.702 -122.75)"/><path class="a" d="M263.972,24.6,255.5,44.51h4.429l1.806-4.429h8.343l1.806,4.429h4.558L267.971,24.6Zm-.688,11.611,2.623-6.407,2.623,6.407Z" transform="translate(-145.627 -20.042)"/><path class="a" d="M12.9,70.983h6.407v6.407H12.9v3.44H29.069v-3.44H22.576V70.983h6.493V67.5H12.9Z" transform="translate(-7.353 -44.493)"/><path class="a" d="M215.619,40.641c-3.4,0-5.719-2.838-5.719-6.192h0a5.848,5.848,0,0,1,5.719-6.149,7.241,7.241,0,0,1,5.031,2.236l2.752-3.182a10.248,10.248,0,0,0-7.784-3.053A10.065,10.065,0,0,0,205.3,34.535h0A9.977,9.977,0,0,0,215.49,44.684a10.1,10.1,0,0,0,8.085-3.526l-2.752-2.8A7.213,7.213,0,0,1,215.619,40.641Z" transform="translate(-117.012 -19.871)"/><path class="a" d="M122.14,210.977c0,2.279-1.2,3.4-3.1,3.4s-3.182-1.247-3.182-3.483V205H114.7v6.02c0,2.924,1.72,4.472,4.3,4.472s4.3-1.548,4.3-4.558V205H122.14Z" transform="translate(-65.375 -122.864)"/><rect class="a" width="4.343" height="19.756" transform="translate(78.395 4.687)"/><path class="a" d="M84.419,40.641c-3.4,0-5.719-2.838-5.719-6.192h0A5.848,5.848,0,0,1,84.419,28.3a7.241,7.241,0,0,1,5.031,2.236L92.2,27.353A10.248,10.248,0,0,0,84.419,24.3,10.065,10.065,0,0,0,74.1,34.535h0A9.977,9.977,0,0,0,84.29,44.684a10.1,10.1,0,0,0,8.085-3.526l-2.752-2.8A7.213,7.213,0,0,1,84.419,40.641Z" transform="translate(-42.233 -19.871)"/><path class="a" d="M140.385,32.727h-8.042V24.9H128V44.681h4.343V36.726h8.042v7.956h4.343V24.9h-4.343Z" transform="translate(-72.956 -20.213)"/><path class="a" d="M16.168,108.6H12.9v13.073h3.268V116.9h12.9v-3.483h-12.9Z" transform="translate(-7.353 -67.919)"/><path class="a" d="M334.245,215.265A5.332,5.332,0,1,0,329,209.933a5.246,5.246,0,0,0,5.246,5.332Zm0-9.59a4.134,4.134,0,0,1,4.085,4.3,4.062,4.062,0,0,1-4.042,4.257,4.134,4.134,0,0,1-4.085-4.3,4.062,4.062,0,0,1,4.042-4.257Z" transform="translate(-187.518 -122.637)"/><path class="a" d="M162.508,168.7h5.633l1.2,2.709h1.247L165.905,161h-1.118L160.1,171.407h1.2Zm2.838-6.321,2.365,5.289h-4.73Z" transform="translate(-91.252 -97.785)"/><path class="a" d="M367.261,211.321h2.967l3.01,4h1.419l-3.182-4.214a3.006,3.006,0,0,0,2.8-3.01c0-1.72-1.462-3.1-3.741-3.1H366.1v10.321h1.161Zm0-5.246h3.182c1.677,0,2.623.774,2.623,2.064s-1.118,2.15-2.666,2.15h-3.182Z" transform="translate(-208.665 -122.864)"/><path class="a" d="M400.457,214.244a4.9,4.9,0,0,1-3.526-1.462l-.731.86a6.02,6.02,0,0,0,4.214,1.634c2.064,0,3.526-1.161,3.526-2.924s-1.075-2.451-3.354-2.924-2.8-1.032-2.8-2.021.86-1.677,2.193-1.677a4.515,4.515,0,0,1,2.967,1.118l.688-.9a5.419,5.419,0,0,0-3.612-1.247c-1.978,0-3.4,1.161-3.4,2.838s1.075,2.494,3.483,3.01,2.709.989,2.709,1.978S401.833,214.244,400.457,214.244Z" transform="translate(-225.821 -122.69)"/><path class="a" d="M137.226,170.489h-6.364v-3.612h5.633V165.8h-5.633v-3.526h6.278V161.2H129.7v10.321h7.526Z" transform="translate(-73.925 -97.899)"/><path class="a" d="M264.245,215.265A5.332,5.332,0,1,0,259,209.933a5.246,5.246,0,0,0,5.246,5.332Zm0-9.59a4.134,4.134,0,0,1,4.085,4.3,4.062,4.062,0,0,1-4.042,4.257,4.134,4.134,0,0,1-4.085-4.3,4.062,4.062,0,0,1,4.042-4.257Z" transform="translate(-147.621 -122.637)"/><path class="a" d="M297.218,206.849l6.666,8.472h.946V205h-1.118v8.257L297.175,205H296.1v10.321h1.118Z" transform="translate(-168.767 -122.864)"/><path class="a" d="M235.474,210.06a5.159,5.159,0,0,0-5.5-5.16H226.4v10.321h3.569A5.158,5.158,0,0,0,235.474,210.06Zm-7.913-4.085h2.408a4.089,4.089,0,1,1,0,8.171h-2.408Z" transform="translate(-129.041 -122.807)"/><path class="a" d="M182.261,205H181.1v10.321h6.967v-1.075h-5.805Z" transform="translate(-103.221 -122.864)"/><path class="a" d="M54.712,213.257,48.218,205H47.1v10.321h1.161v-8.472l6.666,8.472h.9V205H54.712Z" transform="translate(-26.845 -122.864)"/><path class="a" d="M17.818,160.8a5.332,5.332,0,1,0,5.246,5.332,5.2,5.2,0,0,0-5.246-5.332Zm0,9.59a4.134,4.134,0,0,1-4.085-4.3,4.062,4.062,0,0,1,4.042-4.257,4.134,4.134,0,0,1,4.085,4.3A4.062,4.062,0,0,1,17.818,170.389Z" transform="translate(-7.067 -97.67)"/><path class="a" d="M49.9,171.521h1.161v-4.472h5.59v-1.075h-5.59v-3.7H57.3V161.2H49.9Z" transform="translate(-28.441 -97.899)"/><path class="a" d="M380.277,101.885,375.5,93.8h-5.2l7.741,12.213v7.956h4.429v-8.042L390.253,93.8h-5.074Z" transform="translate(-211.059 -59.483)"/><path class="a" d="M105.967,170.446h-5.805V161.2H99v10.321h6.967Z" transform="translate(-56.427 -97.899)"/><path class="a" d="M0,14v96.671H183.151V14Zm90.823,95.6H1.075V92.739H90.823Zm91.253,0H91.769V92.739h90.307Zm0-17.846H35.134v.516h-.989v-.473H1.075V73.9H34.145V73.43h.989V73.9H182.076Zm0-48.809H26.361v.989H182.033V72.914H26.361v.473h-.946v-.473H1.075V15.075h24.34V72.914H26.4V43.93h-.516v-.989h.473V15.075H182.033ZM34.145,91.75V73.9h.989V91.793Z" transform="translate(0 -14)"/><path class="a" d="M397,167.909H399.5c2.193,0,4.042-1.161,4.042-3.4s-1.548-3.311-3.87-3.311H395.8v10.321h1.161Zm0-5.59h2.623c1.677,0,2.8.774,2.8,2.236s-1.118,2.279-2.838,2.279h-2.537Z" transform="translate(-225.593 -97.899)"/><path class="a" d="M242.526,170.489h-6.364v-3.612h5.633V165.8h-5.633v-3.526h6.278V161.2H235v10.321h7.526Z" transform="translate(-133.942 -97.899)"/><rect class="a" width="1.161" height="10.329" transform="translate(161.735 63.301)"/><path class="a" d="M309.257,170.388a4.9,4.9,0,0,1-3.526-1.462l-.731.86a6.02,6.02,0,0,0,4.214,1.634c2.064,0,3.526-1.161,3.526-2.924s-1.075-2.451-3.354-2.924-2.8-1.032-2.8-2.021.86-1.677,2.193-1.677a4.515,4.515,0,0,1,2.967,1.118l.688-.9a5.375,5.375,0,0,0-3.612-1.29c-1.978,0-3.4,1.161-3.4,2.838s1.075,2.494,3.483,3.01,2.666.989,2.666,1.978S310.633,170.388,309.257,170.388Z" transform="translate(-173.84 -97.67)"/><path class="a" d="M339.161,166.876h5.977v4.644H346.3V161.2h-1.161v4.6h-5.977v-4.6H338v10.321h1.161Z" transform="translate(-192.649 -97.899)"/><path class="a" d="M320.4,97.885h6.149v16.083h4.429V97.885h6.107V93.8H320.4Z" transform="translate(-182.618 -59.483)"/><path class="a" d="M271.161,167.521h2.967l3.01,4h1.419l-3.182-4.214a3.006,3.006,0,0,0,2.8-3.01c0-1.72-1.462-3.1-3.741-3.1H270v10.321h1.161Zm0-5.246h3.182c1.677,0,2.666.774,2.666,2.064s-1.118,2.15-2.666,2.15h-3.182Z" transform="translate(-153.891 -97.899)"/><path class="a" d="M15.787,204.8,11.1,215.207h1.2l1.2-2.752h5.633l1.2,2.752h1.247L16.905,204.8Zm-1.849,6.622,2.408-5.246,2.365,5.289Z" transform="translate(-6.327 -122.75)"/><path class="a" d="M83.79,101.484c-3.483-.9-4.343-1.333-4.343-2.666h0c0-.989.9-1.763,2.58-1.763a9.5,9.5,0,0,1,5.246,1.978L89.6,95.679a11.654,11.654,0,0,0-7.483-2.58c-4.128,0-7.053,2.408-7.053,6.063h0c0,4,2.623,5.117,6.665,6.149,3.354.86,4.042,1.462,4.042,2.58h0c0,1.161-1.075,1.892-2.924,1.892a10.217,10.217,0,0,1-6.02-2.451L74.2,110.472a12.815,12.815,0,0,0,8.558,3.225c4.343,0,7.4-2.236,7.4-6.235h0C90.2,104.021,87.875,102.559,83.79,101.484Z" transform="translate(-42.292 -59.083)"/><path class="a" d="M320.434,36.682h4.386V39.52a6.924,6.924,0,0,1-4.085,1.2,5.935,5.935,0,0,1-5.977-6.278h0a5.923,5.923,0,0,1,5.676-6.149,7.172,7.172,0,0,1,5.16,2.021l2.752-3.311a10.831,10.831,0,0,0-7.784-2.709A10.149,10.149,0,0,0,310.2,34.532h0c0,5.848,4.214,10.149,10.407,10.149a12.815,12.815,0,0,0,8.429-3.139v-8.6h-8.6Z" transform="translate(-176.804 -19.868)"/><path class="a" d="M376.036,24.1A10.222,10.222,0,0,0,365.5,34.335h0a10.5,10.5,0,0,0,20.986,0h0A10.122,10.122,0,0,0,376.036,24.1Zm5.934,10.278a5.89,5.89,0,0,1-5.934,6.149,5.986,5.986,0,0,1-5.977-6.192h0a5.89,5.89,0,0,1,5.934-6.149A5.986,5.986,0,0,1,381.97,34.378Z" transform="translate(-208.323 -19.757)"/><path class="a" d="M88.712,213.257,82.175,205H81.1v10.321h1.118v-8.472l6.665,8.472h.946V205H88.712Z" transform="translate(-46.224 -122.864)"/><path class="a" d="M276.886,105.755h9.5v-3.913h-9.5V97.756H287.68V93.8H272.5v20.169h15.352v-3.956H276.886Z" transform="translate(-155.316 -59.483)"/><rect class="a" width="4.429" height="20.164" transform="translate(104.971 34.317)"/><path class="a" d="M197.248,109.885c-3.44,0-5.848-2.881-5.848-6.321h0a5.985,5.985,0,0,1,5.848-6.278,7.4,7.4,0,0,1,5.16,2.279l2.838-3.268a10.381,10.381,0,0,0-7.956-3.1A10.221,10.221,0,0,0,186.8,103.607h0a10.6,10.6,0,0,0,18.577,6.752l-2.838-2.838C200.946,108.939,199.57,109.885,197.248,109.885Z" transform="translate(-106.468 -59.141)"/><path class="a" d="M134.551,93A10.415,10.415,0,0,0,123.8,103.407h0a10.735,10.735,0,0,0,21.459-.043h0A10.344,10.344,0,0,0,134.551,93Zm6.063,10.493a6.052,6.052,0,0,1-6.063,6.278,6.124,6.124,0,0,1-6.106-6.321h0a6.052,6.052,0,0,1,6.063-6.278A6.124,6.124,0,0,1,140.614,103.493Z" transform="translate(-70.562 -59.027)"/></g></g></svg>