<svg xmlns="http://www.w3.org/2000/svg" width="55.064" height="73.419" viewBox="0 0 55.064 73.419"><defs><style>.a{fill:#fbf6f6;}</style></defs><path class="a" d="M40.151,34.415H24.091a1.151,1.151,0,0,0-1.147,1.147v2.294A1.151,1.151,0,0,0,24.091,39h16.06A1.151,1.151,0,0,0,41.3,37.857V35.562A1.151,1.151,0,0,0,40.151,34.415Zm0,13.766H24.091a1.151,1.151,0,0,0-1.147,1.147v2.294a1.151,1.151,0,0,0,1.147,1.147h16.06A1.151,1.151,0,0,0,41.3,51.623V49.329A1.151,1.151,0,0,0,40.151,48.181ZM16.06,33.268A3.442,3.442,0,1,0,19.5,36.71,3.433,3.433,0,0,0,16.06,33.268Zm0,13.766A3.442,3.442,0,1,0,19.5,50.476,3.433,3.433,0,0,0,16.06,47.034ZM48.181,9.177h-12.7a7.581,7.581,0,0,0,.086-1.147,8.03,8.03,0,0,0-16.06,0,7.581,7.581,0,0,0,.086,1.147H6.883A6.885,6.885,0,0,0,0,16.06V66.536a6.885,6.885,0,0,0,6.883,6.883h41.3a6.885,6.885,0,0,0,6.883-6.883V16.06A6.885,6.885,0,0,0,48.181,9.177ZM27.532,4.589A3.442,3.442,0,1,1,24.091,8.03,3.433,3.433,0,0,1,27.532,4.589ZM50.476,66.536a2.3,2.3,0,0,1-2.294,2.294H6.883a2.3,2.3,0,0,1-2.294-2.294V16.06a2.3,2.3,0,0,1,2.294-2.294h6.883v2.868a1.726,1.726,0,0,0,1.721,1.721H39.578A1.726,1.726,0,0,0,41.3,16.634V13.766h6.883a2.3,2.3,0,0,1,2.294,2.294Z"/></svg>