<svg xmlns="http://www.w3.org/2000/svg" width="67.789" height="67.789" viewBox="0 0 67.789 67.789"><defs><style>.a{fill:#fbf6f6;}</style></defs><path class="a" d="M59.315,0H8.474A8.481,8.481,0,0,0,0,8.474V46.6a8.481,8.481,0,0,0,8.474,8.474h12.71V66.2a1.584,1.584,0,0,0,1.589,1.589,1.52,1.52,0,0,0,.94-.318L40.25,55.079H59.315A8.481,8.481,0,0,0,67.789,46.6V8.474A8.481,8.481,0,0,0,59.315,0Zm4.237,46.6a4.249,4.249,0,0,1-4.237,4.237H38.833l-1.125.847L25.421,60.9V50.842H8.474A4.249,4.249,0,0,1,4.237,46.6V8.474A4.249,4.249,0,0,1,8.474,4.237H59.315a4.249,4.249,0,0,1,4.237,4.237ZM37.072,31.776H18.006a1.062,1.062,0,0,0-1.059,1.059v2.118a1.062,1.062,0,0,0,1.059,1.059H37.072a1.062,1.062,0,0,0,1.059-1.059V32.835A1.062,1.062,0,0,0,37.072,31.776Zm12.71-12.71H18.006a1.062,1.062,0,0,0-1.059,1.059v2.118A1.062,1.062,0,0,0,18.006,23.3H49.783a1.062,1.062,0,0,0,1.059-1.059V20.125A1.062,1.062,0,0,0,49.783,19.066Z"/></svg>