<svg xmlns="http://www.w3.org/2000/svg" width="70.104" height="70.104" viewBox="0 0 70.104 70.104"><defs><style>.a{fill:#fbf6f6;}</style></defs><path class="a" d="M48.2,33.957V31.766a1.1,1.1,0,0,0-1.1-1.1H23a1.1,1.1,0,0,0-1.1,1.1v2.191a1.1,1.1,0,0,0,1.1,1.1H47.1A1.1,1.1,0,0,0,48.2,33.957ZM23,26.289H47.1a1.1,1.1,0,0,0,1.1-1.1V23a1.1,1.1,0,0,0-1.1-1.1H23a1.1,1.1,0,0,0-1.1,1.1v2.191A1.1,1.1,0,0,0,23,26.289ZM67.72,22.526c-.271-.223-3.038-2.452-6.379-5.139V13.145A4.382,4.382,0,0,0,56.96,8.763H50.6c-.565-.453-1.056-.843-1.4-1.115C46.174,5.229,41,0,35.052,0,29.136,0,24.011,5.165,20.9,7.648c-.346.275-.835.667-1.4,1.115H13.145a4.382,4.382,0,0,0-4.382,4.382v4.242c-3.357,2.7-6.127,4.931-6.364,5.125A6.573,6.573,0,0,0,0,27.587V63.532A6.572,6.572,0,0,0,6.572,70.1h56.96A6.572,6.572,0,0,0,70.1,63.532V27.591A6.569,6.569,0,0,0,67.72,22.526ZM35.052,4.382c2.981,0,6.112,2.289,8.645,4.382H26.412C28.949,6.672,32.084,4.382,35.052,4.382ZM13.145,13.145H56.96V36.88c-4.427,3.56-8.941,7.18-11.856,9.494-2.307,1.839-6.872,6.255-10.051,6.2-3.178.052-7.744-4.365-10.051-6.205-2.915-2.314-7.427-5.933-11.856-9.494ZM4.382,27.587a2.185,2.185,0,0,1,.8-1.692c.17-.14,1.591-1.284,3.582-2.886V33.353c-1.579-1.271-3.082-2.482-4.382-3.53ZM65.723,63.532a2.194,2.194,0,0,1-2.191,2.191H6.572a2.194,2.194,0,0,1-2.191-2.191V35.451c5.853,4.716,13.6,10.943,17.893,14.352,2.806,2.24,7.769,7.193,12.778,7.156,4.991.036,9.9-4.855,12.776-7.156,4.3-3.413,12.04-9.638,17.894-14.354Zm0-33.709-4.382,3.531V23.011c1.977,1.591,3.4,2.734,3.587,2.892a2.182,2.182,0,0,1,.794,1.688Z"/></svg>