<svg xmlns="http://www.w3.org/2000/svg" width="70.505" height="66.098" viewBox="0 0 70.505 66.098"><defs><style>.a{fill:#fbf6f6;}</style></defs><path class="a" d="M63.9,33.626H58.483a11.383,11.383,0,0,0,2.107-6.61C60.59,20.944,55.991,16,50.331,16c-5.825,0-9.2,3.5-15.079,13.192C29.372,19.5,26,16,20.174,16c-5.66,0-10.259,4.944-10.259,11.016a11.383,11.383,0,0,0,2.107,6.61H6.61A6.612,6.612,0,0,0,0,40.236v13.22a2.21,2.21,0,0,0,2.2,2.2h2.2V75.488a6.612,6.612,0,0,0,6.61,6.61H59.488a6.612,6.612,0,0,0,6.61-6.61V55.659h2.2a2.21,2.21,0,0,0,2.2-2.2V40.236A6.612,6.612,0,0,0,63.9,33.626Zm-25.861-.5c6.816-11.471,9.089-12.724,12.3-12.724s5.852,2.961,5.852,6.61-2.63,6.61-5.852,6.61h-12.6ZM20.174,20.407c3.222,0,5.481,1.253,12.3,12.724l.289.5H20.16c-3.222,0-5.852-2.961-5.852-6.61S16.951,20.407,20.174,20.407Zm6.266,57.285H11.016a2.21,2.21,0,0,1-2.2-2.2V55.659H26.439Zm0-26.439H4.407V40.236a2.21,2.21,0,0,1,2.2-2.2H26.439Zm13.22,26.439H30.846V38.033h8.813Zm22.033-2.2a2.21,2.21,0,0,1-2.2,2.2H44.066V55.659H61.692ZM66.1,51.252H44.066V38.033H63.9a2.21,2.21,0,0,1,2.2,2.2Z" transform="translate(0 -16)"/></svg>