<svg xmlns="http://www.w3.org/2000/svg" width="115.999" height="116.041" viewBox="0 0 115.999 116.041"><defs><style>.a{fill:maroon;}</style></defs><g transform="translate(58 58.02)"><g transform="translate(-58 -58.02)"><path class="a" d="M58.02,113.6A55.577,55.577,0,1,0,2.443,58.02,55.639,55.639,0,0,0,58.02,113.6M0,58.02a58,58,0,1,1,58.02,58.02A58.06,58.06,0,0,1,0,58.02Z"/><path class="a" d="M65.4,12.7a52.761,52.761,0,1,0,52.719,52.761A52.761,52.761,0,0,0,65.4,12.7ZM88.8,22.929a48.868,48.868,0,0,1,14.867,12.714v.911a2.609,2.609,0,0,0-1.905.166c-.828.5-1.7,1.946-1.7,4.6v22.9h3.644v1.2h0v1.242h-3.644V81.653a16.234,16.234,0,0,1-6,1.2h-.7V66.662h-.538a29.908,29.908,0,0,0-11.85,2.446L79.9,68.235a32.137,32.137,0,0,1,12.8-2.733A32.8,32.8,0,0,1,74.43,59.746l.745-1.16A30.066,30.066,0,0,0,92.818,64.3h.538V38.252c0-4.8-1.532-10.395-4.6-14.039Zm-23.4.7c-2.112,0-3.562,4.224-3.562,10.271a30.171,30.171,0,0,0,6.253,17.684L67.059,53A30.545,30.545,0,0,1,59.729,33.9c0-6.792,2.485-11.554,5.674-11.554s5.674,5.177,5.674,11.513a28.948,28.948,0,0,1-4.059,14.37q-.58-.953-1.077-1.946a28.451,28.451,0,0,0,3.023-12.424C68.964,27.857,67.473,23.633,65.4,23.633ZM63.787,50.055l1.035,1.532A35.243,35.243,0,0,1,60.1,56.723l-1.284-.828A33.131,33.131,0,0,0,63.787,50.055Zm8.862-2.071a25.469,25.469,0,0,1,17.228-6.833,25.1,25.1,0,0,1,2.526.124v5.756a19.236,19.236,0,0,0-13.791,5.715A42.524,42.524,0,0,0,71.407,62.81l-3.644-1.905L64.45,59.166a41.1,41.1,0,0,1,8.158-11.182ZM27.136,35.643A48.868,48.868,0,0,1,42,22.929v1.284c-3.065,3.6-4.6,9.194-4.6,14.039v6.253H35.916a30.729,30.729,0,0,1-5.218-.7V41.317c0-2.65-.87-4.1-1.7-4.6a2.609,2.609,0,0,0-1.905-.166ZM16.866,65.461A20.161,20.161,0,0,1,30.159,46.535a64.522,64.522,0,0,1-6.543-1.077l2.153-2.195a31.143,31.143,0,0,0,10.1,2.236h2.4v1.532H36.7c-9.815.041-17.766,8.283-17.766,18.429A18.763,18.763,0,0,0,29.662,82.026v5.218a24.641,24.641,0,0,1-12.8-21.784ZM42,107.951A48.868,48.868,0,0,1,27.136,95.237v-.911a2.609,2.609,0,0,0,1.905-.166c.828-.5,1.7-1.946,1.7-4.6v-22.9H27.095v-1.2h0v-1.2h3.6V49.227a16.234,16.234,0,0,1,6-1.2h.7V64.218h.538a29.9,29.9,0,0,0,12.176-2.568l1.077.87a32.179,32.179,0,0,1-13.087,2.9,32.8,32.8,0,0,1,18.512,5.922l-.745,1.16a30.108,30.108,0,0,0-17.932-5.839h-.538V92.669c0,4.8,1.532,10.395,4.6,14.039Zm23.4-.7c2.112,0,3.562-4.224,3.562-10.271a29.729,29.729,0,0,0-6.046-17.394l1.035-1.408a30.3,30.3,0,0,1,7.123,18.843c0,6.668-2.526,11.513-5.674,11.513s-5.674-5.177-5.674-11.513a28.948,28.948,0,0,1,4.059-14.37q.58.953,1.077,1.946a28.492,28.492,0,0,0-3.023,12.424C61.8,103.023,63.29,107.247,65.4,107.247Zm1.615-26.422-1.035-1.532a35.079,35.079,0,0,1,4.928-5.342l1.284.828A33.048,33.048,0,0,0,67.017,80.825Zm-8.655,2.319A25.759,25.759,0,0,1,40.968,90.06a24.762,24.762,0,0,1-2.526-.124v-5.8h.124A19.063,19.063,0,0,0,52.44,78.382c2.361-2.236,4.763-5.591,7.413-10.395l3.354,1.739,3.6,1.864c-2.692,4.845-5.177,8.49-8.448,11.513ZM65.4,114A20.161,20.161,0,0,1,46.476,100.7a64.357,64.357,0,0,1-1.077,6.543L43.2,105.093a31.185,31.185,0,0,0,2.236-10.1c0-.456,0-1.077.041-2.4h1.532V94.16c.041,9.815,8.283,17.766,18.429,17.766s18.677-9.111,18.677-19.589a19.063,19.063,0,0,0-5.756-13.874c-2.858-2.982-7.5-6.046-14.619-9.649S51.819,62.4,48.05,58.255a25.428,25.428,0,0,1-6.957-17.269,24,24,0,0,1,24.268-24.1A20.161,20.161,0,0,1,84.287,30.176a64.606,64.606,0,0,1,1.077-6.543l2.195,2.154a31.1,31.1,0,0,0-2.236,10.1c0,.456,0,1.16-.041,2.443H83.748V36.72c-.041-9.815-8.283-17.766-18.429-17.766S46.932,28.064,46.932,38.418a19.236,19.236,0,0,0,5.715,13.791c2.858,2.982,7.454,6,14.536,9.567S79.234,68.318,83.044,72.46A25.759,25.759,0,0,1,89.96,89.853c0,13.666-11.182,24.1-24.558,24.1Zm38.225-18.76a48.868,48.868,0,0,1-14.867,12.714v-1.284c3.065-3.6,4.6-9.194,4.6-14.039V86.375h1.491a30.771,30.771,0,0,1,5.218.7v2.443c0,2.65.87,4.1,1.7,4.6a2.609,2.609,0,0,0,1.905.166Zm3.52-9.815-2.154,2.195a31.1,31.1,0,0,0-10.1-2.236H92.445V83.848H94.06c9.815-.041,17.766-8.283,17.766-18.429A18.425,18.425,0,0,0,101.1,49.02V43.884a24.185,24.185,0,0,1,12.838,21.535,20.161,20.161,0,0,1-13.294,18.926,64.769,64.769,0,0,1,6.5,1.077Z" transform="translate(-7.382 -7.44)"/></g></g></svg>