<svg xmlns="http://www.w3.org/2000/svg" width="171.121" height="106.607" viewBox="0 0 171.121 106.607"><defs><style>.a{fill:maroon;}</style></defs><g transform="translate(94.781 59.048)"><g transform="translate(-94.781 -59.048)"><g transform="translate(0 18.552)"><path class="a" d="M12,216.6a12.731,12.731,0,0,1-6.212-1.459c-.75-.417-1-3.711-1.084-5.587.208-.292.792-.375.959-.125.584,2.043,2.251,5.92,6.838,5.92,3.335,0,5-2.21,5-4.586,0-1.751-.375-3.711-3.252-5.587l-3.794-2.46c-2-1.334-4.294-3.586-4.294-6.838S9.078,189,14.289,189a15.384,15.384,0,0,1,3.711.5,5.337,5.337,0,0,0,1.376.25,17.469,17.469,0,0,1,.709,4.878c-.167.25-.792.375-1,.125-.5-1.918-1.584-4.5-5.42-4.5s-4.753,2.585-4.753,4.419,1.918,4,3.377,4.92l3.169,2c2.5,1.543,4.961,3.877,4.961,7.671s-3.294,7.38-8.505,7.38Z" transform="translate(-2.726 -128.795)"/><path class="a" d="M73.115,204.384c0-6.587-2.918-13.675-10.506-13.675-4.128,0-9.506,2.835-9.506,11.549,0,5.92,2.877,13.55,10.715,13.55,4.795,0,9.339-3.586,9.339-11.424ZM49.1,203.55A13.753,13.753,0,0,1,63.275,189.5c9.214,0,13.842,6.671,13.842,13.675A13.621,13.621,0,0,1,63.275,217.1c-8.839,0-14.175-6.337-14.175-13.508Z" transform="translate(-28.614 -129.087)"/><path class="a" d="M126.243,192.877A17.334,17.334,0,0,1,137,189.5a30.772,30.772,0,0,1,7.046.959,3,3,0,0,0,1.126.167c.042.917.25,3.419.542,5.879a.834.834,0,0,1-1.084.083c-.584-2.71-2.376-5.837-8.172-5.837s-11.3,3.877-11.3,12.132,5.295,13.008,11.841,13.008a8.5,8.5,0,0,0,8.338-5.712.834.834,0,0,1,1.042.167,15.358,15.358,0,0,1-1.918,5.462,7.922,7.922,0,0,0-1.376.417,23.514,23.514,0,0,1-6.3.917,17.424,17.424,0,0,1-9.923-2.668,13.525,13.525,0,0,1-.667-21.513Z" transform="translate(-70.653 -129.087)"/><path class="a" d="M190.608,197.07c0-4.211-.083-4.92-2.418-5.086l-1-.083c-.25-.167-.167-.876.083-1l5,.125,4.961-.125c.25.125.334.834.083,1l-1,.083c-2.335.208-2.418.876-2.418,5.086v14.175c0,4.211.083,4.795,2.418,5.045l1,.125c.25.167.167.876-.083,1l-4.961-.125-5,.125a.792.792,0,0,1-.083-1l1-.125c2.335-.292,2.418-.834,2.418-5.045Z" transform="translate(-109.043 -129.903)"/><path class="a" d="M225.5,197.287c0-4.128-.083-4.753-2.418-5l-.625-.083c-.25-.167-.167-.876.083-1l4.711.125h7.5a50.959,50.959,0,0,0,5.378-.125,44.15,44.15,0,0,1,.625,5.295.792.792,0,0,1-1,.083c-.584-1.876-.959-3.252-3.044-3.794a18.927,18.927,0,0,0-3.877-.25H229.96c-1.209,0-1.209.083-1.209,1.584v7.963c0,1.126.125,1.126,1.334,1.126h2.293a13.964,13.964,0,0,0,3.377-.25c.459-.167.75-.417.959-1.376l.334-1.626a.792.792,0,0,1,1.042.042c0,.959-.167,2.5-.167,4.044s.167,2.96.167,3.836a.792.792,0,0,1-1.042.042l-.375-1.543c-.167-.709-.459-1.334-1.251-1.5a14.027,14.027,0,0,0-3.085-.208h-2.251c-1.209,0-1.334.042-1.334,1.084v5.628c0,2.126.125,3.46.75,4.128s1.334.917,4.836.917,4.211-.167,5.086-.584,1.793-1.793,2.835-3.877a.75.75,0,0,1,1,.292,34.813,34.813,0,0,1-1.793,5.545l-10.673-.125h-3.586l-5.42.125a.792.792,0,0,1-.083-1l1.334-.125c2.251-.208,2.46-.792,2.46-4.961Z" transform="translate(-129.175 -130.078)"/><path class="a" d="M290.367,209.653c0,4.169.083,4.795,2.376,4.961l1.292.125c.25.167.167.876-.083,1l-5.212-.125-5.545.125a.709.709,0,0,1,0-1l1.418-.125c2.293-.208,2.46-.792,2.46-4.961v-17.8c0-1.251,0-1.292-1.209-1.292h-2.21c-1.709,0-3.919.083-4.92,1a7.254,7.254,0,0,0-1.793,2.752.751.751,0,0,1-1.042-.292,42.153,42.153,0,0,0,1.5-5.92,1,1,0,0,1,.75,0c.25,1.292,1.543,1.251,3.377,1.251h16.135c2.168,0,2.5-.083,3.127-1.126.208-.083.625-.042.709.125a24.139,24.139,0,0,0-.584,6.045.733.733,0,0,1-1.042.083c-.125-1-.417-2.46-1-2.918a9.075,9.075,0,0,0-4.628-1H291.41c-1.209,0-1.167.042-1.167,1.334Z" transform="translate(-160.857 -128.227)"/><path class="a" d="M356.356,211.129c0,4.253.25,4.92,2.376,5.045l1.5.125a.792.792,0,0,1-.083,1l-5.42-.125-5.211.125a.792.792,0,0,1-.083-1l1.251-.125c2.293-.25,2.376-.792,2.376-5.045v-2.043a8.021,8.021,0,0,0-1.292-4.961l-4.711-9.172c-1.334-2.627-1.959-2.835-3.169-3.044l-1.126-.208a.709.709,0,0,1,.083-1c1.292.083,2.71.125,4.628.125s3.252-.042,4.253-.125c.375.125.375.75.125,1l-.5.083c-1.376.208-1.668.417-1.668.709a25.242,25.242,0,0,0,1.251,3.085c1.459,2.96,2.96,6.087,4.5,8.839,1.251-2.126,2.543-4.419,3.752-6.754a41.006,41.006,0,0,0,2.585-5.253c0-.459-.709-.5-1.668-.625l-.709-.083a.667.667,0,0,1,.083-1l3.836.125,3.711-.125a.667.667,0,0,1,.083,1l-1.126.208c-2.085.375-3.252,2.877-5.253,6.3l-2.5,4.336c-1.751,3.044-1.876,3.377-1.876,6.462Z" transform="translate(-199.745 -129.786)"/><path class="a" d="M14.53,61.5c.917,1.876,1.793,3.711,2.752,5.462h.083C18.449,65.087,19.45,63,20.45,61l3.752-7.63c1.793-3.627,2.96-5.837,3.044-7.671a28.856,28.856,0,0,0,3,.125l3.544-.125a.834.834,0,0,1,.042,1L33,46.784c-2.5.25-2.835,1-2.793,3.794.083,4.211.125,11.59.459,17.344.125,2,.083,3.085,1.96,3.21l1.292.125a.75.75,0,0,1-.083,1l-4.711-.125-4.836.125a.75.75,0,0,1-.083-1l1.167-.125c1.96-.208,1.96-.834,1.96-3.377L27.2,51.12h-.083c-.292.459-1.793,3.627-2.585,5.17l-3.627,7c-1.793,3.5-3.586,7.254-4.294,9.089a.459.459,0,0,1-.417.167.5.5,0,0,1-.375-.167,85.24,85.24,0,0,0-3.5-7.963L8.735,56.748c-.834-1.834-1.668-3.919-2.543-5.754H6.108c-.167,2.46-.292,4.795-.417,7.088S5.4,64.045,5.4,67.463s.25,3.586,1.793,3.711l1.5.125c.292.25.25.876-.042,1-1.334-.083-2.918-.125-4.419-.125L.188,72.3a.792.792,0,0,1-.083-1l.876-.125c1.668-.25,2.251-.459,2.46-3.252s.459-4.836.667-8.755c.208-3.294.375-6.712.459-8.88s-.25-3.127-2.668-3.419l-.625-.083a.75.75,0,0,1,.167-1l3.169.125A32.476,32.476,0,0,0,7.9,45.783c-.167,1.543.834,4.044,2.085,6.587Z" transform="translate(0.035 -45.24)"/><path class="a" d="M157.786,57.682a3.159,3.159,0,0,0,.125,1.334c.125.167.709.208,2.752.208s2.96-.167,4.086-1.042,2-2.251,2-4.961a6.1,6.1,0,0,0-6.379-6.129c-2.46,0-2.585.167-2.585,1.292Zm-3.252-5.712c0-3.794-.125-4.461-1.751-4.67l-1.292-.167a.667.667,0,0,1,.042-1c2.251-.208,5-.334,8.88-.334a14.151,14.151,0,0,1,6.671,1.209,5.92,5.92,0,0,1,3.294,5.587c0,3.794-3,5.879-4.961,6.671-.208.25,0,.625.208.959,3.169,5.128,5.295,8.338,8,10.59a4.8,4.8,0,0,0,2.752,1.126.334.334,0,0,1,.042.542,6.212,6.212,0,0,1-1.751.208c-3.377,0-5.42-1-8.255-5-1.042-1.459-2.668-4.211-3.919-6a2.859,2.859,0,0,0-2.835-1.292c-1.584,0-1.876.042-1.876.876v5c0,4.169.083,4.67,2.376,4.961l.834.125a.792.792,0,0,1-.083,1l-4.753-.125c-1.709,0-3.085,0-4.92.083a.709.709,0,0,1-.125-.959l1-.125c2.293-.292,2.376-.792,2.376-4.961Z" transform="translate(-88.02 -45.298)"/><path class="a" d="M228.015,59.584c0-6.587-2.918-13.675-10.506-13.675-4.128,0-9.506,2.835-9.506,11.549,0,5.879,2.877,13.55,10.715,13.55,4.795,0,9.339-3.586,9.339-11.424ZM204,58.75A13.753,13.753,0,0,1,218.175,44.7c9.214,0,13.842,6.671,13.842,13.675A13.621,13.621,0,0,1,218.175,72.3C209.337,72.3,204,65.963,204,58.792Z" transform="translate(-118.933 -44.657)"/><path class="a" d="M299.615,59.584c0-6.587-2.918-13.675-10.506-13.675-4.128,0-9.548,2.835-9.548,11.549,0,5.879,2.877,13.55,10.715,13.55C295.07,71.008,299.615,67.422,299.615,59.584ZM275.6,58.75A13.753,13.753,0,0,1,289.775,44.7c9.214,0,13.842,6.671,13.842,13.675A13.621,13.621,0,0,1,289.775,72.3c-8.839,0-14.175-6.337-14.175-13.508Z" transform="translate(-160.682 -44.657)"/><path class="a" d="M365.78,65.479c0,1.209,0,5.92.125,6.963a.709.709,0,0,1-.75.459c-.459-.667-1.626-2.085-5.086-6l-9.256-10.548c-1.084-1.251-3.794-4.5-4.628-5.378H346.1a10.13,10.13,0,0,0-.208,2.585v8.714c0,1.876.042,7.046.709,8.255.25.459,1.042.667,2.043.75l1.251.125a.75.75,0,0,1-.083,1l-4.67-.125c-1.668,0-2.752.042-4.128.125a.75.75,0,0,1-.083-1l1.084-.125c.917-.125,1.543-.375,1.751-.792.542-1.418.5-6.3.5-8.213V50.72a3.672,3.672,0,0,0-.876-2.877,3.106,3.106,0,0,0-2.46-.959l-.667-.083a.709.709,0,0,1,.083-1c1.668.125,3.794.125,4.5.125a12.84,12.84,0,0,0,1.834-.125c.792,2.043,5.5,7.3,6.8,8.755l3.877,4.336c2.752,3.085,4.711,5.295,6.587,7.213h.083a3.852,3.852,0,0,0,.167-1.668V55.973c0-1.876-.042-7.046-.792-8.255-.25-.375-.876-.584-2.46-.792l-.667-.083c-.292-.25-.25-.876.083-1l4.711.125c1.709,0,2.752-.042,4.086-.125a.709.709,0,0,1,.083,1l-.542.083c-1.292.208-2.085.5-2.251.834-.667,1.418-.584,6.379-.584,8.213Z" transform="translate(-198.288 -45.298)"/><path class="a" d="M94.377,58.774c-.334.917-.292.959.834.959h4.92c1.167,0,1.251-.167.876-1.251l-2.168-6.5a26.348,26.348,0,0,0-.917-2.5h-.083a24.218,24.218,0,0,0-.959,2.335Zm7.88,3.544c-.292-.876-.459-1-1.626-1h-6c-1,0-1.251.125-1.5.959l-1.418,4.169a16.48,16.48,0,0,0-.876,3.294c0,.417.208.709,1.167.792l1.334.125a.625.625,0,0,1-.083,1c-1.042-.083-2.251-.083-4.128-.125l-3.836.125a.792.792,0,0,1-.083-1l1.334-.125a2.6,2.6,0,0,0,2.376-1.96c.542-1.459,1.834-4.419,3.5-8.88L96.5,48.934A5.8,5.8,0,0,0,97.17,46.1a4.461,4.461,0,0,0,2.085-1.5.584.584,0,0,1,.584.375c.5,1.751,1.167,3.586,1.751,5.337l5.462,16.01c1.167,3.419,1.668,4.044,3.377,4.211l1.084.125a.792.792,0,0,1,0,1c-1.626-.083-3.044-.125-4.836-.125s-3.419.083-4.586.125a.667.667,0,0,1-.083-1l1.167-.125c.834-.083,1.376-.334,1.376-.709a8.13,8.13,0,0,0-.5-2.126Z" transform="translate(-49.585 -44.597)"/><path class="a" d="M356.378,138.329c0,4.253.25,4.92,2.376,5.045l1.5.125a.792.792,0,0,1-.083,1l-5.42-.125-5.211.125a.792.792,0,0,1-.083-1l1.251-.125c2.293-.25,2.376-.792,2.376-5.045v-2.043a8.021,8.021,0,0,0-1.292-4.961l-4.711-9.172c-1.334-2.627-1.959-2.835-3.169-3.044l-1.126-.208a.75.75,0,0,1,.083-1c1.292.083,2.71.125,4.628.125s3.252-.042,4.253-.125c.375.125.375.75.125,1l-.5.083c-1.376.208-1.668.417-1.668.709a25.244,25.244,0,0,0,1.251,3.085c1.459,2.96,2.96,6.087,4.5,8.839,1.251-2.126,2.543-4.419,3.752-6.754a41,41,0,0,0,2.585-5.253c0-.459-.709-.5-1.668-.625l-.709-.083a.667.667,0,0,1,.083-1l3.836.125,3.711-.125a.667.667,0,0,1,.083,1l-1.126.208c-2.085.375-3.252,2.877-5.253,6.3l-2.5,4.336c-1.751,3.044-1.876,3.377-1.876,6.462Z" transform="translate(-199.767 -87.338)"/><path class="a" d="M7.274,124.187c0-4.169-.083-4.836-2.585-5l-1-.083c-.25-.167-.167-.876.083-1l5.17.125,4.92-.125c.25.125.334.834.083,1l-.959.083c-2.335.208-2.418.834-2.418,5v13.884c0,2.5.125,3.544.834,4.294s1.209.917,4.336.917,4.211-.167,4.878-.5,1.834-1.918,2.627-3.961c.25-.208,1-.042,1,.25a38.224,38.224,0,0,1-1.668,5.587c-2.043-.083-5.837-.125-9.923-.125H8.942l-5.17.125a.792.792,0,0,1-.083-1l1.209-.125c2.293-.25,2.376-.792,2.376-5Z" transform="translate(-2.048 -87.455)"/><path class="a" d="M80.856,131.726c0-6.587-2.918-13.675-10.506-13.675-4.128,0-9.548,2.835-9.548,11.549,0,5.92,2.877,13.55,10.715,13.55C76.312,143.149,80.856,139.564,80.856,131.726ZM56.8,130.892A13.787,13.787,0,0,1,70.975,116.8c9.214,0,13.842,6.671,13.842,13.675A13.621,13.621,0,0,1,70.975,144.4c-8.839,0-14.175-6.337-14.175-13.508Z" transform="translate(-33.104 -86.697)"/><path class="a" d="M134.878,138.329c0,4.253.25,4.92,2.376,5.045l1.5.125a.792.792,0,0,1-.083,1l-5.42-.125-5.212.125a.792.792,0,0,1-.083-1l1.251-.125c2.293-.25,2.376-.792,2.376-5.045v-2.043a8.021,8.021,0,0,0-1.292-4.961l-4.711-9.172c-1.334-2.627-1.96-2.835-3.169-3.044l-1.126-.208a.75.75,0,0,1,.083-1c1.292.083,2.71.125,4.628.125s3.252-.042,4.253-.125c.375.125.375.75.125,1l-.5.083c-1.376.208-1.668.417-1.668.709a25.248,25.248,0,0,0,1.251,3.085c1.459,2.96,2.96,6.087,4.5,8.839,1.251-2.126,2.543-4.419,3.752-6.754a41.007,41.007,0,0,0,2.585-5.253c0-.459-.709-.5-1.668-.625l-.709-.083a.667.667,0,0,1,.083-1l3.836.125,3.711-.125a.667.667,0,0,1,.083,1l-1.126.208c-2.085.375-3.252,2.877-5.253,6.3l-2.5,4.336c-1.751,3.044-1.876,3.377-1.876,6.462Z" transform="translate(-70.615 -87.338)"/><path class="a" d="M180.435,130.974c-.334.917-.292.959.834.959h4.92c1.167,0,1.251-.167.876-1.251l-2.168-6.5a26.433,26.433,0,0,0-.917-2.5H183.9a24.3,24.3,0,0,0-.959,2.335Zm7.88,3.544c-.292-.876-.459-1-1.626-1h-6c-1,0-1.251.125-1.5.959l-1.376,4.169a16.479,16.479,0,0,0-.876,3.294c0,.417.208.709,1.167.792l1.334.125a.625.625,0,0,1-.083,1c-1.042-.083-2.293-.083-4.128-.125l-3.836.125a.792.792,0,0,1-.083-1l1.334-.125a2.6,2.6,0,0,0,2.376-1.96c.542-1.459,1.834-4.419,3.5-8.88l4.086-10.757a5.8,5.8,0,0,0,.667-2.835,4.461,4.461,0,0,0,2.085-1.5.584.584,0,0,1,.584.375c.5,1.751,1.167,3.586,1.751,5.337l5.462,16.01c1.167,3.419,1.668,4.044,3.377,4.211l1.084.125a.792.792,0,0,1,0,1c-1.626-.083-3.044-.125-4.836-.125s-3.419.083-4.586.125a.667.667,0,0,1-.083-1l1.167-.125c.834-.083,1.376-.334,1.376-.709a8.129,8.129,0,0,0-.5-2.126Z" transform="translate(-99.788 -86.695)"/><path class="a" d="M237.774,124.187c0-4.169-.083-4.836-2.585-5l-1-.083c-.25-.167-.167-.876.083-1l5.17.125,4.92-.125c.25.125.334.834.083,1l-.959.083c-2.335.208-2.418.834-2.418,5v13.884c0,2.5.125,3.544.834,4.294s1.209.917,4.336.917,4.211-.167,4.878-.5,1.834-1.918,2.627-3.961c.25-.208,1-.042,1,.25a38.223,38.223,0,0,1-1.668,5.587c-2.043-.083-5.837-.125-9.923-.125h-3.711l-5.17.125a.792.792,0,0,1-.083-1l1.209-.125c2.293-.25,2.376-.792,2.376-5Z" transform="translate(-136.448 -87.455)"/><path class="a" d="M290.367,136.853c0,4.169.083,4.795,2.376,5l1.292.125c.25.167.167.876-.083,1l-5.212-.125-5.545.125a.709.709,0,0,1,0-1l1.418-.125c2.293-.208,2.46-.792,2.46-5v-17.8c0-1.251,0-1.292-1.209-1.292h-2.21c-1.709,0-3.919.083-4.92,1a7.3,7.3,0,0,0-1.793,2.752.792.792,0,0,1-1.042-.292,41.907,41.907,0,0,0,1.5-5.92,1,1,0,0,1,.75,0c.25,1.292,1.543,1.251,3.377,1.251h16.135c2.168,0,2.5-.083,3.127-1.126.208-.083.625-.042.709.125a24.184,24.184,0,0,0-.584,6.045.75.75,0,0,1-1.042.083c-.125-1-.417-2.46-1-2.918a9.075,9.075,0,0,0-4.628-1H291.41c-1.209,0-1.167.042-1.167,1.376Z" transform="translate(-160.857 -85.779)"/></g><g transform="translate(75.936)"><path class="a" d="M191.648.976c.667,0,.834-.042.876-.167l.167-.334A2.752,2.752,0,0,1,193.816.1l.083.083L192.69,3.56,190.98,8.522h.042a10.465,10.465,0,0,1,2.627-2.752,2.835,2.835,0,0,1,1.584-.625,1,1,0,0,1,1,1.126,13.948,13.948,0,0,1-1.292,3.877,5.8,5.8,0,0,1-1.084,1.376,1.834,1.834,0,0,1-1.209.625c-.542,0-.625-.334-.625-.5a.542.542,0,0,1,.459-.542l.25.083a.959.959,0,0,0,.417.208c.25,0,.417-.25.667-.834a19.7,19.7,0,0,0,1.167-4.253c0-.917-.125-.5-.334-.5a1.793,1.793,0,0,0-.876.459,10.464,10.464,0,0,0-2.085,2.21,26.891,26.891,0,0,0-2,3.46.292.292,0,0,1-.292.208c-.167,0-.625-.042-.5-.417l2.96-8.88c.334-1.042.417-1.334-1.084-1.334h-1.793c-.542,0-.542.042-.75.709l-2.418,7.3c-.5,1.543-.542,1.918.292,1.96h.542a.25.25,0,0,1-.083.417h-4.086a.292.292,0,0,1,0-.417h.584c.709-.083.917-.292,1.5-1.96l2.418-7.3c.25-.709.167-.709-.375-.709h-1.334a2.731,2.731,0,0,0-2.793,1.5.292.292,0,0,1-.375-.167,21.593,21.593,0,0,0,1.209-2.21.25.25,0,0,1,.334,0c-.042.292.167.375,1.209.375Z" transform="translate(-182.1 -0.1)"/><path class="a" d="M220.077,13.434a6.629,6.629,0,0,0-1.209,1.918,4.836,4.836,0,0,0,2.21-1.209,1.876,1.876,0,0,0,.625-1.126.334.334,0,0,0-.375-.375C221.077,12.642,220.66,12.809,220.077,13.434ZM222.7,13.1c0,1.251-1.626,2.085-4,2.752a4.169,4.169,0,0,0-.25,1.459.834.834,0,0,0,.792.959c.584,0,1-.334,1.751-.959a.208.208,0,0,1,.208.292,3.343,3.343,0,0,1-2.668,1.5c-.709,0-1.334-.917-1.334-1.751a6.7,6.7,0,0,1,2.46-4.461,3.169,3.169,0,0,1,2-.792A1.042,1.042,0,0,1,222.7,13.1Z" transform="translate(-202.566 -7.097)"/><path class="a" d="M220.077,13.434a6.629,6.629,0,0,0-1.209,1.918,4.836,4.836,0,0,0,2.21-1.209,1.876,1.876,0,0,0,.625-1.126.334.334,0,0,0-.375-.375C221.077,12.642,220.66,12.809,220.077,13.434ZM222.7,13.1c0,1.251-1.626,2.085-4,2.752a4.169,4.169,0,0,0-.25,1.459.834.834,0,0,0,.792.959c.584,0,1-.334,1.751-.959a.208.208,0,0,1,.208.292,3.343,3.343,0,0,1-2.668,1.5c-.709,0-1.334-.917-1.334-1.751a6.7,6.7,0,0,1,2.46-4.461,3.169,3.169,0,0,1,2-.792A1.042,1.042,0,0,1,222.7,13.1Z" transform="translate(-202.566 -7.097)"/></g></g></g></svg>