<svg xmlns="http://www.w3.org/2000/svg" width="79.766" height="53.177" viewBox="0 0 79.766 53.177"><defs><style>.a{fill:#fbf6f6;}</style></defs><path class="a" d="M76.442,64H12.186a3.327,3.327,0,0,0-3.324,3.324v1.108H3.324A3.324,3.324,0,0,0,0,71.755V110.53a6.647,6.647,0,0,0,6.647,6.647H76.442a3.327,3.327,0,0,0,3.324-3.324V67.324A3.327,3.327,0,0,0,76.442,64ZM4.431,110.53V72.863H8.863V110.53a2.216,2.216,0,1,1-4.431,0Zm70.9,2.216H12.915a6.633,6.633,0,0,0,.38-2.216v-42.1h62.04ZM19.387,99.451H42.652a1.662,1.662,0,0,0,1.662-1.662V74.525a1.662,1.662,0,0,0-1.662-1.662H19.387a1.662,1.662,0,0,0-1.662,1.662V97.79A1.662,1.662,0,0,0,19.387,99.451Zm2.77-22.157H39.883V95.02H22.157Zm-4.431,29.358v-1.108a1.662,1.662,0,0,1,1.662-1.662H42.652a1.662,1.662,0,0,1,1.662,1.662v1.108a1.662,1.662,0,0,1-1.662,1.662H19.387A1.662,1.662,0,0,1,17.726,106.652Zm31.02,0v-1.108a1.662,1.662,0,0,1,1.662-1.662H69.241a1.662,1.662,0,0,1,1.662,1.662v1.108a1.662,1.662,0,0,1-1.662,1.662H50.407A1.662,1.662,0,0,1,48.746,106.652Zm0-8.863V96.682a1.662,1.662,0,0,1,1.662-1.662H69.241A1.662,1.662,0,0,1,70.9,96.682V97.79a1.662,1.662,0,0,1-1.662,1.662H50.407A1.662,1.662,0,0,1,48.746,97.79Zm0-17.726V78.956a1.662,1.662,0,0,1,1.662-1.662H69.241A1.662,1.662,0,0,1,70.9,78.956v1.108a1.662,1.662,0,0,1-1.662,1.662H50.407A1.662,1.662,0,0,1,48.746,80.064Zm0,8.863V87.819a1.662,1.662,0,0,1,1.662-1.662H69.241A1.662,1.662,0,0,1,70.9,87.819v1.108a1.662,1.662,0,0,1-1.662,1.662H50.407A1.662,1.662,0,0,1,48.746,88.927Z" transform="translate(0 -64)"/></svg>