<svg xmlns="http://www.w3.org/2000/svg" width="236.27" height="99.642" viewBox="0 0 236.27 99.642"><defs><style>.a{fill:maroon;}</style></defs><g transform="translate(129.589 54.652)"><g transform="translate(-129.589 -54.652)"><g transform="translate(121.098 89.65)"><path class="a" d="M559.9,423.14l.67-.8A4.66,4.66,0,0,0,563.9,423.7c1.341,0,2.163-.692,2.163-1.644h0c0-.908-.476-1.406-2.53-1.838s-3.266-1.211-3.266-2.79h0c0-1.514,1.341-2.639,3.179-2.639a5.061,5.061,0,0,1,3.417,1.19l-.627.844a4.261,4.261,0,0,0-2.79-1.06c-1.254,0-2.055.692-2.055,1.557h0c0,.908.5,1.427,2.639,1.882s3.158,1.254,3.158,2.747h0c0,1.665-1.384,2.747-3.309,2.747a5.688,5.688,0,0,1-3.958-1.557" transform="translate(-559.9 -414.727)"/><path class="a" d="M620.96,419.518h0a3.821,3.821,0,1,0-7.635-.022h0a3.821,3.821,0,1,0,7.635.022m-8.76,0h0a4.953,4.953,0,1,1,9.906-.065h0a4.943,4.943,0,1,1-9.884.022" transform="translate(-600.888 -414.5)"/><path class="a" d="M677.5,419.518h0a4.889,4.889,0,0,1,4.91-5.018,5.093,5.093,0,0,1,3.785,1.536l-.757.8a4.219,4.219,0,0,0-3.05-1.341,3.818,3.818,0,0,0-3.763,3.98h0a3.824,3.824,0,0,0,3.763,4,4.212,4.212,0,0,0,3.136-1.406l.714.714a5.086,5.086,0,0,1-3.872,1.709,4.849,4.849,0,0,1-4.866-5" transform="translate(-652.065 -414.5)"/></g><rect class="a" width="1.103" height="9.7" transform="translate(159.618 89.78)"/><path class="a" d="M767.3,415.1v9.711h7.072v-.995h-5.991v-3.4h5.3v-.995h-5.3v-3.331h5.926V415.1Z" transform="translate(-601.345 -325.32)"/><path class="a" d="M818.4,415.1v1.017h3.266v8.695h1.1v-8.695h3.266V415.1Z" transform="translate(-641.392 -325.32)"/><path class="a" d="M879.116,415.1l-3.309,4.866-3.266-4.866H871.2l4.044,5.861v3.85h1.1v-3.85l4.044-5.861Z" transform="translate(-682.773 -325.32)"/><path class="a" d="M183.7,0V1.017h3.244V9.711h1.1V1.017h3.266V0Z" transform="translate(-143.968)"/><path class="a" d="M246.7,0V4.3h-5.6V0H240V9.711h1.1V5.342h5.6V9.711h1.081V0Z" transform="translate(-188.092)"/><path class="a" d="M301.5,0V9.711h7.073V8.695h-5.991V5.3h5.3V4.3h-5.3V.995h5.926V0Z" transform="translate(-236.29)"/><g transform="translate(0 24.354)"><path class="a" d="M12.953,278.746a7.011,7.011,0,0,1-3.547-.844c-.433-.26-.562-2.12-.606-3.2.108-.151.454-.216.541-.065.346,1.168,1.276,3.4,3.915,3.4a2.6,2.6,0,0,0,2.855-2.617,3.392,3.392,0,0,0-1.86-3.179l-2.163-1.406a4.861,4.861,0,0,1-2.466-3.915c0-1.86,1.687-3.915,4.65-3.915a7.653,7.653,0,0,1,2.12.3,4.587,4.587,0,0,0,.8.13,9.863,9.863,0,0,1,.411,2.79c-.087.13-.454.195-.562.065a3,3,0,0,0-3.093-2.574A2.42,2.42,0,0,0,11.2,266.2a4.222,4.222,0,0,0,1.947,2.812l1.817,1.146a5.144,5.144,0,0,1,2.855,4.369c0,2.509-1.882,4.218-4.845,4.218" transform="translate(-6.897 -230.471)"/><path class="a" d="M99.774,264.747a9.832,9.832,0,0,1,6.142-1.947,17.563,17.563,0,0,1,4.023.562,1.817,1.817,0,0,0,.649.087c.022.519.13,1.947.324,3.352a.476.476,0,0,1-.606.043c-.346-1.536-1.363-3.331-4.672-3.331s-6.445,2.206-6.445,6.921,3.028,7.419,6.77,7.419a4.828,4.828,0,0,0,4.758-3.266.476.476,0,0,1,.584.087,8.247,8.247,0,0,1-1.1,3.115,4.846,4.846,0,0,0-.8.238,13.413,13.413,0,0,1-3.59.519,9.9,9.9,0,0,1-5.667-1.536,7.725,7.725,0,0,1-.368-12.307" transform="translate(-75.94 -230.314)"/><path class="a" d="M210.247,272.043c-1.1,0-1.146.043-1.146.735v3.2c0,2.4.108,2.7,1.384,2.855l.671.065c.13.087.087.5-.043.562-1.233-.043-2.011-.065-2.9-.065s-1.752.043-2.639.065a.454.454,0,0,1-.043-.562l.389-.065c1.276-.238,1.319-.454,1.319-2.855v-8.2c0-2.4-.151-2.79-1.341-2.877l-.584-.043c-.13-.087-.086-.5.043-.562,1.125.022,1.882.065,2.877.065s1.665-.022,2.639-.065c.13.065.195.476.043.562l-.433.043c-1.319.13-1.363.476-1.363,2.877V270.4c0,.714.043.735,1.146.735h6.51c1.1,0,1.146-.022,1.146-.735v-2.617c0-2.4-.043-2.747-1.384-2.877l-.433-.043c-.151-.087-.087-.5.043-.562,1.038.043,1.817.065,2.768.065s1.665-.022,2.682-.065c.13.065.173.476.043.562l-.476.043c-1.319.13-1.363.476-1.363,2.877v8.2c0,2.4.043,2.682,1.363,2.855l.541.065c.13.087.086.5-.043.562-1.1-.043-1.86-.065-2.747-.065s-1.752.022-2.768.065a.433.433,0,0,1-.043-.562l.433-.065c1.384-.173,1.341-.454,1.384-2.855v-3.223c0-.67-.043-.735-1.146-.735Z" transform="translate(-160.848 -231.49)"/><path class="a" d="M325,270.946a7.874,7.874,0,0,1,8.111-8.046,7.511,7.511,0,0,1,7.916,7.808,7.782,7.782,0,0,1-7.916,7.959c-5.061,0-8.111-3.634-8.111-7.721m13.734.476c0-3.763-1.665-7.808-6.013-7.808-2.379,0-5.45,1.622-5.45,6.6,0,3.374,1.644,7.743,6.121,7.743,2.725,0,5.321-2.055,5.321-6.532" transform="translate(-254.707 -230.392)"/><path class="a" d="M446.149,267.782c0-2.4-.043-2.768-1.471-2.877l-.562-.043c-.13-.087-.087-.5.043-.562l2.963.065,2.812-.065c.13.065.195.476.043.562l-.541.043c-1.341.108-1.384.476-1.384,2.877V275.7c0,1.428.065,2.033.476,2.466s.692.519,2.487.519,2.4-.087,2.768-.3a5.334,5.334,0,0,0,1.514-2.249c.13-.108.562-.022.562.13a23.713,23.713,0,0,1-.952,3.2c-1.168-.043-3.331-.065-5.667-.065h-2.1c-.952,0-1.687.022-2.963.065a.454.454,0,0,1-.043-.584l.67-.065c1.319-.151,1.363-.454,1.363-2.855Z" transform="translate(-347.999 -231.49)"/><path class="a" d="M543.442,273.01c-.151-.5-.26-.562-.93-.562h-3.439c-.562,0-.714.065-.865.541l-.8,2.4a8.675,8.675,0,0,0-.5,1.882c0,.238.108.411.67.454l.757.065a.368.368,0,0,1-.043.584c-.606-.043-1.3-.043-2.379-.065s-1.579.043-2.185.065a.454.454,0,0,1-.043-.584l.757-.065a1.526,1.526,0,0,0,1.363-1.125c.324-.822,1.038-2.531,2.011-5.083l2.314-6.142a3.266,3.266,0,0,0,.389-1.622,2.574,2.574,0,0,0,1.19-.865.324.324,0,0,1,.346.195c.3.995.671,2.055.995,3.05l3.115,9.149c.67,1.947.952,2.293,1.925,2.422l.606.065c.173.108.108.476,0,.584-.93-.043-1.73-.065-2.747-.065s-1.968.043-2.617.065a.389.389,0,0,1-.043-.584l.67-.065c.476-.043.8-.195.8-.411a4.692,4.692,0,0,0-.3-1.211Zm-4.52-2.033c-.173.519-.151.541.476.541h2.79c.67,0,.714-.086.5-.714l-1.211-3.7c-.195-.541-.389-1.168-.519-1.449h-.043a12.682,12.682,0,0,0-.541,1.341Z" transform="translate(-418.191 -230.38)"/><path class="a" d="M644.486,267.8c0-2.163-.065-2.552-.995-2.66l-.735-.086a.389.389,0,0,1,.022-.562c1.276-.108,2.855-.195,5.083-.195a7.942,7.942,0,0,1,3.807.692,3.472,3.472,0,0,1,1.882,3.2A4.226,4.226,0,0,1,650.715,272c-.108.151,0,.368.108.541,1.817,2.941,3.028,4.758,4.585,6.056a2.725,2.725,0,0,0,1.579.649.195.195,0,0,1,.022.324,3.591,3.591,0,0,1-.995.108c-1.925,0-3.093-.562-4.715-2.855-.584-.844-1.536-2.422-2.228-3.439a1.65,1.65,0,0,0-1.622-.735c-.908,0-1.06.022-1.06.5v2.877c0,2.379.043,2.66,1.363,2.855l.476.065a.454.454,0,0,1-.043.584c-1.016-.043-1.8-.065-2.7-.065s-1.774.022-2.855.065a.447.447,0,0,1-.043-.584l.562-.065c1.319-.173,1.363-.454,1.363-2.855Zm1.86,3.266a1.9,1.9,0,0,0,.065.757c.065.087.411.108,1.579.108a3.658,3.658,0,0,0,2.336-.606,3.242,3.242,0,0,0,1.146-2.833,3.48,3.48,0,0,0-3.634-3.5c-1.406,0-1.471.087-1.471.735Z" transform="translate(-503.533 -231.49)"/><path class="a" d="M751.153,278.824a7.011,7.011,0,0,1-3.547-.844c-.433-.26-.562-2.12-.606-3.179.108-.151.454-.216.541-.065.346,1.168,1.276,3.4,3.915,3.4a2.6,2.6,0,0,0,2.855-2.617,3.393,3.393,0,0,0-1.86-3.179l-2.163-1.406a4.861,4.861,0,0,1-2.466-3.915c0-1.86,1.687-3.915,4.65-3.915a7.61,7.61,0,0,1,2.12.3,4.544,4.544,0,0,0,.8.13,10.013,10.013,0,0,1,.411,2.79c-.086.13-.454.195-.562.065a3,3,0,0,0-3.093-2.574c-2.184,0-2.768,1.428-2.768,2.466a4.222,4.222,0,0,0,1.947,2.812l1.817,1.146A5.144,5.144,0,0,1,756,274.606c0,2.509-1.882,4.218-4.845,4.218" transform="translate(-585.435 -230.549)"/><path class="a" d="M839.669,272.043c-1.1,0-1.146.043-1.146.735v3.2c0,2.4.108,2.7,1.384,2.855l.649.065c.13.087.087.5-.043.562-1.233-.043-2.011-.065-2.9-.065s-1.752.043-2.639.065a.454.454,0,0,1-.043-.562l.389-.065c1.276-.238,1.319-.454,1.319-2.855v-8.2c0-2.4-.151-2.79-1.341-2.877l-.584-.043c-.13-.087-.087-.5.043-.562,1.125.022,1.882.065,2.877.065s1.665-.022,2.639-.065c.13.065.195.476.043.562l-.432.043c-1.319.13-1.363.476-1.363,2.877V270.4c0,.714.043.735,1.146.735h6.51c1.1,0,1.146-.022,1.146-.735v-2.617c0-2.4-.043-2.747-1.384-2.877l-.433-.043c-.13-.087-.087-.5.043-.562,1.038.043,1.817.065,2.769.065s1.665-.022,2.682-.065c.13.065.173.476.043.562l-.476.043c-1.319.13-1.363.476-1.363,2.877v8.2c0,2.4.043,2.682,1.363,2.855l.541.065c.13.087.086.5-.043.562-1.1-.043-1.86-.065-2.747-.065s-1.752.022-2.769.065a.455.455,0,0,1-.043-.562l.433-.065c1.384-.173,1.341-.454,1.384-2.855v-3.223c0-.67-.043-.735-1.146-.735Z" transform="translate(-654.118 -231.49)"/><path class="a" d="M957.934,267.825c0-2.422-.043-2.812-1.384-2.92l-.562-.043c-.13-.087-.086-.5.043-.562,1.146.043,1.925.065,2.877.065s1.687-.022,2.833-.065c.13.065.173.476.043.562l-.562.043c-1.341.108-1.384.5-1.384,2.92v8.111c0,2.4.043,2.725,1.384,2.9l.562.065c.13.087.086.5-.043.584-1.146-.043-1.925-.065-2.833-.065s-1.73.022-2.877.065a.454.454,0,0,1-.043-.584l.562-.065c1.341-.173,1.384-.476,1.384-2.9Z" transform="translate(-749.154 -231.49)"/><path class="a" d="M1031.862,275.9c0,2.379.043,2.682,1.514,2.855l.606.065a.454.454,0,0,1-.043.584l-2.963-.065c-.952,0-1.773.022-2.768.065a.432.432,0,0,1-.043-.584l.476-.065c1.319-.195,1.363-.454,1.363-2.855v-8.413c0-1.947-.043-2.336-1.082-2.444l-.822-.087a.368.368,0,0,1,.043-.562,37.242,37.242,0,0,1,4.52-.195,8.268,8.268,0,0,1,4.369.908,4.079,4.079,0,0,1-.454,7.051,7.722,7.722,0,0,1-3.158.67c-.151-.065-.151-.411-.022-.454,2.466-.454,3.352-1.838,3.352-3.828a3.477,3.477,0,0,0-3.677-3.655c-1.211,0-1.233.086-1.233.822Z" transform="translate(-805.65 -231.411)"/><path class="a" d="M24.029,125.149a11.3,11.3,0,0,1-3.547,8.349A11.658,11.658,0,0,1,12,136.979,11.658,11.658,0,0,1,3.547,133.5a11.624,11.624,0,0,1,0-16.719,11.645,11.645,0,0,1,8.478-3.482,11.636,11.636,0,0,1,8.457,3.482,11.348,11.348,0,0,1,3.547,8.37m-3.309,1.1a12.53,12.53,0,0,0-2.7-7.765c-1.968-2.574-4.3-3.872-7.073-3.872a6.839,6.839,0,0,0-5.688,2.9,10.014,10.014,0,0,0-2.011,6.229,12.559,12.559,0,0,0,2.7,7.786c1.968,2.552,4.3,3.85,7.073,3.85a6.867,6.867,0,0,0,5.688-2.9,9.568,9.568,0,0,0,2.011-6.229" transform="translate(0 -113.145)"/><path class="a" d="M204.6,124.239a12.371,12.371,0,0,1-3.417,8.695,11.172,11.172,0,0,1-8.5,3.807c-.714,0-1.709-.043-3.006-.108s-2.509-.108-3.612-.108l-5.364.087v-.584l1.838-.26c.844-.13,1.363-.368,1.536-.714a10.983,10.983,0,0,0,.324-3.136c0-.26.022-1.081.065-2.444q.043-1.536.043-2.552v-4.607c0-1.341-.022-2.747-.043-4.261a12.959,12.959,0,0,0-.3-3.158c-.151-.346-.692-.584-1.557-.714l-1.752-.281v-.584l5.191.087c.93,0,2.12-.065,3.547-.151s2.552-.151,3.266-.151a11.752,11.752,0,0,1,8.305,3.114,10.463,10.463,0,0,1,3.417,7.959m-3.309,1.19a12.373,12.373,0,0,0-2.617-7.916,8.717,8.717,0,0,0-6.986-3.5,17.13,17.13,0,0,0-3.98.584c-.13,2.725-.151,5.277-.13,7.721l.173,9.6c.022,1.882.238,3.006.649,3.309s1.925.476,4.52.476c2.163,0,4.109-1.146,5.861-3.4a10.778,10.778,0,0,0,2.509-6.878" transform="translate(-141.617 -112.992)"/><path class="a" d="M380.556,114.784l-1.579.281c-1.492.26-3.028,1.536-4.607,3.85-.887,1.254-2.076,3.093-3.547,5.515l-.735,1.406a12.71,12.71,0,0,0-.108,2.725v1.73c0,.389.043,1.233.13,2.466a15.819,15.819,0,0,0,.368,3.006,1.985,1.985,0,0,0,1.471.844l1.687.26v.584l-5.191-.087-5.191.087v-.584l1.687-.26c.844-.13,1.341-.389,1.514-.714a10.727,10.727,0,0,0,.324-3.136q.032-.714.065-1.168a11.4,11.4,0,0,0,.065-1.3v-1.73a20.162,20.162,0,0,0-.108-2.682c-1.86-2.963-3.374-5.277-4.5-6.964-1.471-2.163-2.985-3.439-4.564-3.85l-1.038-.281V114.2c1.99.065,3.569.087,4.715.087s3.266-.043,5.688-.087v.584l-1.536.281c-.714.13-1.038.346-1.038.692a11.037,11.037,0,0,0,1.557,3.179c1.038,1.709,2.076,3.309,3.352,5.234,1.3-1.947,2.422-3.7,3.352-5.234a8.578,8.578,0,0,0,1.406-3.028c0-.476-.368-.67-1.06-.822l-1.146-.281v-.584c1.9.065,3.417.087,4.5.087s2.4-.043,4.174-.087Z" transform="translate(-279.551 -113.854)"/><path class="a" d="M545.656,129.578a6.266,6.266,0,0,1-2.357,5.364,7.905,7.905,0,0,1-5.256,1.471,13.933,13.933,0,0,1-6.142-1.471l.649-4.585.649.13q-.034.247-.043.5a3.705,3.705,0,0,0,1.9,3.158,6.359,6.359,0,0,0,3.547,1.081,3.341,3.341,0,0,0,2.877-1.384,4.941,4.941,0,0,0,.865-3.114,6.567,6.567,0,0,0-2.422-4.477l-4.477-3.4Q533,120.884,533,119a5.818,5.818,0,0,1,2.076-4.607,7.3,7.3,0,0,1,5-1.8,12.793,12.793,0,0,1,4.629.973l-1.233,4.477-.541-.173.086-.757a1.911,1.911,0,0,0,.022-.324,2.685,2.685,0,0,0-1.168-2.206,4.261,4.261,0,0,0-2.682-.887c-1.925,0-2.877,1.233-2.877,3.742,0,1.319.822,2.66,2.422,4l4.5,3.482a6.345,6.345,0,0,1,2.422,4.607" transform="translate(-416.858 -112.6)"/><path class="a" d="M690.756,129.578a6.266,6.266,0,0,1-2.357,5.364,7.905,7.905,0,0,1-5.256,1.471A13.933,13.933,0,0,1,677,134.942l.649-4.585.649.13a4.228,4.228,0,0,0-.043.5,3.705,3.705,0,0,0,1.9,3.158,6.359,6.359,0,0,0,3.547,1.081,3.341,3.341,0,0,0,2.877-1.384,4.941,4.941,0,0,0,.865-3.114,6.656,6.656,0,0,0-2.422-4.477l-4.477-3.4q-2.422-1.968-2.444-3.85a5.818,5.818,0,0,1,2.076-4.607,7.3,7.3,0,0,1,5-1.8,12.792,12.792,0,0,1,4.628.973l-1.233,4.477-.541-.173.086-.757a2.1,2.1,0,0,0,.022-.324,2.685,2.685,0,0,0-1.168-2.206,4.24,4.24,0,0,0-2.682-.887c-1.925,0-2.877,1.233-2.877,3.742,0,1.319.822,2.66,2.422,4l4.5,3.482a6.345,6.345,0,0,1,2.422,4.607" transform="translate(-530.575 -112.6)"/><path class="a" d="M826.825,124.839l9.214-.087a11.091,11.091,0,0,0,2.422-.151c.238-.108.433-.389.584-.908l.259-.973h.584c-.043,1.1-.086,2.011-.086,2.7s.043,1.6.086,2.7H839.3l-.259-.973c-.151-.519-.324-.822-.562-.908a10.936,10.936,0,0,0-2.422-.151l-9.257-.173a10.19,10.19,0,0,0,2.985,7.44,9.14,9.14,0,0,0,6.726,2.9,9.453,9.453,0,0,0,4.866-1.211,5.614,5.614,0,0,0,2.79-3.828l.584.043-.649,4.585a18.817,18.817,0,0,1-8.305,1.622,13.278,13.278,0,0,1-8.933-3.266,9.489,9.489,0,0,1-3.569-7.44q0-6.618,3.98-9.971c2.444-2.076,5.861-3.093,10.274-3.093a19.267,19.267,0,0,1,6.813,1.492c-.281.995-.735,2.466-1.276,4.434l-.562-.151.087-.649c.151-1.038-.519-1.99-2.012-2.833a9.279,9.279,0,0,0-4.693-1.211,7.921,7.921,0,0,0-6.51,3.158,11.508,11.508,0,0,0-2.552,6.9" transform="translate(-645.232 -113.462)"/><path class="a" d="M1005.478,114.784l-1.579.281c-1.492.26-3.028,1.536-4.607,3.85-.887,1.254-2.076,3.093-3.547,5.515l-.735,1.406a12.71,12.71,0,0,0-.108,2.725v1.73c0,.389.043,1.233.13,2.466a15.8,15.8,0,0,0,.368,3.006,1.985,1.985,0,0,0,1.471.844l1.687.26v.584l-5.191-.087-5.191.087v-.584l1.687-.26c.843-.13,1.363-.389,1.514-.714a11.618,11.618,0,0,0,.324-3.136q.032-.714.065-1.168a11.017,11.017,0,0,0,.043-1.3v-1.73a20.168,20.168,0,0,0-.108-2.682c-1.86-2.963-3.374-5.277-4.5-6.964-1.492-2.163-2.985-3.439-4.564-3.85l-1.038-.281V114.2c1.99.065,3.569.087,4.715.087s3.266-.043,5.688-.087v.584l-1.536.281c-.692.13-1.038.346-1.038.692a11.036,11.036,0,0,0,1.557,3.179c1.038,1.709,2.076,3.309,3.352,5.234,1.3-1.947,2.422-3.7,3.352-5.234a8.578,8.578,0,0,0,1.406-3.028c0-.476-.368-.67-1.06-.822l-1.146-.281v-.584c1.9.065,3.417.087,4.5.087s2.4-.043,4.174-.087Z" transform="translate(-769.295 -113.854)"/></g></g></g></svg>