<svg xmlns="http://www.w3.org/2000/svg" width="275.299" height="150.307" viewBox="0 0 275.299 150.307"><defs><style>.a{fill:#fff;}</style></defs><g transform="translate(137.65 75.154)"><g transform="translate(-137.65 -75.153)"><path class="a" d="M9.076,101.218c1.3,0,2.214-.586,2.214-1.693h0c0-1.107-.846-1.693-2.214-1.693H7.709v3.451ZM2.5,93.6H9.467c4.1,0,6.9,1.823,6.9,5.535h0c0,3.711-2.865,5.73-7.032,5.73H7.709V109.1H2.5Z" transform="translate(-0.872 -32.657)"/><path class="a" d="M32.4,93.6h5.144v5.47H42.3V93.6h5.209v15.5H42.3v-5.535H37.544V109.1H32.4Z" transform="translate(-11.303 -32.657)"/><path class="a" d="M76.255,101.274h0A3.321,3.321,0,0,0,73,97.758a3.256,3.256,0,0,0-3.191,3.451h0a3.321,3.321,0,0,0,3.256,3.516,3.256,3.256,0,0,0,3.191-3.451m-11.655,0h0A8.206,8.206,0,0,1,73.065,93.2a8.1,8.1,0,0,1,8.4,8.009h0A8.206,8.206,0,0,1,73,109.283a8.1,8.1,0,0,1-8.4-8.009" transform="translate(-22.537 -32.517)"/><path class="a" d="M99.5,93.6h13.218v4.232h-8.139V99.46H112.2v3.711h-7.618v1.693h8.269V109.1H99.5Z" transform="translate(-34.712 -32.657)"/><path class="a" d="M128.9,93.6h4.884l5.47,6.837V93.6H144.4v15.5h-4.623l-5.73-7.162V109.1H128.9Z" transform="translate(-44.969 -32.657)"/><rect class="a" width="5.209" height="15.49" transform="translate(105.679 60.943)"/><path class="a" d="M183.474,101.218,178.4,93.6h5.925l2.214,3.711,2.279-3.711h5.73l-5.014,7.553L194.8,109.1h-5.86l-2.474-4.037L184,109.1h-5.8Z" transform="translate(-62.168 -32.657)"/><g transform="translate(146.505 60.677)"><path class="a" d="M225,106.648l2.735-3.321a8.855,8.855,0,0,0,5.4,1.823c.912,0,1.3-.26,1.3-.651h0c0-.456-.456-.716-2.149-1.042-3.451-.716-6.511-1.693-6.511-4.949h0c0-2.93,2.279-5.209,6.576-5.209a10.488,10.488,0,0,1,6.967,2.149l-2.539,3.516a8.139,8.139,0,0,0-4.623-1.5c-.781,0-1.107.26-1.107.651h0c0,.391.391.716,2.084.977,3.972.716,6.642,1.888,6.642,5.014h0c0,3.256-2.67,5.274-6.837,5.274a12.142,12.142,0,0,1-7.944-2.6" transform="translate(-225 -93.229)"/><path class="a" d="M267.555,101.274h0a3.321,3.321,0,0,0-3.256-3.516,3.256,3.256,0,0,0-3.191,3.451h0a3.321,3.321,0,0,0,3.256,3.516,3.256,3.256,0,0,0,3.191-3.451m-11.655,0h0a8.476,8.476,0,0,1,16.929-.065h0a8.206,8.206,0,0,1-8.465,8.074,8.1,8.1,0,0,1-8.4-8.009" transform="translate(-235.78 -93.194)"/><path class="a" d="M290.2,101.271h0a8.009,8.009,0,0,1,8.2-8.074,7.618,7.618,0,0,1,7.032,4.037l-4.3,2.474a3,3,0,0,0-2.8-1.888c-1.758,0-2.93,1.5-2.93,3.386h0c0,2.019,1.172,3.451,2.93,3.451s2.279-.781,2.93-1.953l4.3,2.409a8.2,8.2,0,0,1-15.367-3.842" transform="translate(-247.746 -93.191)"/></g><rect class="a" width="5.209" height="15.49" transform="translate(209.795 60.943)"/><path class="a" d="M339.8,93.6h13.218v4.232h-8.139V99.46h7.553v3.711h-7.553v1.693h8.2V109.1H339.8Z" transform="translate(-118.545 -32.657)"/><path class="a" d="M372.858,97.963H368.3V93.6h14.26v4.363H378V109.1h-5.144Z" transform="translate(-128.488 -32.657)"/><path class="a" d="M408.034,93.6l-2.67,5.079L402.7,93.6h-5.8l5.86,10.027v5.47h5.209v-5.535l5.8-9.962Z" transform="translate(-138.465 -32.657)"/><path class="a" d="M269.239,144.351a3.972,3.972,0,0,1-3.972-4.167h0a3.943,3.943,0,1,1,7.879.065h0a3.972,3.972,0,0,1-3.907,4.1m0,.586a4.623,4.623,0,0,0,4.623-4.753h0a4.623,4.623,0,0,0-9.246,0h0a4.623,4.623,0,0,0,4.623,4.753m-13.088,0a5.535,5.535,0,0,0,3.646-1.367v-3.581h-3.711v.651h3.06v2.67a4.753,4.753,0,0,1-2.93,1.042,3.847,3.847,0,0,1-3.972-4.167h0a3.91,3.91,0,0,1,3.842-4.1,4.167,4.167,0,0,1,3,1.107l.456-.521a4.818,4.818,0,0,0-3.386-1.237,4.623,4.623,0,0,0-4.558,4.753h0a4.475,4.475,0,0,0,4.623,4.753m-15.562-3.321,2.409-5.339,2.409,5.339Zm-2.149,3.191h.716l1.172-2.6h5.47l1.172,2.6h.651l-4.3-9.311h-.651Zm-7.683.13a4.884,4.884,0,0,0,3.646-1.628l-.456-.456a4.232,4.232,0,0,1-3.191,1.432,3.972,3.972,0,0,1-3.907-4.167h0a3.972,3.972,0,0,1,3.907-4.1,4.232,4.232,0,0,1,3.125,1.367l.456-.521a4.884,4.884,0,0,0-3.581-1.5,4.623,4.623,0,0,0-4.623,4.753h0a4.558,4.558,0,0,0,4.558,4.753m-10.483-.13h.716V135.56h-.716Zm-12.958,0h.716v-4.3h5.925v4.3h.716V135.56h-.716v4.3h-5.925v-4.3h-.716Zm-8.4.13a4.884,4.884,0,0,0,3.646-1.628l-.456-.456a4.232,4.232,0,0,1-3.191,1.433,3.972,3.972,0,0,1-3.907-4.167h0a3.972,3.972,0,0,1,3.907-4.1,4.232,4.232,0,0,1,3.125,1.367l.456-.521a4.884,4.884,0,0,0-3.581-1.5,4.623,4.623,0,0,0-4.623,4.753h0a4.558,4.558,0,0,0,4.558,4.753m-22.334-.13h.716v-4.167h5.209v-.651h-5.209v-3.777h5.8v-.651h-6.511Zm-9.832-.456a3.972,3.972,0,0,1-3.972-4.167h0a3.943,3.943,0,1,1,7.879.065h0a3.972,3.972,0,0,1-3.907,4.1m0,.586a4.623,4.623,0,0,0,4.623-4.753h0a4.623,4.623,0,0,0-9.246,0h0a4.623,4.623,0,0,0,4.623,4.753m-20.12-.13h.716V141.03l3.972-5.535h-.846l-3.451,4.949-3.451-4.949h-.846l3.972,5.6Zm-12.111,0h.651v-8.465H138.3v-.651h-6.967v.651h3.191Zm-8.66,0h.716V135.56h-.716Zm-8.2.13c1.758,0,3.06-1.042,3.06-2.539h0c0-1.367-.912-2.084-3.06-2.539s-2.67-1.042-2.67-2.018h0c0-.977.912-1.758,2.279-1.758a3.972,3.972,0,0,1,2.735,1.042l.456-.521a4.623,4.623,0,0,0-3.191-1.107c-1.693,0-3,1.042-3,2.409h0c0,1.367.912,2.149,3.125,2.6s2.6.977,2.6,1.953h0c0,1.042-.977,1.823-2.344,1.823a4.493,4.493,0,0,1-3.321-1.367l-.456.521a5.274,5.274,0,0,0,3.711,1.5m-14.65-4.558v-4.167H106c1.693,0,2.67.781,2.67,2.019h0c0,1.3-1.172,2.084-2.67,2.084Zm-.716,4.428h.716v-3.711h3l2.93,3.842h.846l-3.06-3.972c1.563-.2,2.67-1.107,2.67-2.6h0a2.409,2.409,0,0,0-.716-1.693,3.646,3.646,0,0,0-2.6-.912h-3.842Zm-11.46,0H97.34v-.651H91.415v-3.711h5.274v-.651H91.415v-3.646h5.86v-.651H90.829Zm-9.376.065h.586l4.037-9.311h-.716l-3.646,8.465L78,135.43H77.22Zm-9.441-.065H72.6V135.56h-.716Zm-13.348,0h.651V136.6l6.511,8.2h.521V135.56h-.651v8.009l-6.381-8.009h-.651Zm-9.311.13c2.214,0,3.777-1.432,3.777-4.037V135.43h-.586v5.535c0,2.214-1.172,3.386-3.06,3.386s-3.125-1.237-3.125-3.451V135.56h-.651v5.4c0,2.6,1.563,3.972,3.777,3.972m-21.943-.13h6.576v-.651H28.059v-3.711h5.274v-.651H28.059v-3.646h5.86V135.5H27.408Zm-12.892,0h.716v-4.3h5.925v4.3h.586V135.56h-.716v4.3h-5.86v-4.3h-.716Zm-8.66,0h.651v-8.595H9.7v-.651H2.6v.651H5.791Z" transform="translate(-0.907 -47.204)"/><path class="a" d="M119.027,10.94s-3.386,2.539-1.823,5.144c3.516,6.056,13.413-1.432,18.753,2.214a5.274,5.274,0,0,0-2.539-2.735c-4.949-2.344-14.455,2.735-14.39-4.688m22.659-3.907c0,.781-1.042,1.888-1.042,1.888l3.646-1.823a21.292,21.292,0,0,0-3.646-1.888,2.67,2.67,0,0,1,.977,1.823m80.545,39.068h-5.73c-4.558-7.944-10.809-17.776-10.613-17.841,2.149-1.758,7.293,10.093,11.786,14.781a18.167,18.167,0,0,0,4.558,3.06m-16.929-7.748a31.775,31.775,0,0,1,4.428,7.748h-1.888c-2.214-5.99-3.907-9.507-2.474-7.748M147.091,6.968c-3.321.651-5.8,4.3-9.637,2.735-.521-.326-1.5-.586-1.367-1.367a7.944,7.944,0,0,0,2.474.781,2.539,2.539,0,0,1-.26-3.777c-2.279,1.432-3.06,1.042-3.06.26s3-2.539,5.8-1.432,3.777,2.344,6.056,2.67Zm-17.06,39.068h-4.623c-1.3-3.451,1.432-6.056.716-8.335-1.237-9.376-9.637-6.576-11.46-15.5-1.3,1.563-3.711,6.967-2.6,8.79s4.1,2.214,4.232,3.711.26,2.409-.2,2.8c-1.563.26-2.67-1.172-4.3-1.823-3.256-1.3-11.069,4.1-11.59-.651-.326-3,1.042-.846.846-3.581s-1.563-.846-1.563-4.493c0-2.67,3.256-3.581,3.451-4.623.586-2.67,5.4,3.907,8.269-3.06-1.628.26-5.014-.912-4.688-2.539.846-4.363.912-14.976-8.986-12.7-3.581.846-13.478,6.056-14.846.391-3.581,6.316,3.516,5.209,5.665,5.079a4.772,4.772,0,0,1-4.558.977C78.2,14.2,57.821,27.154,51.9,30.409c7.944,3.711,20.12-3.972,20.25-3.972l.13.13c0,5.73-16.083,13.934-22.985,17.581C59.9,47.795,70,37.962,68.76,40.372c-.521,1.042-2.6,3.191-5.274,5.73H0v.912H274.192v-.977H227.831c-7.1-11.655-20.706-22.073-19.143-23.441,11.59,10.874,15.3,11.395,15.757,10.809L213.962,23.247c-2.93-3.972-6.837-7.032-6.316-6.9,4.688,1.042-2.409-3.907-7.944-5.4-.977-.26-2.539-.326-2.6-.846s1.3-.456,2.409-.846A1.953,1.953,0,0,0,201,7.359a9.7,9.7,0,0,1-6.055-.846C191.238,4.82,184.661,2.8,181.6,3.973c-1.758.716-2.149.586-4.037,2.084-.846-.326-3.191-1.823-6.446,2.149-1.042,1.237-2.279,2.67-2.279,3.711-.13,2.67.065.13.716,2.67.26,1.042-.912,3-5.8,4.623a2.084,2.084,0,0,0-1.432,2.474,4.713,4.713,0,0,1,4.688-.456c4.428,2.084,5.339-1.237,8.074-3.581,0,0-.781,2.93,0,3.125,3.451.716,2.279,3.321,1.888,3.711-4.363,3.907-2.539,5.339-4.1,7.748s-3.711,3.125-7.1,3c-4.623-.13,6.056-7.162-4.167-10.093,1.628,2.67,2.279,4.818-1.3,6.9-2.279,1.3-1.107,8.009-6.9,4.883,0,0-.456,4.949-1.107,5.144a16.8,16.8,0,0,1,3.321,3.777h-2.735a15.952,15.952,0,0,0-2.539-2.865,9.23,9.23,0,0,1-2.474-6.056c1.888,1.693,1.432,3,3.06,3.646.651-1.5.2-6.967-1.693-9.311s-.586-1.563.716-.456.912,1.888,2.344,2.735c3.256-7.618.326-9.116.521-9.7s2.474,3.581,4.428,2.019c-3.191-1.693-3.125-4.232-3.451-7.032s-1.693-3-1.172-3.516c3.191,2.409,4.037-.26,4.167-.781s-3.451.716-3.777-3.711c-.13-1.758-2.8-2.474-2.8-2.474,1.628-.326,6.9-.586,5.665-5.8a4.454,4.454,0,0,1-5.47,2.539,2.409,2.409,0,0,0,1.693-2.8c-5.014,2.8-9.116-2.93-14.39-2.214-1.888.2-4.167,1.3-4.688,3.321S131.92,1.5,129.641,2.8c-.977,1.367,1.563,4.3.977,4.493-2.539.781-2.214-3.777-3.646-3.907s-7.293,5.535-2.149,9.311c-.13-2.539,4.688-5.339,6.316.326,4.884-.391,6.511,2.539,7.1,4.232,7.162,1.3,5.079,5.99,4.883,5.99-.651-1.042-3.777-5.8-8.79-2.474-1.172.781-3.191,1.5-4.167.521a3.2,3.2,0,0,0,3.451,2.67c4.493-1.237,5.6,2.93,2.149,4.1.716,1.172,2.149,1.107,3.451.26a16.986,16.986,0,0,0,2.865-2.93c1.237,5.86-6.186,6.381-8.53,6.772.391,1.237,1.172,1.5,2.67,1.953-7.814.26-9.376,7.814-8.921,12.046m53.458,66.481c-2.93,1.432-7.423,3.907-9.181,4.818-7.618,3.842-12.372-1.107-13.283-1.107s-1.107-1.107,1.237-1.823a20.511,20.511,0,0,0,4.949-1.823Zm-52.546,0h3.321m142.663,0v-.912H0v.912H93.568c4.428,5.209,11.851,9.832,14.781,9.832,4.623,0,10.483-5.99,17.125-5.665,10.679.521,12.176,10.093,11,9.311,0,0-8.4-13.869-19.208.977,5.014-2.279,11.786-1.693,17.711,1.107.781.391-1.432,2.865-3.06,4.688s-5.535,7.814-10.418,1.3c-.716-.977-3.06-7.1-18.3-5.8,5.73,2.6,12.111,9.376,15.237,12.5,7.944,7.879,20.055-9.572,20.511-7.618,0,3.907,2.019,5.86,3.06,7.944,2.67,5.339-3.386,4.428-6.707,3.06,0,0,6.316,9.832,11.59,4.363s-7.618-10.613-3.386-15.432c2.409-2.735,10.874,6.056,14.716,6.056,10.353,1.172,9.832-8.66,15.3-8.4-5.144-5.209-10.613-2.344-11.72-1.042-3.451,4.037-7.423,1.3-10.223-.846-1.5-2.019-4.037-2.279-6.316-1.693-1.042.065,2.149-3.777,6.381-3a37.245,37.245,0,0,0,21.422-2.865c3.451-1.953,5.6-5.144,9.116-8.725Z" transform="translate(0 -0.004)"/></g></g></svg>