<svg xmlns="http://www.w3.org/2000/svg" width="240.514" height="131.315" viewBox="0 0 240.514 131.315"><defs><style>.a{fill:maroon;}</style></defs><g transform="translate(120.257 65.657)"><g transform="translate(-120.257 -65.657)"><path class="a" d="M8.245,100.256c1.138,0,1.934-.512,1.934-1.479h0c0-.967-.74-1.479-1.934-1.479H7.051v3.015ZM2.5,93.6H8.587c3.584,0,6.03,1.593,6.03,4.835h0c0,3.242-2.5,5.006-6.144,5.006H7.051v3.7H2.5Z" transform="translate(-1.078 -40.357)"/><path class="a" d="M32.4,93.6h4.494v4.778h4.153V93.6H45.6v13.539H41.047V102.3H36.894v4.835H32.4Z" transform="translate(-13.969 -40.357)"/><path class="a" d="M74.783,100.254h0a2.9,2.9,0,0,0-2.844-3.072,2.844,2.844,0,0,0-2.787,3.015h0A2.9,2.9,0,0,0,72,103.269a2.844,2.844,0,0,0,2.787-3.015m-10.183,0h0A7.169,7.169,0,0,1,72,93.2a7.073,7.073,0,0,1,7.338,7h0a7.169,7.169,0,0,1-7.4,7.054,7.073,7.073,0,0,1-7.338-7" transform="translate(-27.852 -40.185)"/><path class="a" d="M99.5,93.6h11.548v3.7h-7.111V98.72h6.656v3.243h-6.656v1.479h7.225v3.7H99.5Z" transform="translate(-42.899 -40.357)"/><path class="a" d="M128.9,93.6h4.266l4.778,5.973V93.6h4.494v13.539H138.4l-5.006-6.257v6.257H128.9Z" transform="translate(-55.574 -40.357)"/><rect class="a" width="4.551" height="13.533" transform="translate(92.326 53.243)"/><path class="a" d="M182.808,100.256,178.371,93.6h5.177l1.934,3.243,1.991-3.243h5.006l-4.38,6.6,4.608,6.94h-5.12l-2.162-3.527-2.162,3.527H178.2Z" transform="translate(-76.829 -40.357)"/><g transform="translate(127.993 53.01)"><path class="a" d="M225,104.962l2.389-2.9a7.737,7.737,0,0,0,4.722,1.593c.8,0,1.138-.228,1.138-.569h0c0-.4-.4-.626-1.877-.91-3.015-.626-5.689-1.479-5.689-4.323h0c0-2.56,1.991-4.551,5.745-4.551a9.163,9.163,0,0,1,6.087,1.877L235.3,98.249a7.111,7.111,0,0,0-4.039-1.308c-.683,0-.967.228-.967.569h0c0,.341.341.626,1.82.853,3.47.626,5.8,1.65,5.8,4.38h0c0,2.844-2.332,4.608-5.973,4.608a10.608,10.608,0,0,1-6.94-2.275" transform="translate(-225 -93.238)"/><path class="a" d="M266.083,100.254h0a2.9,2.9,0,0,0-2.844-3.072,2.844,2.844,0,0,0-2.787,3.015h0a2.9,2.9,0,0,0,2.844,3.072,2.844,2.844,0,0,0,2.787-3.015m-10.183,0h0a7.4,7.4,0,0,1,14.79-.057h0a7.169,7.169,0,0,1-7.4,7.054,7.073,7.073,0,0,1-7.338-7" transform="translate(-238.322 -93.195)"/><path class="a" d="M290.2,100.25h0a7,7,0,0,1,7.168-7.054,6.656,6.656,0,0,1,6.144,3.527l-3.754,2.162a2.617,2.617,0,0,0-2.446-1.65,2.693,2.693,0,0,0-2.56,2.958h0c0,1.763,1.024,3.015,2.56,3.015a2.527,2.527,0,0,0,2.56-1.707l3.754,2.1A7.168,7.168,0,0,1,290.2,100.25" transform="translate(-253.11 -93.191)"/></g><rect class="a" width="4.551" height="13.533" transform="translate(183.286 53.243)"/><path class="a" d="M339.8,93.6h11.548v3.7h-7.111V98.72h6.6v3.243h-6.6v1.479H351.4v3.7H339.8Z" transform="translate(-146.502 -40.357)"/><path class="a" d="M372.282,97.411H368.3V93.6h12.458v3.811h-3.982v9.727h-4.494Z" transform="translate(-158.789 -40.357)"/><path class="a" d="M406.627,93.6,404.3,98.037,401.963,93.6H396.9l5.12,8.76v4.778h4.551V102.3l5.063-8.7Z" transform="translate(-171.12 -40.357)"/><path class="a" d="M235.548,143.207a3.47,3.47,0,0,1-3.47-3.641h0a3.445,3.445,0,1,1,6.883.057h0a3.47,3.47,0,0,1-3.413,3.584m0,.512a4.039,4.039,0,0,0,4.039-4.153h0a4.039,4.039,0,0,0-8.078,0h0a4.039,4.039,0,0,0,4.039,4.153m-11.434,0a4.835,4.835,0,0,0,3.186-1.195V139.4h-3.242v.569h2.674V142.3a4.153,4.153,0,0,1-2.56.91,3.361,3.361,0,0,1-3.47-3.641h0a3.416,3.416,0,0,1,3.356-3.584,3.641,3.641,0,0,1,2.617.967l.4-.455a4.21,4.21,0,0,0-2.958-1.081,4.039,4.039,0,0,0-3.982,4.153h0a3.91,3.91,0,0,0,4.039,4.153m-13.6-2.9,2.1-4.665,2.1,4.665Zm-1.877,2.787h.626l1.024-2.275h4.778l1.024,2.275h.569l-3.754-8.135H212.4Zm-6.713.114a4.267,4.267,0,0,0,3.186-1.422l-.4-.4a3.7,3.7,0,0,1-2.787,1.251,3.47,3.47,0,0,1-3.413-3.641h0a3.47,3.47,0,0,1,3.413-3.584,3.7,3.7,0,0,1,2.731,1.195l.4-.455a4.267,4.267,0,0,0-3.129-1.308,4.039,4.039,0,0,0-4.039,4.153h0a3.982,3.982,0,0,0,3.982,4.153m-9.159-.114h.626v-8.021h-.626Zm-11.32,0h.626v-3.754h5.177v3.754h.626v-8.021h-.626v3.754h-5.177v-3.754h-.626Zm-7.338.114a4.266,4.266,0,0,0,3.186-1.422l-.4-.4a3.7,3.7,0,0,1-2.787,1.251,3.47,3.47,0,0,1-3.413-3.641h0a3.47,3.47,0,0,1,3.413-3.584,3.7,3.7,0,0,1,2.731,1.195l.4-.455a4.267,4.267,0,0,0-3.129-1.308,4.039,4.039,0,0,0-4.039,4.153h0a3.982,3.982,0,0,0,3.982,4.153m-19.512-.114h.626v-3.641h4.551v-.569h-4.551v-3.3h5.063v-.569h-5.689Zm-8.59-.4a3.47,3.47,0,0,1-3.47-3.641h0a3.445,3.445,0,1,1,6.883.057h0a3.47,3.47,0,0,1-3.413,3.584m0,.512a4.039,4.039,0,0,0,4.039-4.153h0a4.039,4.039,0,0,0-8.078,0h0a4.039,4.039,0,0,0,4.039,4.153m-17.578-.114H129v-3.186l3.47-4.835h-.74l-3.015,4.323L125.7,135.47h-.74l3.47,4.892Zm-10.581,0h.569v-7.4h2.787v-.569h-6.087v.569h2.787Zm-7.566,0h.626v-7.964h-.626Zm-7.168.114c1.536,0,2.674-.91,2.674-2.219h0c0-1.195-.8-1.82-2.674-2.219s-2.332-.91-2.332-1.763h0c0-.853.8-1.536,1.991-1.536a3.47,3.47,0,0,1,2.389.91l.4-.455a4.039,4.039,0,0,0-2.787-.967,2.36,2.36,0,0,0-2.617,2.1h0c0,1.195.8,1.877,2.731,2.275s2.275.853,2.275,1.707h0c0,.91-.853,1.593-2.048,1.593a3.925,3.925,0,0,1-2.9-1.195l-.4.455A4.608,4.608,0,0,0,103,143.605m-12.8-3.982v-3.641h2.731c1.479,0,2.332.683,2.332,1.763h0c0,1.138-1.024,1.82-2.332,1.82Zm-.626,3.868H90.2v-3.243h2.617l2.56,3.356h.74l-2.674-3.47a2.331,2.331,0,0,0,2.332-2.275h0a2.1,2.1,0,0,0-.626-1.479,3.185,3.185,0,0,0-2.275-.8H89.522Zm-10.012,0h5.8v-.569H80.192V139.68H84.8v-.569H80.192v-3.186h5.12v-.569H79.68Zm-8.192.057h.512l3.527-8.135h-.626l-3.186,7.4-3.129-7.4h-.683Zm-8.248-.057h.626v-7.964h-.626Zm-11.662,0h.569v-7.054l5.689,7.168h.455v-8.078h-.569v7l-5.575-7h-.569Zm-8.135.114c1.934,0,3.3-1.251,3.3-3.527v-4.665h-.512v4.835c0,1.934-1.024,2.958-2.674,2.958s-2.731-1.081-2.731-3.015v-4.665h-.569v4.722a3.126,3.126,0,0,0,3.3,3.47m-19.171-.114h5.745v-.569H24.842v-3.242H29.45v-.569H24.842v-3.186h5.12v-.569H24.274Zm-11.263,0h.626v-3.754h5.177v3.754h.512v-8.078H18.7v3.754h-5.12v-3.754h-.626Zm-7.566,0h.569V136.1H8.8v-.569H2.6v.569H5.387Z" transform="translate(-1.121 -58.335)"/><path class="a" d="M103.987,9.559s-2.958,2.219-1.593,4.494c3.072,5.29,11.719-1.251,16.383,1.934a4.608,4.608,0,0,0-2.219-2.389c-4.323-2.048-12.629,2.389-12.572-4.1m19.8-3.413c0,.683-.91,1.65-.91,1.65l3.186-1.593a18.6,18.6,0,0,0-3.186-1.65,2.332,2.332,0,0,1,.853,1.593M194.095,40.22h-5.006c-3.982-6.94-9.443-15.53-9.272-15.587,1.877-1.536,6.371,8.817,10.3,12.913a15.871,15.871,0,0,0,3.982,2.674M179.3,33.451a27.76,27.76,0,0,1,3.868,6.769h-1.65c-1.934-5.234-3.413-8.305-2.162-6.769M128.505,6.088c-2.9.569-5.063,3.754-8.419,2.389-.455-.284-1.308-.512-1.195-1.195a6.94,6.94,0,0,0,2.162.683,2.219,2.219,0,0,1-.228-3.3c-1.991,1.251-2.674.91-2.674.228s2.617-2.219,5.063-1.251,3.3,2.048,5.29,2.332ZM113.6,40.22h-4.039c-1.138-3.015,1.251-5.29.626-7.281-1.081-8.192-8.419-5.745-10.012-13.539-1.138,1.365-3.242,6.087-2.275,7.68s3.584,1.934,3.7,3.242.228,2.1-.171,2.446c-1.365.228-2.332-1.024-3.754-1.593-2.844-1.138-9.671,3.584-10.126-.569-.284-2.617.91-.74.74-3.129s-1.365-.74-1.365-3.925c0-2.332,2.844-3.129,3.015-4.039.512-2.332,4.722,3.413,7.225-2.674-1.422.228-4.38-.8-4.1-2.219.74-3.811.8-13.084-7.85-11.093-3.129.74-11.775,5.29-12.97.341-3.129,5.518,3.072,4.551,4.949,4.437a4.169,4.169,0,0,1-3.982.853C68.32,12.4,50.515,23.723,45.338,26.567c6.94,3.242,17.578-3.47,17.692-3.47l.114.114c0,5.006-14.051,12.174-20.081,15.359,9.272,3.186,18.09-5.4,17.009-3.3a29.38,29.38,0,0,1-4.608,5.006H0v.8H239.547V40.22h-40.5c-6.2-10.183-18.09-19.284-16.724-20.479,10.126,9.5,13.368,9.955,13.766,9.443l-9.159-8.874c-2.56-3.47-5.973-6.144-5.518-6.03,4.1.91-2.1-3.413-6.94-4.722-.853-.228-2.219-.284-2.275-.74s1.138-.4,2.1-.74a1.707,1.707,0,0,0,1.308-1.65,8.476,8.476,0,0,1-5.29-.74c-3.243-1.479-8.988-3.242-11.662-2.219a9.518,9.518,0,0,0-3.527,1.82c-.74-.284-2.787-1.593-5.632,1.877-.91,1.081-1.991,2.332-1.991,3.242-.114,2.332.057.114.626,2.332.228.91-.8,2.617-5.063,4.039a1.82,1.82,0,0,0-1.251,2.162,4.117,4.117,0,0,1,4.1-.4c3.868,1.82,4.665-1.081,7.054-3.129,0,0-.683,2.56,0,2.731,3.015.626,1.991,2.9,1.65,3.242-3.811,3.413-2.219,4.665-3.584,6.769s-3.243,2.731-6.2,2.617c-4.039-.114,5.29-6.257-3.641-8.817,1.422,2.332,1.991,4.21-1.138,6.03-1.991,1.138-.967,7-6.03,4.266,0,0-.4,4.323-.967,4.494a14.676,14.676,0,0,1,2.9,3.3h-2.389a13.936,13.936,0,0,0-2.219-2.5,8.064,8.064,0,0,1-2.162-5.29c1.65,1.479,1.251,2.617,2.674,3.186.569-1.308.171-6.087-1.479-8.135s-.512-1.365.626-.4.8,1.65,2.048,2.389c2.844-6.656.284-7.964.455-8.476s2.162,3.129,3.868,1.763c-2.787-1.479-2.731-3.7-3.015-6.144s-1.479-2.617-1.024-3.072c2.787,2.1,3.527-.228,3.641-.683s-3.015.626-3.3-3.242c-.114-1.536-2.446-2.162-2.446-2.162,1.422-.284,6.03-.512,4.949-5.063a3.891,3.891,0,0,1-4.778,2.219,2.1,2.1,0,0,0,1.479-2.446c-4.38,2.446-7.964-2.56-12.572-1.934-1.65.171-3.641,1.138-4.1,2.9s-.967-1.65-2.958-.512c-.853,1.195,1.365,3.754.853,3.925-2.219.683-1.934-3.3-3.186-3.413s-6.371,4.835-1.877,8.135c-.114-2.219,4.1-4.665,5.518.284,4.266-.341,5.689,2.219,6.2,3.7,6.257,1.138,4.437,5.234,4.266,5.234-.569-.91-3.3-5.063-7.68-2.162-1.024.683-2.787,1.308-3.641.455a2.8,2.8,0,0,0,3.015,2.332c3.925-1.081,4.892,2.56,1.877,3.584.626,1.024,1.877.967,3.015.228a14.84,14.84,0,0,0,2.5-2.56c1.081,5.12-5.4,5.575-7.452,5.916.341,1.081,1.024,1.308,2.332,1.707-6.826.228-8.192,6.826-7.793,10.524m46.7,58.081c-2.56,1.251-6.485,3.413-8.021,4.21-6.656,3.356-10.808-.967-11.6-.967s-.967-.967,1.081-1.593a17.919,17.919,0,0,0,4.323-1.593Zm-45.907,0h2.9m124.637,0v-.8H0v.8H81.745C85.613,102.965,92.1,107,94.658,107c4.039,0,9.159-5.234,14.961-4.949,9.329.455,10.638,8.817,9.614,8.135,0,0-7.338-12.117-16.781.853,4.38-1.991,10.3-1.479,15.473.967.683.341-1.251,2.5-2.674,4.1s-4.835,6.826-9.1,1.138c-.626-.853-2.674-6.2-15.985-5.063,5.006,2.275,10.581,8.192,13.311,10.922,6.94,6.883,17.521-8.362,17.919-6.656,0,3.413,1.763,5.12,2.674,6.94,2.332,4.665-2.958,3.868-5.859,2.674,0,0,5.518,8.59,10.126,3.811s-6.656-9.272-2.958-13.482c2.1-2.389,9.5,5.29,12.856,5.29,9.045,1.024,8.59-7.566,13.368-7.338-4.494-4.551-9.272-2.048-10.239-.91-3.015,3.527-6.485,1.138-8.931-.74-1.308-1.763-3.527-1.991-5.518-1.479-.91.057,1.877-3.3,5.575-2.617a32.539,32.539,0,0,0,18.715-2.5c3.015-1.707,4.892-4.494,7.964-7.623Z" transform="translate(0 -0.004)"/></g></g></svg>