<svg xmlns="http://www.w3.org/2000/svg" width="73.224" height="48.816" viewBox="0 0 73.224 48.816"><defs><style>.a{fill:#fbf6f6;}</style></defs><path class="a" d="M53.9,76.2H19.323a3.051,3.051,0,0,0-3.051,3.051V97.561a3.051,3.051,0,0,0,3.051,3.051H53.9a3.051,3.051,0,0,0,3.051-3.051V79.255A3.051,3.051,0,0,0,53.9,76.2Zm-1.017,20.34H20.34V80.272H52.884Zm16.272-12.2h4.068V70.1a6.1,6.1,0,0,0-6.1-6.1H6.1A6.1,6.1,0,0,0,0,70.1V84.34H4.068a4.068,4.068,0,1,1,0,8.136H0v14.238a6.1,6.1,0,0,0,6.1,6.1h61.02a6.1,6.1,0,0,0,6.1-6.1V92.476H69.156a4.068,4.068,0,1,1,0-8.136Zm0,12.2v10.17a2.036,2.036,0,0,1-2.034,2.034H6.1a2.036,2.036,0,0,1-2.034-2.034V96.544a8.136,8.136,0,1,0,0-16.272V70.1A2.036,2.036,0,0,1,6.1,68.068h61.02A2.036,2.036,0,0,1,69.156,70.1v10.17a8.136,8.136,0,1,0,0,16.272Z" transform="translate(0 -64)"/></svg>