<svg xmlns="http://www.w3.org/2000/svg" width="18.206" height="14.16" viewBox="0 0 18.206 14.16"><defs><style>.a{fill:#fff;}</style></defs><path class="a" d="M16.689,32H1.517A1.518,1.518,0,0,0,0,33.517V44.643A1.518,1.518,0,0,0,1.517,46.16H16.689a1.518,1.518,0,0,0,1.517-1.517V33.517A1.518,1.518,0,0,0,16.689,32ZM5.563,35.034A2.023,2.023,0,1,1,3.54,37.057,2.025,2.025,0,0,1,5.563,35.034ZM9.1,42.519a.663.663,0,0,1-.708.607H2.731a.663.663,0,0,1-.708-.607v-.607a1.99,1.99,0,0,1,2.124-1.821H4.3a3.256,3.256,0,0,0,2.516,0h.158A1.99,1.99,0,0,1,9.1,41.912Zm7.08-1.669a.254.254,0,0,1-.253.253H11.379a.254.254,0,0,1-.253-.253v-.506a.254.254,0,0,1,.253-.253H15.93a.254.254,0,0,1,.253.253Zm0-2.023a.254.254,0,0,1-.253.253H11.379a.254.254,0,0,1-.253-.253v-.506a.254.254,0,0,1,.253-.253H15.93a.254.254,0,0,1,.253.253Zm0-2.023a.254.254,0,0,1-.253.253H11.379a.254.254,0,0,1-.253-.253V36.3a.254.254,0,0,1,.253-.253H15.93a.254.254,0,0,1,.253.253Z" transform="translate(0 -32)"/></svg>