<svg xmlns="http://www.w3.org/2000/svg" width="74.667" height="58.074" viewBox="0 0 74.667 58.074"><defs><style>.a{fill:#9b9b9b;}</style></defs><path class="a" d="M68.444,32H6.222A6.224,6.224,0,0,0,0,38.222v45.63a6.224,6.224,0,0,0,6.222,6.222H68.444a6.224,6.224,0,0,0,6.222-6.222V38.222A6.224,6.224,0,0,0,68.444,32ZM22.815,44.444a8.3,8.3,0,1,1-8.3,8.3A8.3,8.3,0,0,1,22.815,44.444Zm14.518,30.7a2.718,2.718,0,0,1-2.9,2.489H11.2a2.718,2.718,0,0,1-2.9-2.489V72.652c0-4.122,3.9-7.467,8.711-7.467h.648a13.352,13.352,0,0,0,10.319,0h.648c4.809,0,8.711,3.344,8.711,7.467ZM66.37,68.3a1.04,1.04,0,0,1-1.037,1.037H46.667A1.04,1.04,0,0,1,45.63,68.3V66.222a1.04,1.04,0,0,1,1.037-1.037H65.333a1.04,1.04,0,0,1,1.037,1.037Zm0-8.3a1.04,1.04,0,0,1-1.037,1.037H46.667A1.04,1.04,0,0,1,45.63,60V57.926a1.04,1.04,0,0,1,1.037-1.037H65.333a1.04,1.04,0,0,1,1.037,1.037Zm0-8.3a1.04,1.04,0,0,1-1.037,1.037H46.667A1.04,1.04,0,0,1,45.63,51.7V49.63a1.04,1.04,0,0,1,1.037-1.037H65.333A1.04,1.04,0,0,1,66.37,49.63Z" transform="translate(0 -32)"/></svg>