<?xml version="1.0" encoding="utf-8"?>
<!-- Generator: Adobe Illustrator 24.1.2, SVG Export Plug-In . SVG Version: 6.00 Build 0)  -->
<svg version="1.1" id="Layer_1" xmlns="http://www.w3.org/2000/svg" xmlns:xlink="http://www.w3.org/1999/xlink" x="0px" y="0px"
	 viewBox="0 0 25 25" style="enable-background:new 0 0 25 25;" xml:space="preserve">
<style type="text/css">
	.st0{fill:#FFFFFF;}
</style>
<g id="XMLID_1_">
	<g>
		<path class="st0" d="M13.7,10.8v1.5c0,2.9-3.1,2.5-3.1,0.6C10.7,11.2,12.5,10.8,13.7,10.8z"/>
		<path class="st0" d="M17.8,17.2c0.4,0,1.5-0.2,1.7,0.1c0.2,0.3-0.4,1.8-0.5,2c-0.1,0.2,0,0.3,0.2,0.1c0.3-0.3,0.6-0.7,0.8-1.1
			c0.2-0.5,0.3-1,0.2-1.6c-0.2-0.2-1.1-0.3-1.7-0.2c-0.6,0.1-1.5,0.4-1.4,0.6C17.4,17.2,17.4,17.2,17.8,17.2z M13.7,9.1
			c-1.8,0.1-6.2,0.6-6.2,4.3c0,4,5,4.2,6.7,1.6c0.5,0.6,1.1,1.2,1.7,1.7l2.1-2c0,0-1.2-0.9-1.2-1.9V7.3c0-0.9-0.9-3-4.1-3
			c-3.2,0-4.9,2-4.9,3.8l2.7,0.2c0.2-1,1-1.7,2-1.8C13.9,6.6,13.7,7.7,13.7,9.1z M18.5,17.8C11.8,21,7.6,18.3,4.9,16.7
			c-0.2-0.1-0.4,0-0.2,0.3c1.9,2.2,4.7,3.5,7.6,3.7c2.4,0.1,4.6-0.8,6.4-2.4C19,17.9,18.7,17.6,18.5,17.8z M25,12.5
			C25,19.4,19.4,25,12.5,25S0,19.4,0,12.5S5.6,0,12.5,0S25,5.6,25,12.5z"/>
	</g>
	<g>
	</g>
</g>
</svg>
