<?xml version="1.0" encoding="utf-8"?>
<!-- Generator: Adobe Illustrator 24.1.2, SVG Export Plug-In . SVG Version: 6.00 Build 0)  -->
<svg version="1.1" id="Layer_1" xmlns="http://www.w3.org/2000/svg" xmlns:xlink="http://www.w3.org/1999/xlink" x="0px" y="0px"
	 viewBox="0 0 448 512" style="enable-background:new 0 0 448 512;" xml:space="preserve">
<style type="text/css">
	.st0{fill:#0070E0;}
</style>
<path class="st0" d="M212.9,38.1L3.5,247.5c-4.7,4.7-4.7,12.3,0,17l209.4,209.4c4.7,4.7,12.3,4.7,17,0l19.8-19.8
	c4.7-4.7,4.7-12.3,0-17L94.6,282H436c6.6,0,12-5.4,12-12v-28c0-6.6-5.4-12-12-12H94.6L249.7,74.9c4.7-4.7,4.7-12.3,0-17l-19.8-19.8
	C225.2,33.4,217.6,33.4,212.9,38.1z"/>
</svg>
