<svg xmlns="http://www.w3.org/2000/svg" width="58.141" height="77.521" viewBox="0 0 58.141 77.521"><defs><style>.a{fill:#0070e0;}</style></defs><path class="a" d="M54.507,0H3.634A3.625,3.625,0,0,0,0,3.634V73.887a3.625,3.625,0,0,0,3.634,3.634H54.507a3.625,3.625,0,0,0,3.634-3.634V3.634A3.625,3.625,0,0,0,54.507,0ZM9.69,16.958a2.43,2.43,0,0,1,2.423-2.423h4.845a2.43,2.43,0,0,1,2.423,2.423V21.8a2.43,2.43,0,0,1-2.423,2.423H12.113A2.43,2.43,0,0,1,9.69,21.8ZM9.932,36.55l1.923-1.908a.813.813,0,0,1,1.151,0l3.119,3.149,7.207-7.146a.813.813,0,0,1,1.151,0l1.908,1.923a.813.813,0,0,1,0,1.151l-9.72,9.63a.813.813,0,0,1-1.151,0L9.932,37.7A.813.813,0,0,1,9.932,36.55ZM19.38,60.563a2.43,2.43,0,0,1-2.423,2.423H12.113A2.43,2.43,0,0,1,9.69,60.563V55.718A2.43,2.43,0,0,1,12.113,53.3h4.845a2.43,2.43,0,0,1,2.423,2.423Zm29.07-1.211a1.215,1.215,0,0,1-1.211,1.211h-21.8a1.215,1.215,0,0,1-1.211-1.211V56.929a1.215,1.215,0,0,1,1.211-1.211h21.8a1.215,1.215,0,0,1,1.211,1.211Zm0-19.38A1.351,1.351,0,0,1,47,41.183H25.77s4.421-4.573,4.6-4.845H46.982a1.351,1.351,0,0,1,1.454,1.211v2.423Zm0-19.38A1.215,1.215,0,0,1,47.239,21.8h-21.8a1.215,1.215,0,0,1-1.211-1.211V18.169a1.215,1.215,0,0,1,1.211-1.211h21.8a1.215,1.215,0,0,1,1.211,1.211Z"/></svg>