<svg xmlns="http://www.w3.org/2000/svg" width="18.162" height="15.892" viewBox="0 0 18.162 15.892"><defs><style>.a{fill:#800000;}</style></defs><path class="a" d="M11.351,42.783a.567.567,0,0,1-.568.568H7.378a.567.567,0,0,1-.568-.568v-1.7H0v5.108a1.746,1.746,0,0,0,1.7,1.7H16.459a1.746,1.746,0,0,0,1.7-1.7V41.081H11.351Zm5.108-7.378H13.621V33.7a1.746,1.746,0,0,0-1.7-1.7H6.243a1.746,1.746,0,0,0-1.7,1.7v1.7H1.7a1.746,1.746,0,0,0-1.7,1.7v2.838H18.161V37.108A1.746,1.746,0,0,0,16.459,35.405Zm-5.108,0H6.811V34.27h4.54Z" transform="translate(0 -32)"/></svg>