<svg xmlns="http://www.w3.org/2000/svg" width="74.484" height="65.174" viewBox="0 0 74.484 65.174"><defs><style>.a{fill:#0070E0;}</style></defs><path class="a" d="M46.553,76.225a2.327,2.327,0,0,1-2.328,2.328H30.259a2.327,2.327,0,0,1-2.328-2.328V69.242H0V90.191a7.16,7.16,0,0,0,6.983,6.983H67.5a7.16,7.16,0,0,0,6.983-6.983V69.242H46.553ZM67.5,45.966H55.863V38.983A7.16,7.16,0,0,0,48.88,32H25.6a7.16,7.16,0,0,0-6.983,6.983v6.983H6.983A7.16,7.16,0,0,0,0,52.949V64.587H74.484V52.949A7.16,7.16,0,0,0,67.5,45.966Zm-20.949,0H27.932V41.311H46.553Z" transform="translate(0 -32)"/></svg>
