<svg xmlns="http://www.w3.org/2000/svg" width="88.002" height="78.224" viewBox="0 0 88.002 78.224"><defs><style>.a{fill:maroon;}</style></defs><path class="a" d="M88,36.668a9.734,9.734,0,0,0-4.889-8.421V4.891A4.938,4.938,0,0,0,78.224,0a4.878,4.878,0,0,0-3.053,1.073L62.181,11.466a37.082,37.082,0,0,1-23.069,8.09H9.778A9.777,9.777,0,0,0,0,29.334V44a9.777,9.777,0,0,0,9.778,9.778h5.149a37.127,37.127,0,0,0-.333,4.889A38.7,38.7,0,0,0,18.5,75.618a4.794,4.794,0,0,0,4.339,2.606H34.187A4.858,4.858,0,0,0,38.144,70.5a19.456,19.456,0,0,1-4-11.831,18.488,18.488,0,0,1,.674-4.889h4.29a37.075,37.075,0,0,1,23.067,8.09L75.17,72.263a4.887,4.887,0,0,0,7.942-3.816V45.091A9.736,9.736,0,0,0,88,36.668ZM73.335,58.274l-5.049-4.04A46.874,46.874,0,0,0,39.112,44V29.334A46.874,46.874,0,0,0,68.286,19.1l5.049-4.04Z"/></svg>