<?xml version="1.0" encoding="utf-8"?>
<!-- Generator: Adobe Illustrator 24.1.2, SVG Export Plug-In . SVG Version: 6.00 Build 0)  -->
<svg version="1.1" id="Layer_1" xmlns="http://www.w3.org/2000/svg" xmlns:xlink="http://www.w3.org/1999/xlink" x="0px" y="0px"
	 viewBox="0 0 88 78.2" style="enable-background:new 0 0 88 78.2;" xml:space="preserve">
<style type="text/css">
	.st0{fill:#FFFFFF;}
</style>
<path class="st0" d="M4.9,45.1v23.4c0,1.1,0.4,2.2,1.1,3.1c1.7,2.1,4.8,2.4,6.9,0.8l13-10.4c6.6-5.2,14.7-8.1,23.1-8.1h4.3
	c0.4,1.6,0.7,3.2,0.7,4.9c0,4.3-1.4,8.4-4,11.8c-0.6,0.8-0.9,1.9-0.9,2.9c0,2.7,2.2,4.8,4.9,4.8h11.3c1.8,0,3.5-1,4.3-2.6
	c2.6-5.3,3.9-11.1,3.9-17c0-1.6-0.1-3.3-0.3-4.9h5.1c0,0,0,0,0,0c5.4,0,9.8-4.4,9.8-9.8V29.3c0,0,0,0,0,0c0-5.4-4.4-9.8-9.8-9.8
	H48.9c-8.4,0-16.5-2.9-23.1-8.1l-13-10.4C12,0.4,10.9,0,9.8,0C7.1,0,4.9,2.2,4.9,4.9v23.4C1.9,30,0,33.2,0,36.7
	C0,40.1,1.9,43.4,4.9,45.1z M14.7,15.1l5,4c8.3,6.6,18.6,10.2,29.2,10.2V44C38.3,44,28,47.6,19.7,54.2l-5,4L14.7,15.1z"/>
</svg>
