<?xml version="1.0" encoding="utf-8"?>
<!-- Generator: Adobe Illustrator 24.1.2, SVG Export Plug-In . SVG Version: 6.00 Build 0)  -->
<svg version="1.1" id="Layer_1" xmlns="http://www.w3.org/2000/svg" xmlns:xlink="http://www.w3.org/1999/xlink" x="0px" y="0px"
	 viewBox="0 0 88 78.2" style="enable-background:new 0 0 88 78.2;" xml:space="preserve">
<style type="text/css">
	.st0{fill:#FFFFFF;}
</style>
<path class="st0" d="M88,36.7c0-3.5-1.9-6.7-4.9-8.4V4.9c0-2.7-2.2-4.9-4.9-4.9c-1.1,0-2.2,0.4-3.1,1.1l-13,10.4
	c-6.6,5.2-14.7,8.1-23.1,8.1H9.8c-5.4,0-9.8,4.4-9.8,9.8c0,0,0,0,0,0V44c0,5.4,4.4,9.8,9.8,9.8c0,0,0,0,0,0h5.1
	c-0.2,1.6-0.3,3.3-0.3,4.9c0,5.9,1.3,11.7,3.9,17c0.8,1.6,2.5,2.6,4.3,2.6h11.3c2.7,0,4.9-2.1,4.9-4.8c0-1-0.3-2.1-0.9-2.9
	c-2.6-3.4-4-7.6-4-11.8c0-1.7,0.2-3.3,0.7-4.9h4.3c8.4,0,16.5,2.9,23.1,8.1l13,10.4c2.1,1.7,5.2,1.3,6.9-0.8
	c0.7-0.9,1.1-1.9,1.1-3.1V45.1C86.1,43.4,88,40.1,88,36.7z M73.3,58.3l-5-4C60,47.6,49.7,44,39.1,44V29.3c10.6,0,20.9-3.6,29.2-10.2
	l5-4L73.3,58.3z"/>
</svg>
