<svg xmlns="http://www.w3.org/2000/svg" width="21.875" height="25" viewBox="0 0 21.875 25"><defs><style>.a{fill:#0070e0;}</style></defs><path class="a" d="M19.531,3.125H17.187V.586A.588.588,0,0,0,16.6,0h-.391a.588.588,0,0,0-.586.586V3.125H6.25V.586A.588.588,0,0,0,5.664,0H5.273a.588.588,0,0,0-.586.586V3.125H2.344A2.344,2.344,0,0,0,0,5.469V22.656A2.344,2.344,0,0,0,2.344,25H19.531a2.344,2.344,0,0,0,2.344-2.344V5.469A2.344,2.344,0,0,0,19.531,3.125ZM2.344,4.687H19.531a.784.784,0,0,1,.781.781V7.812H1.562V5.469A.784.784,0,0,1,2.344,4.687Zm17.187,18.75H2.344a.784.784,0,0,1-.781-.781V9.375h18.75V22.656A.784.784,0,0,1,19.531,23.437Zm-12.3-7.812H5.273a.588.588,0,0,1-.586-.586V13.086a.588.588,0,0,1,.586-.586H7.226a.588.588,0,0,1,.586.586v1.953A.588.588,0,0,1,7.226,15.625Zm4.687,0H9.961a.588.588,0,0,1-.586-.586V13.086a.588.588,0,0,1,.586-.586h1.953a.588.588,0,0,1,.586.586v1.953A.588.588,0,0,1,11.914,15.625Zm4.687,0H14.648a.588.588,0,0,1-.586-.586V13.086a.588.588,0,0,1,.586-.586H16.6a.588.588,0,0,1,.586.586v1.953A.588.588,0,0,1,16.6,15.625Zm-4.687,4.687H9.961a.588.588,0,0,1-.586-.586V17.773a.588.588,0,0,1,.586-.586h1.953a.588.588,0,0,1,.586.586v1.953A.588.588,0,0,1,11.914,20.312Zm-4.687,0H5.273a.588.588,0,0,1-.586-.586V17.773a.588.588,0,0,1,.586-.586H7.226a.588.588,0,0,1,.586.586v1.953A.588.588,0,0,1,7.226,20.312Zm9.375,0H14.648a.588.588,0,0,1-.586-.586V17.773a.588.588,0,0,1,.586-.586H16.6a.588.588,0,0,1,.586.586v1.953A.588.588,0,0,1,16.6,20.312Z"/></svg>