<svg xmlns="http://www.w3.org/2000/svg" width="71" height="81.143" viewBox="0 0 71 81.143"><defs><style>.a{fill:maroon;}</style></defs><path class="a" d="M0,73.536a7.609,7.609,0,0,0,7.607,7.607H63.393A7.609,7.609,0,0,0,71,73.536V30.429H0ZM50.714,42.473a1.907,1.907,0,0,1,1.9-1.9h6.339a1.907,1.907,0,0,1,1.9,1.9v6.339a1.907,1.907,0,0,1-1.9,1.9H52.616a1.907,1.907,0,0,1-1.9-1.9Zm0,20.286a1.907,1.907,0,0,1,1.9-1.9h6.339a1.907,1.907,0,0,1,1.9,1.9V69.1a1.907,1.907,0,0,1-1.9,1.9H52.616a1.907,1.907,0,0,1-1.9-1.9ZM30.429,42.473a1.907,1.907,0,0,1,1.9-1.9H38.67a1.907,1.907,0,0,1,1.9,1.9v6.339a1.907,1.907,0,0,1-1.9,1.9H32.33a1.907,1.907,0,0,1-1.9-1.9Zm0,20.286a1.907,1.907,0,0,1,1.9-1.9H38.67a1.907,1.907,0,0,1,1.9,1.9V69.1a1.907,1.907,0,0,1-1.9,1.9H32.33a1.907,1.907,0,0,1-1.9-1.9ZM10.143,42.473a1.907,1.907,0,0,1,1.9-1.9h6.339a1.907,1.907,0,0,1,1.9,1.9v6.339a1.907,1.907,0,0,1-1.9,1.9H12.045a1.907,1.907,0,0,1-1.9-1.9Zm0,20.286a1.907,1.907,0,0,1,1.9-1.9h6.339a1.907,1.907,0,0,1,1.9,1.9V69.1a1.907,1.907,0,0,1-1.9,1.9H12.045a1.907,1.907,0,0,1-1.9-1.9Zm53.25-52.616H55.786V2.536A2.543,2.543,0,0,0,53.25,0H48.179a2.543,2.543,0,0,0-2.536,2.536v7.607H25.357V2.536A2.543,2.543,0,0,0,22.821,0H17.75a2.543,2.543,0,0,0-2.536,2.536v7.607H7.607A7.609,7.609,0,0,0,0,17.75v7.607H71V17.75A7.609,7.609,0,0,0,63.393,10.143Z"/></svg>