<svg xmlns="http://www.w3.org/2000/svg" width="74.484" height="55.863" viewBox="0 0 74.484 55.863"><defs><style>.a{fill:#0070E0;}</style></defs><path class="a" d="M73.073,82.447a.876.876,0,0,1,1.411.684v29.75a6.985,6.985,0,0,1-6.983,6.983H6.983A6.985,6.985,0,0,1,0,112.88V83.145a.87.87,0,0,1,1.411-.684C4.67,84.992,8.99,88.207,23.829,98.987c3.07,2.24,8.249,6.954,13.413,6.925,5.194.044,10.474-4.772,13.428-6.925C65.508,88.207,69.815,84.978,73.073,82.447Zm-35.831,18.8c3.375.058,8.234-4.248,10.678-6.023C67.225,81.21,68.694,79.988,73.146,76.5a3.481,3.481,0,0,0,1.338-2.75V70.983A6.985,6.985,0,0,0,67.5,64H6.983A6.985,6.985,0,0,0,0,70.983v2.764A3.5,3.5,0,0,0,1.338,76.5C5.79,79.973,7.259,81.21,26.564,95.219,29.008,96.994,33.867,101.3,37.242,101.242Z" transform="translate(0 -64)"/></svg>
