<?xml version="1.0" encoding="utf-8"?>
<!-- Generator: Adobe Illustrator 24.1.2, SVG Export Plug-In . SVG Version: 6.00 Build 0)  -->
<svg version="1.1" id="Layer_1" xmlns="http://www.w3.org/2000/svg" xmlns:xlink="http://www.w3.org/1999/xlink" x="0px" y="0px"
	 viewBox="0 0 25 25" style="enable-background:new 0 0 25 25;" xml:space="preserve">
<style type="text/css">
	.st0{fill:#FFFFFF;}
	.st1{fill:#386EB5;}
</style>
<g id="XMLID_1_">
	<g>
		<path class="st0" d="M12.5,0C19.4,0,25,5.6,25,12.5c0,6.4-4.7,11.6-10.9,12.4v-8.1h2.7l0.5-3.4h-3.3v-2.2c0-0.9,0.5-1.8,1.9-1.8
			h1.5V6.5c0,0-1.3-0.2-2.6-0.2c-2.7,0-4.4,1.6-4.4,4.5v2.6h-3v3.4h3v8C4.5,23.9,0,18.7,0,12.5C0,5.6,5.6,0,12.5,0z"/>
		<path class="st1" d="M14.1,24.9V25h-1.6C13.1,25,13.6,25,14.1,24.9z"/>
		<path class="st1" d="M12.5,25h-2v-0.2C11.1,24.9,11.8,25,12.5,25z"/>
	</g>
	<g>
	</g>
</g>
</svg>
