<svg xmlns="http://www.w3.org/2000/svg" width="25" height="25" viewBox="0 0 25 25"><defs><style>.a{fill:#fff;}</style></defs><path class="a" d="M12.5,8A12.5,12.5,0,1,0,25,20.5,12.5,12.5,0,0,0,12.5,8ZM8.936,26.75a6.25,6.25,0,0,1,0-12.5,6.037,6.037,0,0,1,4.183,1.628l-1.694,1.643a3.546,3.546,0,0,0-2.49-.963,3.937,3.937,0,0,0,0,7.873,3.388,3.388,0,0,0,3.533-2.686H8.936V19.6h5.892a5.5,5.5,0,0,1,.1,1.043A5.766,5.766,0,0,1,8.936,26.75Zm11.6-5.353v1.789H18.75V21.4H16.961V19.608H18.75V17.819h1.789v1.789h1.774V21.4Z" transform="translate(0 -8)"/></svg>