<svg xmlns="http://www.w3.org/2000/svg" width="32.521" height="19.513" viewBox="0 0 32.521 19.513"><defs><style>.a{fill:#800000;}</style></defs><path class="a" d="M31.629,68.53,17.455,64.175a4.059,4.059,0,0,0-2.378,0L.9,68.53a1.2,1.2,0,0,0,0,2.317l2.471.759a4,4,0,0,0-.909,2.383,1.568,1.568,0,0,0-.13,2.694l-1.3,5.838a.813.813,0,0,0,.793.989H4.682a.813.813,0,0,0,.794-.989l-1.3-5.838a1.564,1.564,0,0,0-.091-2.669,2.4,2.4,0,0,1,1.051-1.866L15.076,75.2a4.064,4.064,0,0,0,2.378,0l14.175-4.355A1.2,1.2,0,0,0,31.629,68.53Zm-13.7,8.226a5.689,5.689,0,0,1-3.333,0L7.23,74.493l-.721,5.765c0,1.8,4.368,3.252,9.756,3.252s9.756-1.456,9.756-3.252L25.3,74.492Z" transform="translate(-0.005 -63.997)"/></svg>