<svg xmlns="http://www.w3.org/2000/svg" width="25.668" height="22.814" viewBox="0 0 25.668 22.814"><defs><style>.a{fill:#800000;}</style></defs><path class="a" d="M25.4,10.528l-2.615-2.31V2.139a.713.713,0,0,0-.713-.713H19.217a.713.713,0,0,0-.713.713v2.3L13.993.459A2.049,2.049,0,0,0,12.8,0a2.045,2.045,0,0,0-1.191.459L.2,10.529a.713.713,0,0,0-.053,1.007L1.1,12.6a.816.816,0,0,0,.532.236.825.825,0,0,0,.476-.183l.708-.624v9.362a1.426,1.426,0,0,0,1.426,1.426h17.11a1.426,1.426,0,0,0,1.426-1.426V12.025l.709.624a.83.83,0,0,0,.478.184A.807.807,0,0,0,24.5,12.6l.954-1.061a.829.829,0,0,0,.182-.477A.811.811,0,0,0,25.4,10.528Zm-9.745,2.78a.953.953,0,0,1-.952.951H10.9a.953.953,0,0,1-.951-.951v-3.8a.953.953,0,0,1,.951-.95h3.8a.953.953,0,0,1,.952.95Z" transform="translate(0.035)"/></svg>