<?xml version="1.0" encoding="utf-8"?>
<!-- Generator: Adobe Illustrator 24.1.2, SVG Export Plug-In . SVG Version: 6.00 Build 0)  -->
<svg version="1.1" id="Layer_1" xmlns="http://www.w3.org/2000/svg" xmlns:xlink="http://www.w3.org/1999/xlink" x="0px" y="0px"
	 viewBox="0 0 25 25" style="enable-background:new 0 0 25 25;" xml:space="preserve">
<style type="text/css">
	.st0{fill:#FFFFFF;}
</style>
<g id="XMLID_1_">
	<g>
		<path class="st0" d="M6.3,6.1c0,1,0.8,1.8,1.7,1.8c1,0,1.7-0.8,1.7-1.8c0-1-0.8-1.8-1.7-1.8C7,4.3,6.2,5.2,6.3,6.1z M9.5,19.1V9.3
			h-3v9.9H9.5z M20.6,19.1v-5.4C20.6,11.1,20,9,17,9c-1.2,0-2.3,0.6-2.8,1.6h0V9.3h-2.9v9.9h3v-4.9c0-1.3,0.2-2.5,1.8-2.5
			c1.5,0,1.5,1.5,1.5,2.6v4.8H20.6L20.6,19.1z M25,12.5C25,19.4,19.4,25,12.5,25S0,19.4,0,12.5S5.6,0,12.5,0S25,5.6,25,12.5z"/>
	</g>
	<g>
	</g>
</g>
</svg>
