<svg xmlns="http://www.w3.org/2000/svg" viewBox="0 0 319.24 16.37">
  <defs>
    <style>
      .a{isolation:isolate}.b{fill:#fff}
    </style>
  </defs>
  <g class="a">
    <g class="a">
      <path class="b" d="M0 9.62v-9h1.74v8.89c0 3.32 1.76 5.19 4.71 5.19s4.64-1.7 4.64-5.08v-9h1.74v8.86c0 4.49-2.58 6.82-6.43 6.82S0 14 0 9.62zM17.36 8.41v-.05a7.75 7.75 0 017.79-8 8 8 0 016 2.44L30 4.12A6.66 6.66 0 0025.12 2a6 6 0 00-6 6.32 6.08 6.08 0 006 6.36 6.69 6.69 0 005-2.22l1.14 1.12a8 8 0 01-6.16 2.71 7.68 7.68 0 01-7.74-7.88zM35.38.66h1.73V7.5H46V.66h1.74v15.4H46V9.13h-8.89v6.93h-1.73zM53.35.66h1.74v15.4h-1.74zM60 8.41v-.05A7.76 7.76 0 0167.8.4a8 8 0 016 2.44l-1.18 1.28A6.67 6.67 0 0067.78 2a6 6 0 00-6 6.32 6.07 6.07 0 006 6.36 6.67 6.67 0 005-2.22l1.15 1.12a8 8 0 01-6.16 2.71A7.69 7.69 0 0160 8.41zM83.73.55h1.63l7 15.51h-1.85L88.7 12h-8.38l-1.82 4.06h-1.79zM88 10.43l-3.5-7.86-3.5 7.86zM94.93 8.41v-.05a7.73 7.73 0 017.72-8 8.09 8.09 0 015.74 2l-1.12 1.32A6.57 6.57 0 00102.59 2a6 6 0 00-5.86 6.32c0 3.68 2.36 6.4 6.1 6.4a7.21 7.21 0 004.44-1.54V9.4h-4.68V7.83h6.35V14a9.3 9.3 0 01-6.18 2.36 7.55 7.55 0 01-7.83-7.95zM113.28 8.41v-.05a7.86 7.86 0 1115.71 0 7.86 7.86 0 11-15.71.05zm13.9 0v-.05A6.12 6.12 0 00121.11 2a6.06 6.06 0 00-6 6.32 6.12 6.12 0 006.07 6.36 6.05 6.05 0 006-6.27z"/>
    </g>
    <g class="a">
      <path class="b" d="M145.18.55h2.51l6.77 15.51h-2.86l-1.6-3.72h-7.28l-1.59 3.72h-2.73zm3.87 9.4l-2.66-6.16-2.64 6.21zM156.51 0h2.66v16.06h-2.66zM162.07 11.84V4.45h2.66v6.6c0 1.8.91 2.83 2.49 2.83a2.58 2.58 0 002.62-2.88V4.45h2.66v11.61h-2.66v-1.8a4.18 4.18 0 01-3.63 2c-2.62.04-4.14-1.72-4.14-4.42zM175.4 4.45h2.67v1.76a4.14 4.14 0 013.54-2 3.65 3.65 0 013.45 2.05 4.76 4.76 0 013.94-2c2.53 0 4.07 1.61 4.07 4.45v7.41h-2.66V9.46c0-1.85-.86-2.84-2.35-2.84s-2.49 1-2.49 2.89v6.55h-2.66V9.44c0-1.8-.88-2.82-2.36-2.82s-2.48 1.1-2.48 2.91v6.53h-2.67zM195.86 4.45h2.67v1.8a4.17 4.17 0 013.63-2c2.62 0 4.13 1.76 4.13 4.47v7.39h-2.66V9.46c0-1.8-.9-2.84-2.49-2.84a2.58 2.58 0 00-2.61 2.89v6.55h-2.67zM209.11.13H212v2.53h-2.86zm.11 4.32h2.66v11.61h-2.66z"/>
    </g>
    <g class="a">
      <path class="b" d="M230.27 13.88a6.68 6.68 0 01-5 2.4c-2.77 0-4.84-1.74-4.84-4.31 0-2 1.37-3.52 3.72-4.45a5 5 0 01-1.54-3.39A3.75 3.75 0 01226.64.4a3.56 3.56 0 013.74 3.47c0 2-1.38 3.21-3.63 4l3.52 3.59a19.79 19.79 0 001.85-3.43l1.43.66a21.23 21.23 0 01-2.22 3.87l2.67 2.8-1.32 1zm-1.05-1.07l-4.12-4.25c-2 .75-2.95 2-2.95 3.3a3 3 0 003.22 2.91 5.29 5.29 0 003.85-1.96zM228.75 4a2.09 2.09 0 00-2.17-2.13 2.2 2.2 0 00-2.34 2.22c0 .91.38 1.59 1.54 2.84 1.96-.66 2.97-1.6 2.97-2.93z"/>
    </g>
    <g class="a">
      <path class="b" d="M242.42.66h11.46v2.46h-8.76v4.21h7.77v2.46h-7.77v6.27h-2.7zM256.1 4.45h2.66v2.61a4.15 4.15 0 014.12-2.84V7h-.16c-2.33 0-4 1.52-4 4.6v4.42h-2.62zM264.79.13h2.86v2.53h-2.86zm.11 4.32h2.66v11.61h-2.66zM270 10.3v-.05a5.76 5.76 0 015.67-6c3.7 0 5.57 2.91 5.57 6.25v.75h-8.54a3.25 3.25 0 003.34 3 4.23 4.23 0 003.15-1.39l1.56 1.39a5.86 5.86 0 01-4.75 2.18 5.8 5.8 0 01-6-6.13zm8.6-.86c-.17-1.72-1.19-3.06-2.95-3.06s-2.77 1.26-3 3.06zM283.44 4.45h2.67v1.8a4.17 4.17 0 013.63-2c2.62 0 4.13 1.76 4.13 4.47v7.39h-2.66V9.46c0-1.8-.9-2.84-2.49-2.84a2.58 2.58 0 00-2.61 2.89v6.55h-2.67zM296.05 10.28c0-3.85 2.62-6 5.39-6a4.82 4.82 0 014 2.05V0h2.66v16.06h-2.7v-1.93a4.65 4.65 0 01-4 2.17c-2.69 0-5.35-2.17-5.35-6.02zm9.4 0a3.49 3.49 0 00-3.37-3.72 3.41 3.41 0 00-3.35 3.72 3.45 3.45 0 003.35 3.72 3.5 3.5 0 003.37-3.72zM310 14.54l1.19-1.8a6.46 6.46 0 003.8 1.43c1.15 0 1.81-.48 1.81-1.25v-.05c0-.9-1.24-1.21-2.6-1.63-1.72-.48-3.63-1.18-3.63-3.41 0-2.2 1.83-3.54 4.14-3.54A8 8 0 01319 5.57l-1.06 1.89a6.76 6.76 0 00-3.28-1.1c-1 0-1.63.48-1.63 1.17 0 .84 1.26 1.19 2.62 1.63 1.7.53 3.61 1.3 3.61 3.39 0 2.44-1.89 3.65-4.31 3.65a8.13 8.13 0 01-4.95-1.66z"/>
    </g>
  </g>
</svg>
