<svg xmlns="http://www.w3.org/2000/svg" viewBox="0 0 287.7 60.41">
  <defs>
    <style>
      .a{isolation:isolate}.b{fill:#fff}
    </style>
  </defs>
  <g class="a">
    <g class="a">
      <path class="b" d="M43.26 14.67V.42H46v14.07c0 5.29 2.8 8.26 7.49 8.26 4.51 0 7.38-2.73 7.38-8.08V.42h2.77v14c0 7.14-4.1 10.85-10.22 10.85s-10.16-3.67-10.16-10.6zM70.88 12.74v-.07A12.34 12.34 0 0183.27 0a12.75 12.75 0 019.55 3.89l-1.89 2a10.63 10.63 0 00-7.7-3.36c-5.42 0-9.48 4.41-9.48 10v.07c0 5.67 4.09 10.12 9.48 10.12 3.36 0 5.57-1.3 7.91-3.54L93 21a12.74 12.74 0 01-9.8 4.3c-7.11.04-12.32-5.52-12.32-12.56zM99.54.42h2.77v10.89h14.14V.42h2.76v24.5h-2.76v-11h-14.14v11h-2.77zM128.14.42h2.76v24.5h-2.76zM138.74 12.74v-.07A12.34 12.34 0 01151.13 0a12.76 12.76 0 019.56 3.89l-1.89 2a10.67 10.67 0 00-7.7-3.36c-5.43 0-9.49 4.41-9.49 10v.07c0 5.67 4.1 10.12 9.49 10.12 3.36 0 5.56-1.3 7.91-3.54l1.82 1.82a12.77 12.77 0 01-9.8 4.3 12.22 12.22 0 01-12.29-12.56zM176.47.25h2.59l11.17 24.67h-3l-2.87-6.47H171l-2.9 6.47h-2.8zM183.3 16l-5.57-12.53-5.6 12.53zM194.29 12.74v-.07C194.29 6 199.22 0 206.57 0a12.9 12.9 0 019.14 3.26l-1.79 2.1a10.4 10.4 0 00-7.45-2.8c-5.43 0-9.31 4.58-9.31 10v.07c0 5.85 3.74 10.19 9.69 10.19a11.57 11.57 0 007.07-2.45v-6.05h-7.45v-2.49h10.11v9.77a14.82 14.82 0 01-9.83 3.74c-7.75 0-12.46-5.6-12.46-12.6zM223.47 12.74v-.07a12.5 12.5 0 1125-.07v.07a12.5 12.5 0 11-25 .07zm22.13 0v-.07c0-5.56-4.06-10.11-9.66-10.11s-9.6 4.48-9.6 10v.07c0 5.57 4.07 10.12 9.67 10.12s9.59-4.44 9.59-10.01z"/>
    </g>
    <g class="a">
      <path class="b" d="M10.78 35.25h4l10.77 24.67H21L18.52 54H6.93l-2.52 5.92H0zm6.16 14.94l-4.23-9.8-4.2 9.8zM28.8 34.37H33v25.55h-4.2zM37.66 53.2V41.44h4.24v10.5c0 2.87 1.43 4.52 4 4.52s4.1-1.72 4.1-4.59V41.44h4.23v18.48H50v-2.87a6.66 6.66 0 01-5.78 3.26c-4.14 0-6.56-2.8-6.56-7.11zM58.87 41.44h4.23v2.8a6.63 6.63 0 015.64-3.18 5.82 5.82 0 015.5 3.25 7.53 7.53 0 016.26-3.25c4 0 6.48 2.55 6.48 7.07v11.79h-4.24v-10.5c0-2.94-1.36-4.51-3.74-4.51s-4 1.61-4 4.58v10.43h-4.19V49.39c0-2.87-1.4-4.48-3.75-4.48s-4 1.75-4 4.62v10.39h-4.19zM91.42 41.44h4.23v2.87a6.67 6.67 0 015.78-3.25c4.17 0 6.58 2.8 6.58 7.1v11.76h-4.23v-10.5c0-2.87-1.44-4.51-4-4.51s-4.17 1.71-4.17 4.58v10.43h-4.19zM112.49 34.58H117v4h-4.55zm.17 6.86h4.24v18.48h-4.24z"/>
    </g>
    <g class="a">
      <path class="b" d="M146.16 56.46a10.65 10.65 0 01-8 3.81c-4.41 0-7.7-2.76-7.7-6.86v-.07c0-3.25 2.17-5.6 5.92-7.07-1.68-2-2.45-3.46-2.45-5.39v-.07c0-3.22 2.59-5.81 6.47-5.81a5.67 5.67 0 016 5.53v.07c0 3.12-2.2 5.11-5.77 6.37l5.6 5.71a31.53 31.53 0 002.94-5.46l2.28 1.05a34.58 34.58 0 01-3.54 6.16l4.27 4.37-2.18 1.61zm-1.68-1.72L137.93 48c-3.25 1.19-4.69 3.18-4.69 5.25v.07c0 2.62 2.1 4.62 5.11 4.62 2.32-.01 4.35-1.24 6.13-3.2zm-.73-14v-.07a3.33 3.33 0 00-3.47-3.39 3.5 3.5 0 00-3.71 3.53v.07c0 1.44.59 2.52 2.45 4.52 3.11-1.05 4.73-2.56 4.73-4.66z"/>
    </g>
    <g class="a">
      <path class="b" d="M165.48 35.42h18.24v3.92h-13.94V46h12.36v4h-12.36v10h-4.3zM187.25 41.44h4.23v4.17c1.16-2.77 3.29-4.66 6.55-4.52v4.48h-.25c-3.71 0-6.3 2.42-6.3 7.32v7h-4.23zM201.07 34.58h4.55v4h-4.55zm.18 6.86h4.23v18.48h-4.23zM209.3 50.75v-.07c0-5.28 3.74-9.62 9-9.62 5.88 0 8.85 4.62 8.85 9.94 0 .38 0 .77-.07 1.19h-13.55a5.16 5.16 0 005.32 4.69 6.7 6.7 0 005-2.21l2.48 2.21a9.34 9.34 0 01-7.56 3.46 9.22 9.22 0 01-9.47-9.59zm13.7-1.36c-.28-2.73-1.89-4.87-4.69-4.87-2.59 0-4.41 2-4.79 4.87zM230.75 41.44H235v2.87a6.64 6.64 0 015.77-3.25c4.17 0 6.58 2.8 6.58 7.1v11.76h-4.23v-10.5c0-2.87-1.44-4.51-4-4.51S235 46.62 235 49.49v10.43h-4.24zM250.81 50.72v-.07c0-6.13 4.16-9.59 8.57-9.59a7.65 7.65 0 016.3 3.25v-9.94h4.24v25.55h-4.24v-3.08a7.38 7.38 0 01-6.3 3.47c-4.38 0-8.57-3.47-8.57-9.59zm14.94 0v-.07c0-3.57-2.52-5.92-5.35-5.92s-5.32 2.24-5.32 5.92v.07c0 3.57 2.45 5.91 5.32 5.91s5.35-2.38 5.35-5.91zM273 57.51l1.89-2.87a10.37 10.37 0 006.05 2.27c1.82 0 2.87-.77 2.87-2v-.07c0-1.44-2-1.93-4.13-2.59-2.73-.77-5.77-1.89-5.77-5.43v-.07c0-3.5 2.9-5.63 6.58-5.63a12.77 12.77 0 016.79 2.1l-1.68 3a10.7 10.7 0 00-5.22-1.75c-1.64 0-2.59.77-2.59 1.85v.07c0 1.33 2 1.89 4.17 2.59 2.69.84 5.74 2.07 5.74 5.39v.07c0 3.89-3 5.81-6.86 5.81a13 13 0 01-7.84-2.74z"/>
    </g>
  </g>
</svg>
