<!-- Generator: Adobe Illustrator 24.0.3, SVG Export Plug-In  -->
<svg version="1.1" xmlns="http://www.w3.org/2000/svg" xmlns:xlink="http://www.w3.org/1999/xlink" x="0px" y="0px" width="257.6px"
	 height="27.9px" viewBox="0 0 257.6 27.9" style="enable-background:new 0 0 257.6 27.9;" xml:space="preserve">
<path fill="#FFF" id="Path_5213_1_" d="M0,13.7V0.9h1.6v12.6c0,5.1,2.8,8.1,7.4,8.1c4.4,0,7.3-2.7,7.3-8V1h1.6v12.6c0,6.3-3.6,9.6-9,9.6
	C3.7,23.1,0,19.8,0,13.7z"/>
<path fill="#FFF" id="Path_5214_1_" d="M22.5,11.9L22.5,11.9C22.3,5.8,27.1,0.7,33.2,0.6c0.1,0,0.2,0,0.2,0c3.2-0.1,6.3,1.2,8.5,3.5l-1.1,1.2
	C38.9,3.2,36.2,2,33.4,2c-5.2,0-9.2,4.3-9.2,9.8v0.1c0,5.5,4,9.8,9.2,9.8c3.1,0,5.3-1.2,7.5-3.4l1.1,1c-2.2,2.5-5.4,3.8-8.7,3.8
	C27.1,23.2,22.5,18.2,22.5,11.9z"/>
<path fill="#FFF" id="Path_5215_1_" d="M45.5,0h1.5v9.8c1.1-2.1,3.3-3.4,5.7-3.4c4,0,6.4,2.8,6.4,6.5v9.8h-1.5v-9.5c0-3.3-1.9-5.4-5.1-5.4
	c-3,0-5.5,2.4-5.5,5.4c0,0.1,0,0.2,0,0.3v9.2h-1.5V0z"/>
<path fill="#FFF" id="Path_5216_1_" d="M64.1,0.6H66v2.1h-1.9V0.6z M64.2,6.9h1.5v15.9h-1.5V6.9z"/>
<path fill="#FFF" id="Path_5217_1_" d="M70.1,14.9L70.1,14.9c-0.1-4.6,3.5-8.3,8.1-8.4c2.5,0,4.8,1,6.4,2.9l-1.1,1.1c-1.3-1.6-3.2-2.6-5.3-2.6
	c-3.6,0.1-6.5,3.1-6.4,6.7c0,0,0,0.1,0,0.1v0.1c-0.1,3.7,2.8,6.8,6.5,6.9c0,0,0.1,0,0.1,0c2.1-0.1,4-1,5.3-2.6l1,0.9
	c-2.8,3.6-7.9,4.2-11.4,1.5C71.2,19.9,70,17.5,70.1,14.9L70.1,14.9z"/>
<path fill="#FFF" id="Path_5218_1_" d="M87.1,18.2L87.1,18.2c0-3.4,2.9-5.2,7-5.2c1.8,0,3.6,0.2,5.3,0.7v-0.7c0-3.2-2-4.9-5.2-4.9
	c-1.8,0-3.5,0.5-5,1.3L88.5,8c1.8-0.9,3.7-1.4,5.6-1.4c1.9-0.1,3.7,0.5,5,1.8c1.1,1.2,1.7,2.8,1.6,4.5v9.9h-1.5v-2.6
	c-1.4,2-3.7,3.1-6.1,3C90.3,23.2,87.1,21.5,87.1,18.2z M99.3,16.8V15c-1.8-0.5-3.6-0.7-5.4-0.7c-3.4,0-5.2,1.5-5.2,3.7v0.1
	c0,2.3,2.2,3.6,4.6,3.6C96.6,21.7,99.3,19.7,99.3,16.8z"/>
<path fill="#FFF" id="Path_5219_1_" d="M105.3,25.4l0.9-1.3c1.8,1.5,4.1,2.2,6.4,2.2c3.6,0,6.2-2.1,6.2-6.2v-2.3c-1.4,2.3-4,3.7-6.6,3.7
	c-4.2,0.1-7.6-3.3-7.6-7.4c0,0,0,0,0-0.1V14c0-4.2,3.4-7.6,7.6-7.5c0,0,0,0,0,0c2.7,0,5.2,1.3,6.6,3.5V6.9h1.5v13.5
	c0.1,2-0.6,4-2,5.4c-1.6,1.4-3.6,2.2-5.8,2.1C110,27.9,107.5,27,105.3,25.4z M119,14.1L119,14.1c0-3.7-3.3-6.1-6.6-6.1
	c-3.2-0.1-6,2.4-6.1,5.6c0,0.1,0,0.3,0,0.4v0.1c0,3.3,2.7,6.1,6,6.1c0,0,0.1,0,0.1,0C115.7,20.1,119,17.7,119,14.1z"/>
<path fill="#FFF" id="Path_5220_1_" d="M124.6,14.9L124.6,14.9c-0.1-4.6,3.6-8.3,8.1-8.4c0,0,0.1,0,0.1,0c4.5,0,8.1,3.6,8.1,8.1c0,0,0,0.1,0,0.1
	v0.1c0.1,4.5-3.5,8.3-8,8.4s-8.3-3.5-8.4-8C124.6,15.1,124.6,15,124.6,14.9L124.6,14.9z M139.3,14.9L139.3,14.9
	c0.1-3.7-2.8-6.8-6.4-7c0,0-0.1,0-0.1,0c-3.6,0-6.5,3-6.5,6.6c0,0.1,0,0.1,0,0.2v0.1c-0.1,3.7,2.8,6.8,6.4,6.9c0,0,0.1,0,0.1,0
	c3.6-0.1,6.5-3.1,6.5-6.7C139.3,15,139.3,14.9,139.3,14.9z"/>
<path fill="#FFF" id="Path_5221_1_" d="M160.9,0.8h4.4l9.4,22h-5l-2-4.9h-9.2l-2,4.9h-4.9L160.9,0.8z M166,13.7l-2.9-7.1l-2.9,7.1H166z"/>
<path fill="#FFF" id="Path_5222_1_" d="M177.2,0h4.8v22.8h-4.8V0z"/>
<path fill="#FFF" id="Path_5223_1_" d="M185.7,16.9V6h4.8v9.3c0,2.2,1,3.4,2.9,3.4c1.8,0,3-1.1,3-3.4V6h4.8v16.7h-4.8v-2.4
	c-1.1,1.7-2.9,2.7-4.9,2.7C187.8,23.1,185.7,20.7,185.7,16.9z"/>
<path fill="#FFF" id="Path_5224_1_" d="M204.6,6h4.8v2.4c1.1-1.7,3-2.7,4.9-2.7c2-0.1,3.8,0.9,4.7,2.7c1.3-1.7,3.4-2.7,5.5-2.7
	c3.5,0,5.6,2.1,5.6,6.2v10.9h-4.8v-9.4c0-2.3-1-3.4-2.8-3.4s-2.9,1.1-2.9,3.4v9.3H215v-9.3c0-2.3-1-3.4-2.8-3.4s-2.9,1.1-2.9,3.4
	v9.3h-4.8L204.6,6L204.6,6z"/>
<path fill="#FFF" id="Path_5225_1_" d="M233.7,6h4.8v2.4c1.1-1.7,2.9-2.7,4.9-2.7c3.6,0,5.7,2.4,5.7,6.2v10.8h-4.8v-9.3c0-2.3-1-3.4-2.9-3.4
	c-1.8,0-3,1.1-3,3.4v9.3h-4.8L233.7,6L233.7,6z"/>
<path fill="#FFF" id="Path_5226_1_" d="M252.6,0h5v4.2h-5V0z M252.7,6h4.8v16.7h-4.8V6z"/>
</svg>
