<svg xmlns="http://www.w3.org/2000/svg" x="0px" y="0px" width="600px" height="428.7px" viewBox="0 0 600 428.7">
  <style>
    .st0{fill:#0070e0}.st1{fill:#fff}
  </style>
  <g id="layer1_1_" transform="translate(-71.060242 -326.03787)">
    <path id="rect2991_1_" class="st0" d="M101 326h540.2c16.5 0 29.9 14.4 29.9 32.3v364.1c0 17.8-13.4 32.3-29.9 32.3H101c-16.5 0-29.9-14.4-29.9-32.3V358.3c0-17.8 13.3-32.3 29.9-32.3z"/>
    <g id="text3761_1_">
      <path id="path3955_1_" class="st1" d="M307.7 445.8v-74H294v30.1h-26.5v-30.1h-13.7v74h13.7v-31.1H294v31.1h13.7"/>
      <path id="path3957_1_" class="st1" d="M375.7 417.3c0-16.1-12.5-28.9-28.7-28.9-16.8 0-29.2 13.2-29.2 29.8 0 16.5 12.7 29.4 29.3 29.4 11.8 0 23.2-8 26.8-19.3h-14c-2.7 4.9-7.4 7.1-12.8 7.1-5.5 0-10.5-2.8-13.5-7.4-.8-1.2-1.5-2.5-1.8-4h43.1c.5-2.2.8-4.5.8-6.7m-13.6-4h-30.7c1.9-7.9 7.6-12.7 15.7-12.7s13.7 4.7 15 12.7"/>
      <path id="path3959_1_" class="st1" d="M397.5 445.8v-74h-13.3v74h13.3"/>
      <path id="path3961_1_" class="st1" d="M421.5 445.8v-74h-13.3v74h13.3"/>
      <path id="path3963_1_" class="st1" d="M488.3 417.9c0-16.3-13-29.5-29.4-29.5s-29.6 13.4-29.6 29.7c0 16.2 13.4 29.5 29.6 29.5 16.8 0 29.4-12.9 29.4-29.7m-13.3.3c0 9.1-6.7 17.2-16.1 17.2-9.6 0-16.3-8-16.3-17.3 0-9 6.9-17.5 16.3-17.5s16.1 8.7 16.1 17.6"/>
    </g>
    <rect id="rect3773_1_" x="71.1" y="487.5" class="st1" width="600" height="232.9"/>
  </g>
  <rect y="161.5" class="st0" width="22.1" height="232.9"/>
  <rect x="577.9" y="161.5" class="st0" width="22.1" height="232.9"/>
</svg>
