<svg xmlns="http://www.w3.org/2000/svg" width="43" height="43" viewBox="0 0 43 43"><defs><style>.a{fill:#0070e0;}</style></defs><path class="a" d="M39.445,18.861a14.568,14.568,0,0,0-24.072,7.072,1.043,1.043,0,0,1-1.01.793H9.4A1.04,1.04,0,0,1,8.372,25.5,21.5,21.5,0,0,1,44.352,13.955l3.1-3.1A2.081,2.081,0,0,1,51,12.33V23.952a2.081,2.081,0,0,1-2.081,2.081H37.3a2.081,2.081,0,0,1-1.471-3.552ZM10.081,32.968H21.7a2.081,2.081,0,0,1,1.471,3.552l-3.619,3.619a14.568,14.568,0,0,0,24.072-7.072,1.043,1.043,0,0,1,1.01-.793H49.6A1.04,1.04,0,0,1,50.628,33.5a21.5,21.5,0,0,1-35.98,11.542l-3.1,3.1A2.081,2.081,0,0,1,8,46.67V35.048A2.081,2.081,0,0,1,10.081,32.968Z" transform="translate(-8 -8)"/></svg>