<?xml version="1.0" encoding="utf-8"?>
<!-- Generator: Adobe Illustrator 16.0.0, SVG Export Plug-In . SVG Version: 6.00 Build 0)  -->
<!DOCTYPE svg PUBLIC "-//W3C//DTD SVG 1.1//EN" "http://www.w3.org/Graphics/SVG/1.1/DTD/svg11.dtd">
<svg version="1.1" id="Layer_1" xmlns="http://www.w3.org/2000/svg" xmlns:xlink="http://www.w3.org/1999/xlink" x="0px" y="0px"
	 width="211.159px" height="44.319px" viewBox="0 0 211.159 44.319" enable-background="new 0 0 211.159 44.319"
	 xml:space="preserve">
<g>
	<path fill="#800000" d="M208.738,3.962l0.014-0.026l-0.002-0.029c-0.027-0.508-0.043-1.163-0.043-1.846V1.926l-0.132,0.03
		c-0.17,0.039-1.034,0.039-1.869,0.039h-2.581c-0.529,0-0.998-0.012-1.621-0.042l-0.028-0.001l-0.024,0.013
		c-0.116,0.057-0.136,0.221-0.139,0.271c-0.008,0.123,0.027,0.221,0.099,0.267l0.271,0.044c0.711,0.086,0.746,0.164,0.746,1.661
		v5.05c0,1.483-0.035,1.561-0.746,1.646l-0.388,0.046l-0.026,0.025c-0.08,0.079-0.092,0.209-0.077,0.306
		c0.017,0.104,0.064,0.183,0.132,0.217l0.025,0.013l0.027-0.001c0.657-0.027,1.131-0.042,1.75-0.042
		c0.566,0,1.052,0.015,1.862,0.042l0.027,0l0.024-0.012c0.092-0.046,0.131-0.171,0.137-0.273c0.008-0.122-0.028-0.217-0.099-0.264
		l-0.526-0.059c-0.715-0.062-0.758-0.154-0.758-1.646V7.308c0-0.271,0-0.271,0.355-0.271h0.954c0.493,0,0.859,0.012,1.048,0.066
		c0.197,0.062,0.303,0.191,0.377,0.456l0.148,0.582l0.025,0.022c0.139,0.12,0.437,0.113,0.525-0.022l0.019-0.027V8.079
		c0-0.146-0.011-0.333-0.023-0.541c-0.016-0.254-0.032-0.543-0.032-0.819c0-0.285,0.017-0.585,0.031-0.851
		c0.013-0.218,0.024-0.415,0.024-0.567V5.269l-0.019-0.027c-0.066-0.101-0.209-0.111-0.267-0.111c-0.116,0-0.218,0.038-0.271,0.102
		l-0.147,0.606c-0.079,0.341-0.173,0.374-0.279,0.413c-0.149,0.05-0.582,0.079-1.159,0.079h-0.954c-0.355,0-0.355,0-0.355-0.271
		v-2.96c0-0.453,0-0.453,0.314-0.453h0.855c0.58,0,1.037,0,1.333,0.081c0.602,0.156,0.781,0.559,0.903,1.247l0.006,0.038
		l0.029,0.026c0.055,0.046,0.129,0.071,0.213,0.071C208.555,4.109,208.688,4.063,208.738,3.962L208.738,3.962z M199.323,6.69
		c0-2.37-1.557-4.919-4.976-4.919c-2.909,0-5.103,2.175-5.103,5.06c0,2.417,1.753,4.862,5.103,4.862
		C197.185,11.693,199.323,9.542,199.323,6.69L199.323,6.69z M197.705,7.125c0,2.892-1.711,3.917-3.175,3.917
		c-2.894,0-3.667-2.93-3.667-4.661c0-2.923,1.749-3.96,3.246-3.96C196.764,2.421,197.705,4.955,197.705,7.125L197.705,7.125z
		 M186.23,31.04c0,6.06,4.511,11.413,11.984,11.413c6.498,0,11.683-4.95,11.683-11.75c0-5.925-3.905-11.547-11.683-11.547
		C191.28,19.155,186.23,24.306,186.23,31.04L186.23,31.04z M189.597,29.962c0-7.373,4.545-9.763,8.047-9.763
		c6.43,0,8.888,5.993,8.888,11.547c0,6.632-3.838,9.662-7.879,9.662C192.021,41.409,189.597,34.945,189.597,29.962L189.597,29.962z
		 M182.158,2.494c0.072-0.062,0.11-0.164,0.102-0.27c-0.008-0.108-0.062-0.203-0.143-0.253l-0.029-0.019l-0.033,0.002
		c-0.998,0.058-1.586,0.058-2.641,0l-0.028-0.001l-0.026,0.013c-0.078,0.039-0.132,0.118-0.147,0.216
		c-0.019,0.113,0.017,0.23,0.092,0.307l0.026,0.026l0.29,0.032c0.272,0.035,0.441,0.101,0.491,0.137
		c-0.045,0.201-0.535,1.111-0.833,1.664l-0.063,0.119c-0.338,0.653-0.729,1.357-1.222,2.204c-0.369-0.668-0.729-1.403-1.079-2.115
		c-0.138-0.279-0.274-0.558-0.411-0.832c-0.102-0.203-0.418-0.92-0.424-1.031c0-0.027,0.064-0.084,0.498-0.146l0.218-0.033
		l0.025-0.025c0.076-0.076,0.108-0.214,0.079-0.335c-0.023-0.097-0.083-0.167-0.165-0.194l-0.021-0.007l-0.021,0.002
		c-0.344,0.027-0.846,0.042-1.492,0.042c-0.648,0-1.164-0.013-1.619-0.042l-0.032-0.002l-0.028,0.016
		c-0.068,0.04-0.115,0.114-0.132,0.207c-0.019,0.113,0.011,0.23,0.076,0.308l0.025,0.029l0.431,0.077
		c0.371,0.062,0.558,0.094,1.03,1.008l1.654,3.228c0.396,0.764,0.438,0.921,0.438,1.691v0.714c0,1.523-0.034,1.601-0.744,1.675
		l-0.474,0.045l-0.027,0.028c-0.08,0.08-0.091,0.21-0.076,0.307c0.018,0.103,0.066,0.182,0.133,0.215l0.025,0.012l0.027,0
		c0.756-0.028,1.246-0.042,1.833-0.042c0.569,0,1.072,0.016,1.904,0.042l0.027,0l0.024-0.012c0.067-0.034,0.116-0.113,0.133-0.217
		c0.016-0.096,0.003-0.227-0.078-0.307l-0.027-0.027l-0.572-0.044c-0.648-0.049-0.742-0.157-0.742-1.675v-0.73
		c0-1.05,0.03-1.154,0.645-2.218l0.884-1.529c0.081-0.138,0.157-0.272,0.231-0.4c0.551-0.964,0.949-1.661,1.546-1.764l0.423-0.075
		L182.158,2.494L182.158,2.494z M177.242,19.661c-0.572-0.134-2.356-0.505-4.275-0.505c-5.084,0-8.417,1.582-10.672,3.939
		c-2.088,2.222-3.031,5.117-3.031,7.979c0,2.963,1.078,5.622,3.098,7.643c2.593,2.626,6.262,3.737,10.268,3.737
		c1.819,0,4.242-0.403,6.027-0.875c0.639-0.169,1.246-0.304,1.648-0.304c0.136-0.102,0.136-0.303,0.035-0.404
		c-0.605-0.234-0.809-1.042-0.809-2.39v-1.886c0-1.717,0.034-2.659,1.447-2.828l0.54-0.066c0.235-0.201,0.201-0.707-0.034-0.842
		c-1.111,0.066-2.256,0.1-3.568,0.1c-1.986,0-3.838-0.033-4.814-0.1c-0.236,0.1-0.27,0.707,0,0.842l1.481,0.168
		c2.087,0.235,2.188,0.438,2.188,3.266v1.347c0,1.077-0.168,1.684-0.336,1.919c-0.371,0.572-1.616,1.01-3.704,1.01
		c-6.768,0-10.1-5.084-10.1-11.547c0-5.051,2.862-9.697,9.393-9.697c3.435,0,5.959,1.145,6.902,4.781
		c0.202,0.203,0.809,0.168,0.909-0.101c-0.304-2.021-0.506-3.771-0.506-4.882C178.926,20.031,177.882,19.795,177.242,19.661
		L177.242,19.661z M171.504,1.781l0.01-0.04l-0.018-0.035c-0.052-0.105-0.197-0.117-0.258-0.117c-0.035,0-0.086,0.004-0.131,0.022
		l-0.035,0.013l-0.02,0.033c-0.18,0.313-0.254,0.338-1.001,0.338h-5.798c-0.629,0-0.91-0.033-0.969-0.347l-0.006-0.033l-0.023-0.024
		c-0.04-0.039-0.104-0.058-0.194-0.058c-0.033,0-0.146,0.003-0.209,0.044l-0.038,0.026l-0.008,0.046
		c-0.099,0.56-0.307,1.448-0.529,2.073l-0.016,0.042l0.021,0.042c0.084,0.169,0.371,0.251,0.525,0.135l0.023-0.017l0.012-0.026
		c0.143-0.325,0.277-0.632,0.604-0.931c0.311-0.285,1.01-0.323,1.654-0.323h0.771c0.312,0,0.312,0,0.312,0.34v6.272
		c0,1.52-0.088,1.586-0.771,1.646l-0.504,0.042l-0.048,0.015c-0.084,0.052-0.131,0.157-0.126,0.281
		c0.005,0.095,0.043,0.212,0.135,0.258l0.023,0.012l0.027,0c0.858-0.026,1.377-0.042,1.946-0.042c0.548,0,1.001,0.013,1.834,0.042
		l0.026,0l0.025-0.012c0.115-0.057,0.135-0.222,0.138-0.271c0.008-0.123-0.028-0.219-0.098-0.266l-0.499-0.059
		c-0.702-0.061-0.743-0.153-0.743-1.646V2.969c-0.001-0.142-0.001-0.277,0.022-0.3c0.023-0.023,0.176-0.023,0.276-0.023h0.995
		c0.752,0,1.264,0.107,1.564,0.33c0.132,0.098,0.246,0.453,0.307,0.95l0.004,0.031l0.02,0.024c0.052,0.063,0.146,0.101,0.255,0.101
		c0.134,0,0.245-0.058,0.29-0.149l0.014-0.028l-0.003-0.031C171.256,3.471,171.353,2.341,171.504,1.781L171.504,1.781z
		 M158.714,9.229V4.236c0-1.533,0.043-1.628,0.756-1.688l0.38-0.03l0.023-0.015c0.069-0.047,0.105-0.144,0.098-0.267
		c-0.004-0.049-0.023-0.213-0.139-0.271l-0.024-0.012l-0.027,0.001c-0.663,0.026-1.16,0.042-1.735,0.042
		c-0.602,0-1.084-0.015-1.764-0.042l-0.027-0.001l-0.025,0.012c-0.114,0.058-0.133,0.222-0.137,0.272
		c-0.008,0.122,0.028,0.219,0.098,0.266l0.023,0.015l0.378,0.03c0.716,0.061,0.758,0.155,0.758,1.688v4.994
		c0,1.51-0.036,1.589-0.761,1.675l-0.389,0.046l-0.025,0.027c-0.08,0.079-0.092,0.209-0.077,0.305
		c0.017,0.104,0.065,0.183,0.132,0.216l0.025,0.013l0.027,0c0.714-0.028,1.183-0.042,1.764-0.042c0.558,0,1.021,0.014,1.735,0.042
		l0.027,0l0.025-0.012c0.115-0.058,0.134-0.223,0.138-0.272c0.007-0.122-0.029-0.218-0.098-0.264l-0.399-0.059
		C158.75,10.819,158.714,10.74,158.714,9.229L158.714,9.229z M156.402,41.073c-1.447-0.17-1.885-0.674-2.861-3.57l-4.612-13.533
		c-0.505-1.48-1.043-3.029-1.481-4.511c-0.067-0.234-0.303-0.303-0.504-0.303c-0.372,0.438-0.943,1.044-1.752,1.28
		c0.102,0.539-0.101,1.178-0.572,2.39l-3.434,9.09c-1.414,3.771-2.356,5.959-2.963,7.508c-0.471,1.212-1.211,1.582-2.02,1.65
		l-1.111,0.1c-0.201,0.168-0.135,0.708,0.068,0.843c0.908-0.034,2.12-0.101,3.23-0.101c1.583,0.033,2.627,0.033,3.502,0.101
		c0.303-0.135,0.303-0.675,0.067-0.843l-1.11-0.1c-0.809-0.068-0.978-0.271-0.978-0.674c0-0.37,0.236-1.279,0.741-2.795l1.178-3.535
		c0.236-0.707,0.438-0.808,1.279-0.808h5.084c1.01,0,1.145,0.101,1.381,0.842l1.48,4.579c0.271,0.808,0.438,1.413,0.438,1.783
		c0,0.337-0.472,0.539-1.178,0.607l-0.978,0.1c-0.236,0.168-0.202,0.708,0.068,0.843c0.976-0.034,2.255-0.101,3.871-0.101
		c1.515,0,2.693,0.033,4.073,0.101c0.168-0.135,0.235-0.675,0-0.843L156.402,41.073L156.402,41.073z M147.717,31.915h-4.141
		c-0.943,0-0.977-0.033-0.707-0.808l2.121-5.858c0.37-1.01,0.706-1.816,0.808-1.986h0.067c0.202,0.404,0.505,1.313,0.773,2.121
		l1.818,5.488C148.761,31.782,148.693,31.915,147.717,31.915L147.717,31.915z M149.091,3.872c0-0.542,0.203-1.45,1.562-1.45
		c1.238,0,1.614,0.805,1.805,1.506l0.021,0.04c0.045,0.055,0.121,0.085,0.213,0.085c0.106,0,0.248-0.043,0.31-0.137l0.018-0.026
		V3.856c0-0.573-0.117-1.374-0.257-1.749l-0.026-0.07h-0.075c-0.099,0-0.286-0.025-0.465-0.081c-0.335-0.09-0.86-0.186-1.331-0.186
		c-1.775,0-2.97,1.013-2.97,2.52c0,1.282,0.979,2.119,1.563,2.503l1.333,0.871c0.969,0.623,1.103,1.269,1.103,1.874
		c0,0.749-0.51,1.505-1.646,1.505c-1.42,0-2.04-1.095-2.31-2.013L147.923,9c-0.042-0.062-0.118-0.097-0.214-0.097
		c-0.094,0-0.228,0.036-0.3,0.137l-0.021,0.03l0.001,0.037c0.027,0.634,0.207,1.673,0.392,2.012l0.015,0.025l0.025,0.016
		c0.275,0.16,1.045,0.533,2.243,0.533c1.852,0,3.096-1.086,3.096-2.702c0-1.122-0.59-2.033-1.804-2.785l-1.123-0.702
		C149.807,5.24,149.091,4.677,149.091,3.872L149.091,3.872z M145.557,11.531c0.065-0.052,0.098-0.135,0.086-0.217
		c-0.012-0.077-0.059-0.139-0.127-0.165l-0.031-0.007c-0.334-0.024-0.673-0.162-0.906-0.368c-0.966-0.81-1.734-1.993-2.797-3.706
		c-0.074-0.119-0.084-0.173-0.083-0.196c0.467-0.194,1.783-0.881,1.783-2.427c0-1.175-0.665-1.769-1.222-2.059
		c-0.704-0.382-1.605-0.434-2.395-0.434c-1.283,0-2.281,0.036-3.137,0.113l-0.039,0.011c-0.082,0.04-0.135,0.13-0.145,0.241
		c-0.01,0.12,0.035,0.236,0.115,0.294l0.021,0.016l0.477,0.059c0.458,0.057,0.524,0.155,0.524,1.534v5.037
		c0,1.483-0.035,1.561-0.747,1.646l-0.393,0.046l-0.027,0.032c-0.08,0.092-0.088,0.226-0.068,0.32
		c0.02,0.095,0.065,0.165,0.131,0.197l0.024,0.012l0.027,0c0.624-0.026,1.134-0.042,1.749-0.042c0.58,0,1.066,0.016,1.665,0.042
		l0.028,0.001l0.023-0.013c0.104-0.05,0.129-0.185,0.136-0.241c0.015-0.124-0.019-0.231-0.087-0.288l-0.023-0.019l-0.324-0.046
		c-0.721-0.1-0.749-0.161-0.749-1.646V7.49c0-0.2,0-0.2,0.551-0.2c0.539,0,0.722,0.129,0.908,0.401
		c0.213,0.31,0.461,0.703,0.701,1.083c0.251,0.396,0.487,0.771,0.675,1.036c0.963,1.373,1.689,1.813,2.991,1.813
		c0.271,0,0.508-0.027,0.65-0.074L145.557,11.531L145.557,11.531z M141.33,6.311c-0.401,0.304-0.948,0.342-1.38,0.342
		c-0.634,0-0.829-0.023-0.886-0.041c-0.017-0.059-0.017-0.224-0.017-0.385V2.945c0-0.314,0-0.341,0.804-0.341
		c1.578,0,2.137,1.106,2.137,2.053C141.988,5.434,141.779,5.96,141.33,6.311L141.33,6.311z M134.08,9.475l0.006-0.034l-0.014-0.032
		c-0.061-0.135-0.209-0.195-0.33-0.195c-0.069,0-0.132,0.018-0.181,0.053l-0.034,0.04c-0.402,0.803-0.765,1.21-0.948,1.312
		c-0.302,0.151-0.726,0.199-1.747,0.199c-1.17,0-1.47-0.14-1.618-0.288c-0.199-0.212-0.238-0.669-0.238-1.386V7.168
		c0-0.272,0-0.272,0.355-0.272h0.813c0.49,0,0.856,0.011,1.054,0.067c0.195,0.049,0.295,0.175,0.357,0.453l0.125,0.546l0.021,0.044
		c0.053,0.064,0.151,0.102,0.264,0.102c0.128,0,0.232-0.048,0.278-0.129l0.015-0.025V7.925c0-0.137-0.011-0.318-0.023-0.521
		c-0.016-0.256-0.032-0.546-0.032-0.827c0-0.294,0.017-0.594,0.032-0.859c0.013-0.214,0.023-0.407,0.023-0.558V5.133l-0.015-0.025
		c-0.046-0.082-0.15-0.13-0.279-0.13c-0.111,0-0.21,0.038-0.263,0.101l-0.135,0.623c-0.063,0.321-0.142,0.369-0.265,0.409
		c-0.15,0.051-0.572,0.08-1.158,0.08h-0.813c-0.355,0-0.355,0-0.355-0.286V3.099c0-0.453,0-0.453,0.313-0.453h1.01
		c0.596,0,1.051,0.014,1.336,0.082c0.639,0.159,0.768,0.564,0.961,1.176l0.027,0.085l0.02,0.035c0.048,0.058,0.129,0.09,0.229,0.09
		c0.097,0,0.232-0.033,0.295-0.126l0.021-0.032l-0.02-0.207c-0.072-0.816-0.139-1.51-0.215-1.724l-0.033-0.092l-0.094,0.023
		c-0.156,0.039-1.026,0.039-1.867,0.039h-2.638c-0.541,0-1.003-0.012-1.649-0.042l-0.028-0.001l-0.024,0.013
		c-0.115,0.057-0.135,0.221-0.139,0.27c-0.008,0.123,0.027,0.22,0.098,0.268l0.271,0.044c0.717,0.085,0.76,0.179,0.76,1.661v5.05
		c0,1.52-0.087,1.586-0.771,1.646l-0.501,0.044l-0.027,0.029c-0.08,0.079-0.093,0.209-0.077,0.305
		c0.018,0.104,0.065,0.183,0.133,0.217l0.024,0.012l0.026,0c0.812-0.027,1.3-0.042,1.905-0.042h1.263
		c1.224,0,2.453,0.014,3.758,0.042l0.068,0.001l0.03-0.062C133.629,11.056,133.981,9.967,134.08,9.475L134.08,9.475z M124.457,2.489
		c0.075-0.078,0.088-0.21,0.076-0.302c-0.015-0.102-0.06-0.18-0.129-0.219l-0.027-0.016l-0.031,0.002
		c-0.471,0.029-0.901,0.042-1.355,0.042c-0.551,0-1.08-0.016-1.451-0.042l-0.032-0.003l-0.029,0.018
		c-0.077,0.043-0.13,0.136-0.141,0.248c-0.011,0.112,0.025,0.215,0.097,0.277l0.025,0.022l0.285,0.031
		c0.49,0.056,0.535,0.159,0.535,0.159c0,0.093-0.014,0.232-0.118,0.509c-0.241,0.61-0.91,2.217-1.303,3.138
		c-0.104,0.24-0.235,0.55-0.38,0.893c-0.266,0.631-0.59,1.398-0.865,2.002c-0.664-1.524-1.275-3.056-1.895-4.619
		c-0.411-1.007-0.647-1.74-0.691-1.922c0.021-0.044,0.144-0.105,0.563-0.16l0.241-0.032l0.025-0.021
		c0.07-0.061,0.107-0.164,0.097-0.276c-0.011-0.111-0.063-0.205-0.142-0.248l-0.027-0.017l-0.031,0.001
		c-0.625,0.03-1.115,0.042-1.693,0.042c-0.585,0-1.033-0.013-1.451-0.042l-0.035-0.003l-0.029,0.019
		c-0.081,0.051-0.135,0.145-0.143,0.253c-0.009,0.106,0.029,0.208,0.101,0.27l0.025,0.022l0.286,0.031
		c0.546,0.064,0.731,0.314,1.049,1.084l2.469,6.087c0.294,0.729,0.51,1.353,0.641,1.853l0.014,0.052l0.05,0.021
		c0.082,0.033,0.166,0.049,0.251,0.049c0.081,0,0.157-0.021,0.215-0.06l0.031-0.021l0.012-0.036c0.24-0.753,0.914-2.406,1.455-3.649
		l0.757-1.726c0.65-1.476,1.191-2.587,1.563-3.214c0.18-0.288,0.367-0.417,0.646-0.44l0.462-0.03L124.457,2.489L124.457,2.489z
		 M115.297,22.017c-2.559,1.986-4.242,5.185-4.242,8.922c0,4.343,2.088,7.406,4.781,9.258c2.457,1.649,5.353,2.256,8.383,2.256
		c2.154,0,4.579-0.505,5.318-0.774c0.371-0.135,0.775-0.27,1.18-0.337c0.504-0.64,1.379-2.861,1.615-4.612
		c-0.135-0.235-0.641-0.302-0.875-0.135c-0.774,1.988-2.693,4.814-7.037,4.814c-5.521,0-9.999-3.906-9.999-10.975
		c0-6.969,4.378-10.235,9.528-10.235c4.882,0,6.396,2.625,6.901,4.915c0.235,0.202,0.741,0.168,0.909-0.066
		c-0.27-2.054-0.438-4.175-0.472-4.949c-0.304,0.034-0.538-0.034-0.942-0.135c-1.582-0.437-4.141-0.808-5.959-0.808
		C120.886,19.155,117.754,20.098,115.297,22.017L115.297,22.017z M110.992,9.229V4.236c0-1.518,0.05-1.628,0.758-1.688l0.378-0.03
		l0.023-0.015c0.069-0.047,0.105-0.144,0.098-0.268c-0.003-0.049-0.022-0.213-0.139-0.27l-0.024-0.012l-0.027,0.001
		c-0.662,0.026-1.158,0.042-1.734,0.042c-0.604,0-1.085-0.015-1.764-0.042l-0.027-0.001l-0.023,0.012
		c-0.116,0.057-0.136,0.221-0.139,0.271c-0.008,0.123,0.027,0.221,0.098,0.267l0.023,0.015l0.378,0.03
		c0.708,0.06,0.757,0.17,0.757,1.688v4.994c0,1.51-0.035,1.589-0.761,1.675l-0.388,0.046l-0.025,0.027
		c-0.081,0.08-0.093,0.21-0.077,0.306c0.017,0.104,0.065,0.182,0.133,0.216l0.024,0.012l0.027,0
		c0.713-0.028,1.182-0.042,1.764-0.042c0.555,0,1.037,0.015,1.734,0.042l0.027,0l0.025-0.012c0.115-0.058,0.135-0.222,0.138-0.272
		c0.008-0.121-0.028-0.218-0.099-0.265l-0.396-0.059C111.028,10.819,110.992,10.74,110.992,9.229L110.992,9.229z M103.951,36.796
		V24.811c0-3.567,0.067-4.141,2.054-4.309l0.842-0.067c0.202-0.135,0.135-0.741-0.067-0.842c-1.683,0.067-2.828,0.101-4.175,0.101
		c-1.414,0-2.559-0.034-4.242-0.101c-0.202,0.101-0.269,0.707-0.067,0.842l0.841,0.067c1.986,0.168,2.054,0.741,2.054,4.309v11.985
		c0,3.569-0.068,4.04-2.054,4.276l-0.841,0.1c-0.202,0.203-0.135,0.742,0.067,0.843c1.683-0.067,2.828-0.101,4.242-0.101
		c1.347,0,2.492,0.033,4.175,0.101c0.202-0.101,0.27-0.708,0.067-0.843l-0.842-0.1C104.019,40.836,103.951,40.366,103.951,36.796
		L103.951,36.796z M105.688,2.489c0.067-0.068,0.102-0.179,0.089-0.288c-0.012-0.099-0.061-0.184-0.136-0.231l-0.029-0.019
		l-0.034,0.002c-0.461,0.027-0.826,0.042-1.439,0.042c-0.496,0-0.958-0.012-1.651-0.042h-0.021l-0.021,0.007
		c-0.081,0.031-0.139,0.106-0.158,0.21c-0.023,0.125,0.015,0.252,0.097,0.323l0.024,0.022l0.271,0.031
		c0.481,0.06,0.726,0.132,0.792,0.232c0.168,0.265,0.264,1.302,0.264,2.845v3.002c0,0.136,0,0.293-0.009,0.401
		c-0.486-0.502-0.995-1.072-1.627-1.781l-1.952-2.188C98.76,3.5,97.965,2.479,97.786,2.022l-0.032-0.08l-0.085,0.013
		c-0.168,0.025-0.397,0.041-0.629,0.041c-0.246,0-0.992,0-1.577-0.042l-0.03-0.002l-0.026,0.014
		c-0.074,0.037-0.126,0.114-0.142,0.212c-0.019,0.117,0.015,0.239,0.085,0.311l0.027,0.027l0.275,0.032
		c0.374,0.046,0.652,0.152,0.803,0.303c0.262,0.287,0.281,0.544,0.281,0.937v4.181c0,0.678,0.003,2.267-0.173,2.718
		c-0.033,0.072-0.152,0.168-0.531,0.219l-0.416,0.045l-0.027,0.028c-0.062,0.061-0.094,0.162-0.085,0.266
		c0.009,0.106,0.055,0.196,0.127,0.247l0.031,0.022l0.038-0.002c0.488-0.027,0.864-0.042,1.453-0.042
		c0.475,0,0.949,0.012,1.637,0.042l0.037,0.001l0.03-0.021c0.065-0.046,0.109-0.122,0.124-0.21c0.016-0.104-0.01-0.209-0.072-0.292
		l-0.028-0.038l-0.484-0.046c-0.337-0.028-0.572-0.106-0.631-0.214c-0.151-0.266-0.237-1.305-0.237-2.85V4.782
		c0-0.251,0.004-0.518,0.029-0.709c0.223,0.25,0.594,0.688,0.928,1.083c0.229,0.271,0.441,0.521,0.579,0.68l3.254,3.703
		c1.082,1.23,1.599,1.841,1.789,2.109l0.032,0.045h0.056c0.184,0,0.322-0.085,0.369-0.229l0.007-0.022l-0.002-0.023
		c-0.019-0.164-0.042-0.72-0.042-2.441l0-3.544c-0.002-0.718-0.007-2.213,0.199-2.651c0.018-0.035,0.186-0.155,0.705-0.237
		l0.232-0.033L105.688,2.489L105.688,2.489z M93.111,2.467c0.062-0.075,0.092-0.19,0.075-0.294c-0.015-0.088-0.061-0.16-0.129-0.203
		l-0.029-0.019l-0.034,0.002c-0.487,0.027-0.865,0.042-1.467,0.042c-0.538,0-1.059-0.013-1.593-0.042l-0.036-0.002l-0.03,0.02
		c-0.065,0.044-0.11,0.124-0.123,0.219c-0.014,0.105,0.012,0.207,0.072,0.279l0.029,0.033l0.395,0.03
		c0.322,0.026,0.541,0.112,0.616,0.242c0.163,0.288,0.253,1.3,0.253,2.85v1.614c0,1.653-0.468,3.623-2.698,3.623
		c-1.87,0-2.741-1.155-2.741-3.637v-3.03c0-1.491,0.048-1.6,0.743-1.661l0.364-0.029l0.024-0.016c0.07-0.046,0.105-0.142,0.097-0.26
		c-0.006-0.098-0.046-0.218-0.138-0.263l-0.024-0.012l-0.027,0.001c-0.665,0.027-1.137,0.042-1.721,0.042
		c-0.576,0-1.072-0.016-1.735-0.042l-0.027-0.001l-0.025,0.012c-0.092,0.045-0.132,0.166-0.138,0.262
		c-0.008,0.119,0.027,0.213,0.097,0.261l0.023,0.016l0.379,0.029c0.694,0.061,0.742,0.169,0.742,1.661v3.311
		c0,1.696,0.35,2.743,1.132,3.393c0.618,0.528,1.524,0.796,2.694,0.796c1.105,0,2.162-0.406,2.758-1.058
		c0.68-0.729,1.011-1.85,1.011-3.426V5.624c0-0.71,0-2.376,0.187-2.817c0.065-0.142,0.306-0.25,0.611-0.274l0.382-0.03L93.111,2.467
		L93.111,2.467z M76.985,20.435c0.202-0.135,0.135-0.741-0.067-0.842c-1.447,0.067-2.592,0.101-3.905,0.101
		c-1.447,0-2.592-0.067-4.242-0.101c-0.202,0.101-0.27,0.707-0.067,0.842l0.875,0.067c1.751,0.134,1.987,0.707,1.987,4.242v12.119
		c0,3.535-0.068,3.871-1.953,4.209l-0.572,0.1c-0.202,0.203-0.134,0.742,0.067,0.843c1.313-0.034,2.458-0.101,3.905-0.101
		c1.313,0,2.458,0.033,4.275,0.101c0.202-0.101,0.27-0.708,0.067-0.843l-0.976-0.1c-1.885-0.203-2.054-0.674-2.054-4.209v-4.748
		c0-1.009,0.067-1.076,1.684-1.076h9.628c1.616,0,1.684,0.067,1.684,1.076v4.748c0,3.535,0,3.871-2.054,4.209l-0.639,0.1
		c-0.202,0.203-0.135,0.742,0.067,0.843c1.482-0.067,2.694-0.101,4.074-0.101c1.313,0,2.458,0.033,4.074,0.101
		c0.202-0.101,0.269-0.708,0.067-0.843l-0.808-0.1c-1.953-0.236-2.02-0.674-2.02-4.209V24.745c0-3.535,0.066-4.041,2.02-4.242
		l0.707-0.067c0.202-0.135,0.135-0.741-0.067-0.842c-1.515,0.067-2.659,0.101-3.973,0.101c-1.38,0-2.525-0.034-4.074-0.101
		c-0.202,0.101-0.269,0.707-0.067,0.842l0.639,0.067c1.987,0.201,2.054,0.707,2.054,4.242v3.871c0,1.043-0.067,1.077-1.684,1.077
		h-9.628c-1.616,0-1.684-0.034-1.684-1.077v-3.871c0-3.535,0.067-4.041,2.02-4.242L76.985,20.435L76.985,20.435z M75.628,9.475
		l0.007-0.034L75.62,9.41c-0.061-0.135-0.209-0.195-0.33-0.195c-0.069,0-0.132,0.018-0.181,0.053l-0.034,0.04
		c-0.402,0.803-0.765,1.21-0.948,1.312c-0.302,0.151-0.727,0.199-1.748,0.199c-1.168,0-1.469-0.14-1.618-0.288
		c-0.199-0.212-0.238-0.669-0.238-1.386V7.168c0-0.272,0-0.272,0.355-0.272h0.814c0.49,0,0.856,0.011,1.053,0.067
		c0.195,0.049,0.295,0.177,0.356,0.453l0.126,0.546l0.022,0.044c0.053,0.064,0.151,0.102,0.263,0.102
		c0.128,0,0.232-0.048,0.278-0.129l0.015-0.025V7.925c0-0.137-0.011-0.318-0.023-0.521c-0.016-0.256-0.033-0.546-0.033-0.827
		c0-0.294,0.018-0.594,0.033-0.859c0.012-0.214,0.023-0.407,0.023-0.558V5.133l-0.014-0.025c-0.047-0.082-0.151-0.13-0.28-0.13
		c-0.112,0-0.209,0.038-0.262,0.102l-0.135,0.623c-0.063,0.32-0.142,0.369-0.265,0.409c-0.149,0.051-0.572,0.08-1.158,0.08h-0.814
		c-0.355,0-0.355,0-0.355-0.286V3.099c0-0.453,0-0.453,0.313-0.453h1.01c0.596,0,1.051,0.014,1.335,0.082
		c0.64,0.159,0.769,0.564,0.963,1.177l0.027,0.084l0.02,0.035c0.048,0.058,0.128,0.09,0.228,0.09c0.097,0,0.232-0.033,0.294-0.126
		l0.021-0.032l-0.019-0.208c-0.073-0.816-0.139-1.509-0.215-1.723l-0.032-0.092l-0.095,0.023c-0.156,0.039-1.026,0.039-1.868,0.039
		h-2.637c-0.54,0-1.002-0.012-1.65-0.042l-0.027-0.001l-0.025,0.013c-0.115,0.057-0.135,0.221-0.138,0.27
		c-0.008,0.123,0.027,0.22,0.097,0.268l0.272,0.044c0.718,0.085,0.761,0.179,0.761,1.661v5.05c0,1.52-0.087,1.586-0.772,1.646
		l-0.501,0.044l-0.027,0.029c-0.08,0.079-0.092,0.209-0.077,0.305c0.017,0.104,0.065,0.183,0.133,0.217l0.024,0.012l0.027,0
		c0.811-0.027,1.299-0.042,1.904-0.042h1.263c1.223,0,2.452,0.014,3.757,0.042l0.069,0.001l0.03-0.062
		C75.177,11.058,75.529,9.969,75.628,9.475L75.628,9.475z M63.903,9.258v-5.05c0-1.493,0.042-1.587,0.744-1.661l0.293-0.028
		l0.049-0.017c0.07-0.047,0.106-0.144,0.099-0.266c-0.003-0.05-0.022-0.215-0.137-0.272l-0.025-0.013l-0.028,0.001
		c-0.678,0.03-1.141,0.042-1.651,0.042c-0.608,0-1.099-0.016-1.692-0.042l-0.027-0.001l-0.024,0.013
		c-0.116,0.057-0.136,0.221-0.139,0.27c-0.008,0.124,0.027,0.22,0.097,0.268l0.316,0.044c0.716,0.074,0.759,0.168,0.759,1.661v1.613
		c0,0.341,0,0.341-0.593,0.341h-4.012c-0.594,0-0.594,0-0.594-0.341V4.208c0-1.493,0.042-1.587,0.745-1.661l0.267-0.028l0.049-0.017
		c0.07-0.047,0.105-0.144,0.097-0.267c-0.002-0.049-0.022-0.213-0.138-0.271l-0.025-0.013l-0.027,0.001
		c-0.639,0.03-1.109,0.042-1.623,0.042c-0.366,0-0.686-0.011-1.034-0.022c-0.225-0.007-0.462-0.015-0.73-0.02h-0.026l-0.023,0.011
		c-0.115,0.057-0.135,0.221-0.138,0.27c-0.009,0.123,0.026,0.22,0.097,0.268l0.023,0.015l0.394,0.03
		c0.618,0.048,0.728,0.175,0.728,1.661v5.05c0,1.46-0.027,1.523-0.724,1.647l-0.271,0.048l-0.024,0.024
		c-0.081,0.079-0.093,0.21-0.077,0.306c0.017,0.104,0.065,0.183,0.133,0.216l0.023,0.011h0.027c0.193-0.004,0.377-0.011,0.561-0.018
		c0.332-0.012,0.675-0.024,1.063-0.024c0.527,0,0.975,0.013,1.779,0.042l0.027,0l0.025-0.012c0.092-0.046,0.131-0.172,0.137-0.273
		c0.007-0.122-0.029-0.218-0.099-0.264l-0.455-0.059c-0.673-0.073-0.759-0.14-0.759-1.646V7.279c0-0.34,0-0.34,0.594-0.34h4.012
		c0.593,0,0.593,0,0.593,0.34v1.979c0,1.492-0.014,1.523-0.765,1.646l-0.301,0.047l-0.025,0.026c-0.08,0.08-0.092,0.21-0.076,0.306
		c0.017,0.104,0.065,0.182,0.133,0.216l0.025,0.012l0.027-0.001c0.672-0.03,1.162-0.042,1.692-0.042
		c0.552,0,1.039,0.015,1.693,0.042l0.027,0l0.025-0.012c0.116-0.057,0.135-0.222,0.138-0.271c0.008-0.123-0.027-0.219-0.098-0.266
		l-0.383-0.059C63.938,10.819,63.903,10.741,63.903,9.258L63.903,9.258z M52.369,1.781l0.011-0.041l-0.019-0.038
		c-0.054-0.105-0.21-0.114-0.257-0.114c-0.035,0-0.086,0.004-0.131,0.022l-0.035,0.014l-0.019,0.032
		c-0.181,0.313-0.255,0.338-1,0.338h-5.799c-0.628,0-0.909-0.033-0.969-0.347l-0.006-0.033l-0.024-0.023
		c-0.039-0.04-0.102-0.059-0.194-0.059c-0.033,0-0.147,0.003-0.209,0.045L43.68,1.604L43.672,1.65
		c-0.098,0.558-0.306,1.445-0.528,2.073l-0.016,0.042l0.021,0.041c0.084,0.169,0.372,0.251,0.526,0.136l0.022-0.017L43.708,3.9
		c0.142-0.324,0.277-0.63,0.605-0.933c0.309-0.284,1.009-0.322,1.653-0.322h0.771c0.313,0,0.313,0,0.313,0.34v6.272
		c0,1.52-0.087,1.586-0.771,1.646l-0.505,0.042l-0.048,0.015c-0.083,0.052-0.13,0.156-0.125,0.28
		c0.004,0.095,0.042,0.212,0.133,0.259l0.024,0.012l0.027,0c0.859-0.026,1.378-0.042,1.946-0.042c0.548,0,1.001,0.013,1.835,0.042
		l0.027,0L49.62,11.5c0.092-0.046,0.131-0.171,0.137-0.273c0.007-0.121-0.029-0.217-0.099-0.264l-0.499-0.059
		c-0.702-0.061-0.744-0.153-0.744-1.646V2.971c0-0.143,0-0.279,0.023-0.302c0.024-0.023,0.176-0.023,0.276-0.023h0.996
		c0.751,0,1.263,0.107,1.563,0.33c0.133,0.098,0.249,0.453,0.308,0.95l0.004,0.032l0.02,0.024c0.052,0.063,0.147,0.101,0.255,0.101
		c0.133,0,0.244-0.058,0.29-0.15l0.014-0.027l-0.003-0.031C52.121,3.47,52.219,2.34,52.369,1.781L52.369,1.781z M42.814,30.939
		c0,4.343,2.087,7.406,4.781,9.258c2.457,1.649,5.353,2.256,8.382,2.256c2.155,0,4.579-0.505,5.319-0.774
		c0.37-0.135,0.774-0.27,1.178-0.337c0.505-0.64,1.38-2.861,1.616-4.612c-0.135-0.235-0.64-0.302-0.875-0.135
		c-0.774,1.988-2.693,4.814-7.036,4.814c-5.521,0-9.999-3.906-9.999-10.975c0-6.969,4.377-10.235,9.527-10.235
		c4.882,0,6.397,2.625,6.902,4.915c0.235,0.202,0.74,0.168,0.908-0.066c-0.269-2.054-0.438-4.175-0.471-4.949
		c-0.304,0.034-0.539-0.034-0.943-0.135c-1.583-0.437-4.141-0.808-5.959-0.808c-3.501,0-6.632,0.943-9.089,2.861
		C44.497,24.002,42.814,27.202,42.814,30.939L42.814,30.939z M34.059,25.258L34.058,1.807C15.219-0.009,1,1.807,1,1.807
		s0,23.449,0,23.455C2.501,41.159,17.39,43.027,17.531,43C20.19,42.52,32.673,40.011,34.059,25.258L34.059,25.258z M6.308,31.112
		c0.301,0.203,0.655,0.294,0.98,0.433c0.403,1.053,0.01,2.087-0.216,1.657C6.676,32.45,6.52,31.825,6.308,31.112L6.308,31.112z
		 M6.327,19.585l-0.024-0.025c-0.03,0-2.093,1.302-3.433,0.677c0.999-0.551,4.457-2.75,5.403-3.374
		c0.447,0.097,0.627-0.065,0.77-0.165c-0.361,0.022-1.56,0.21-0.954-0.863c0.233,0.962,1.914,0.077,2.517-0.062
		c1.682-0.387,1.669,1.41,1.526,2.153c-0.054,0.277,0.515,0.473,0.795,0.434c-0.482,1.188-1.305,0.068-1.402,0.521
		c-0.04,0.184-0.591,0.327-0.589,0.783c0.003,0.624,0.247,0.283,0.27,0.767c0.025,0.467-0.2,0.103-0.149,0.609
		c0.081,0.803,1.411-0.107,1.959,0.11c0.275,0.11,0.457,0.355,0.726,0.307c0.078-0.064,0.042-0.369,0.03-0.477
		c-0.028-0.256-0.5-0.285-0.72-0.634c-0.192-0.303,0.217-1.218,0.438-1.487c0.317,1.509,1.731,1.036,1.943,2.624
		c0.133,0.448-0.486,0.947,0.016,1.678c-0.373,0.361-0.822,2.081-0.041,2.888c-0.133,0.366-0.307,1.208,0.388,1.701
		c-0.233,0.497-0.18,1.106,0.017,1.727c-0.433,0.002-0.346-2.428-2.94-2.505c-0.058-0.02-0.072,0.275,0.002,0.406
		c0.311,0.546,0.728,0.515,0.639,1.8c-0.03,0.44-0.289-0.077-0.426-0.198c-0.314-0.277-0.557-0.314-0.694-1.219
		c-1.054,0.826-0.951,1.827-0.885,2.335c0,0.001-0.232-0.634-0.499-1.285c-0.014-0.034,1.071-1.34,1.244-1.649
		c2.188-3.94-1.414,1.273-1.421,1.256c-0.194-0.449-0.364-0.836-0.478-0.959c0.028-0.055,0.629-0.725,0.9-1.291
		c1.693-3.524-1.006,1.174-1.102,1.088c-0.204-0.184-0.373-0.413-0.502-0.33c-0.03,0.541-0.16,0.468-0.122,1.02
		c-0.283,0.377-0.888,0.969-1.311,1.262c0,0-0.106-0.978-0.078-1.013c0.213-0.259,1.046-1.15,1.216-1.418
		c2.774-4.357-1.299,1.051-1.307,1.005c-0.028-0.174-0.252-0.459-0.489-0.699c0,0,0.899-1.228,1.121-1.684
		c1.688-3.47-1.357,1.538-1.391,1.521c-0.073-0.038-0.081-0.038-0.166-0.066s0.093-1,0.21-1.583
		c0.229-1.157-0.384-0.226-0.551,1.606c-0.156,0.024-0.537,0.064-0.68,0.194c0.093,0.49,0.208,0.113,0.414,0.584
		c0.246,0.562-0.342,1.484,0.169,2.16c0.198,0.262,0.209,0.219,0.17,0.389c-0.314-0.021-0.505-0.029-0.704,0.243
		c-0.386-1.755-0.375-2.601-0.284-4.385c0.04-0.811,0.306-2.038,0.185-2.061c-0.116-0.022-1.954,4.712-2.397,5.64
		c-0.775-0.262,0.483-4.359,2.081-6.331c0.15-0.627-0.838,0.637-1.428,1.14c-0.542,0.462-1.227,1.063-1.973,0.857
		c0.959-1.016,3.157-2.911,3.401-3.386c0.205-0.406-1.5,1.265-3.301,0.644C3.603,21.94,6.322,20.553,6.327,19.585L6.327,19.585z
		 M9.569,28.489c0.007,0.432-0.023,0.752,0.102,1.19c0.204,0.661,0.102,0.457-0.176,0.229c-0.221-0.245-0.428-0.447-0.534-0.734
		C8.935,28.97,9.099,28.959,9.569,28.489L9.569,28.489z M13.921,17.821c-0.263-0.448,0.313-0.875,0.313-0.875
		c-0.017,1.26,1.593,0.395,2.434,0.795c0.202,0.093,0.344,0.271,0.427,0.458C16.191,17.574,14.521,18.844,13.921,17.821
		L13.921,17.821z M4.45,7.758c-1.437,0-1.407-2.155,0-2.155C5.864,5.603,5.864,7.758,4.45,7.758L4.45,7.758z M4.45,12.062
		c-1.47,0-1.47-2.154,0-2.154C5.864,9.908,5.873,12.062,4.45,12.062L4.45,12.062z M7.177,7.414H5.924V6.18h1.253V7.414L7.177,7.414z
		 M7.177,11.707H5.924v-1.232h1.253V11.707L7.177,11.707z M17.3,13.83c0,0-1.311-0.711-2.851-0.814
		c-1.488-0.099-4.495,1.091-6.804,0.934V3.804c0,0,2.633,0.35,3.714-0.067c3.677-1.418,5.94,0.166,5.94,0.166V13.83L17.3,13.83z
		 M19.84,15.476c0.064,0.383-0.292,0.48-0.29,0.479c0.552,0.129,0.816-0.2,0.923-0.406c0.213,0.881-0.676,0.931-0.953,0.984
		c0,0,0.45,0.129,0.474,0.423c0.059,0.745,0.538,0.682,0.642,0.623c-0.017,0.09-0.165,0.541-0.704,0.133
		c-0.091,0.091,0.147,0.23,0.194,0.6c0.061,0.469,0.046,0.903,0.586,1.188c-0.332,0.263-0.722-0.422-0.755-0.341
		c-0.039,0.092,0.46,0.343-0.089,1.638c-0.25-0.145-0.111-0.117-0.401-0.462c-0.223-0.186-0.31-0.229-0.125,0.079
		c0.324,0.405,0.4,1.33,0.289,1.58c-0.267-0.116-0.198-0.33-0.513-0.62c-0.029,0.124,0.097,0.737,0.422,1.031
		c0.562,0.507,0.761,1.121,0.771,1.241c0.045,0.462-0.101,1.069-0.155,1.663c-0.27-0.039-0.499-0.805-0.564-0.76
		c-0.08,0.051,0.034,0.748,0.542,1.223c0.246,0.721,0.148,1.107,0.082,1.133c-0.087,0.037-0.361-0.736-0.51-0.602
		c0.724,1.842,0.218,2.484,0.026,3.051c-0.15-0.582-0.226-1.017-0.413-1.675c-0.395,0.31-0.489,0.769-0.972,1.188
		c0-0.75-0.434-2.564-0.778-2.987c-0.016-0.019-0.622,1.626-0.898,2.358c-0.358,0.947-0.414,2.133,0,3.058
		c-0.894-1.272-0.99-3.639-0.218-3.958c0.066-0.169-0.047-0.726-0.219-0.656c-0.049,0.271-0.016,0.504-0.242,0.77
		c-0.592-0.173-0.323-0.895-0.269-1.135c0.768-0.921,0.288-1.134,0.252-1.109c-0.083,0.211-0.156,0.47-0.39,0.564
		c-0.493-0.846-0.177-2.175,0.759-3.167c0.04-0.37-0.418,0.276-0.717,0.254c-0.077-0.714,0.182-1.954,1.503-2
		c-0.252-0.073-0.388-0.12-0.449-0.33c0.399-0.06,1.652-0.155,1.445-1.144c-0.119,0.119-0.157,0.297-0.483,0.495
		c-0.22,0.134-0.459,0.146-0.583-0.048c0.581-0.192,0.389-0.898-0.369-0.69c-0.232,0.063-0.573-0.179-0.589-0.449
		c0.169,0.169,0.511,0.044,0.709-0.084c0.854-0.555,1.375,0.249,1.49,0.421c0.034,0,0.383-0.802-0.829-1.018
		c-0.101-0.283-0.378-0.782-1.201-0.719c-0.271-0.957-1.091-0.485-1.064-0.052c-0.872-0.642,0.015-1.451,0.367-1.577
		c0.244,0.02,0.19,0.792,0.619,0.664c0.104-0.032-0.333-0.533-0.166-0.76c0.394-0.225,0.384,0.288,0.578,0.097
		c0.096-0.335,0.481-0.522,0.799-0.559C18.293,14.979,18.986,15.955,19.84,15.476L19.84,15.476z M27.854,13.985
		c-1.934,0.132-5.947-0.969-6.967-0.969c-2.105,0-3.124,0.822-3.124,0.822s0.003-9.556,0-9.899c0,0,2.766-1.297,4.778-0.555
		c2.465,0.91,5.312,0.507,5.312,0.507V13.985L27.854,13.985z M30.402,10.082c1.066-0.157,1.227,1.102,1.227,1.102h-0.002
		c-0.263-0.208-0.79-0.303-1.147-0.073c-1.191,0.768-2.264,0.775-2.264,0.775V9.965C28.215,9.965,28.441,10.367,30.402,10.082
		L30.402,10.082z M31.664,7.45c-0.008-0.056-0.02-0.144-0.037-0.268C31.6,6.99,31.048,6.879,30.658,7.049
		c-0.545,0.238-1.911,1.018-2.409,0.871V5.998c1.229,0.534,1.709,0.052,2.104,0.052c1.214,0,1.275,1.132,1.275,1.132
		C31.645,7.306,31.656,7.394,31.664,7.45L31.664,7.45z M30.29,27.368c-0.359,0.093-1.307,0.471-1.535,0.844
		c0.121-2.049-0.54-4.061-0.751-4.547c-0.41-0.945,0.184,2.203,0.225,2.929c0.001,0.032-3.399-4.37-1.346-0.979
		c0.531,0.879,1.363,1.453,1.363,1.469c0.014,0.609-0.027,1.059-0.143,1.387c-0.209,0.168-4.63-5.882-2.186-1.692
		c0.303,0.52,2.075,2.092,2.061,2.124c-0.112,0.238-0.312,0.586-0.586,0.842c-0.046-0.046-1.02-0.764-1.027-0.808
		c-0.073-0.468-0.076-0.908-0.654-0.579c0,0-2.178-2.535-1.169-0.758c0.441,0.777,0.73,0.863,0.848,1.002
		c0,0-0.338,0.457-0.446,0.944c-0.044,0.194-1.888-2.046-1.165-0.639c0.232,0.45,1.075,0.942,1.066,0.975
		c-0.086,0.294-0.174,0.577-0.266,0.762c-0.116,0.233-1.736,1.524-1.733,1.522c0,0,0.316-1.021,1.005-1.522
		c0.393-0.288,0.394-0.225,0.654-0.388c-0.005-0.151-0.15-0.398-0.339-0.463c-0.236-0.084-1.003,0.056-1.003,0.056
		c0.072-0.384-0.264-1.21-0.259-2.119c-0.289,0.028-0.795,0.474-0.917,0.728c-0.089,1.507-0.417,1.056-0.722,2.139
		c-0.333-0.454,0.023-1.107-0.303-1.532c-0.449-0.584-0.517-0.979-0.583-1.7c0.105-0.058,0.563-0.562,0.146-1.627
		c-0.068-1.668,0.678-2.307-0.656-3.474c0.112-0.037,0.192-0.873,0.192-0.874c0.983,0.524,0.788-0.606,1.171-0.829
		c0.607-0.352,0.497-0.718,0.225-1.173c1.738,0.494-0.079,1.682,0.708,1.708c0.57,0.018,0.953-0.127,1.201-0.511
		c0.264-0.405-0.046-0.654,0.691-1.312c0.074-0.066,0.269-0.504-0.315-0.625c-0.128-0.027,0.001-0.527,0.001-0.527
		c-0.469,0.396-0.616,0.955-1.368,0.601c-0.385-0.181-0.635-0.002-0.793,0.073c0,0-0.08-0.314,0.239-0.421
		c0.824-0.276,1.027-0.605,0.982-0.785c-0.111-0.427-0.145,0-0.121-0.451c0.01-0.179,0.218-0.422,0.391-0.63
		c0.559-0.674,0.954-0.421,1.096-0.362c0.325-0.251,0.382-0.233,0.684-0.353c0.517-0.203,1.638,0.134,2.264,0.425
		c0.304,0.137,0.667,0.219,1.021,0.143c-0.004,0.182-0.132,0.28-0.259,0.317c-0.195,0.062-0.428,0-0.413,0.144
		c0.009,0.084,0.277,0.097,0.444,0.144c0.928,0.253,2.13,1.084,1.341,0.909c-0.093-0.02,0.569,0.496,1.068,1.166l1.77,1.719
		c-0.082,0.097-0.702,0.009-2.667-1.833c-0.279,0.25,2.391,2.262,3.493,4.398c-0.095,0.066-1.469-0.434-1.964-0.945
		c-0.763-0.789-1.64-2.796-2.001-2.503c-0.043,0.017,1.451,2.344,2.19,3.724c0.373,0.697,0.679,1.698,0.705,2.452
		c0.118,3.718-0.441,3.431-0.441,3.433c-0.871-2.93-1.278-6.332-2.549-7.901C28.345,20.954,30.21,24.328,30.29,27.368L30.29,27.368z
		 M26.439,30.709c-0.393,0.344-0.649,0.468-0.563,0.295c0.095-0.189,0.166-0.352,0.22-0.494
		C26.114,30.462,26.439,30.709,26.439,30.709L26.439,30.709z M26.182,30.249c0.087-0.313,0.087-0.529,0.128-0.804
		c0.018-0.118,0.021-0.104,0.026-0.204c0.001-0.033,0.851,0.708,0.898,0.737c-0.213,0.268-0.396,0.362-0.599,0.554
		C26.492,30.407,26.174,30.278,26.182,30.249L26.182,30.249z M28.941,31.193c-1.18,1.165-2.95,0.743-4.344,1.368
		c-1.264,0.461-2.179,1.629-3.504,1.924c-0.39,0.126-0.454,0.32-0.206,0.314c0.146-0.004,0.953,0.838,2.246,0.189
		c0.431-0.218,1.771-0.965,1.998-1.008c-0.725,0.691-1.089,1.309-1.738,1.674c-0.396,0.223-2.013,0.801-3.625,0.488
		c-0.714-0.139-1.264,0.52-1.083,0.504c0.383-0.102,0.812-0.049,1.069,0.288c0.468,0.366,1.146,0.823,1.729,0.143
		c0.193-0.226,1.119-0.706,1.989,0.177c-0.925-0.049-0.833,1.615-2.587,1.42c-0.649-0.004-2.083-1.488-2.491-1.03
		c-0.725,0.815,1.557,1.588,0.568,2.612c-0.892,0.924-1.958-0.737-1.958-0.737c0.557,0.233,1.584,0.384,1.132-0.521
		c-0.18-0.359-0.521-0.684-0.521-1.348c-0.078-0.331-2.121,2.631-3.472,1.292c-0.531-0.525-1.606-1.679-2.58-2.118
		c2.579-0.219,2.973,0.813,3.096,0.979c0.825,1.113,1.587-0.017,1.763-0.216c0.269-0.307,0.649-0.727,0.514-0.789
		c-1-0.477-2.143-0.576-2.997-0.184c1.828-2.514,3.25-0.16,3.25-0.16c0.2,0.123-0.051-1.49-1.859-1.58
		c-1.129-0.056-2.123,0.961-2.901,0.959c-0.633,0-2.553-1.297-3.004-2.448c1.117,0.835,2.541,1.315,3.429,0.786
		c1.669-0.995,3.771,0.505,3.872,0.326c-0.466-0.365-1.528-1.789-4.395-0.978c-1.112,0.638-1.581-0.474-2.264-0.492
		c1.162-1.03,1.967-0.507,2.373-0.476c0.097,0-0.484-0.478-0.892-0.52c-3.167-0.33-5.173-1.201-5.173-1.201
		c-0.017,0,0.264-0.639,1.625-0.178c0,0-1.221-0.748-1.211-1.709c0.04-0.592,0.326-1.227-0.127-1.72
		c1.838-0.075,0.533,2.489,1.823,3.149c0.027,0.011-0.38-0.612,0.194-1.096c0.267,0.754,0.923,1.143,1.384,1.265
		c0.108-0.06,0.243-0.291,0.243-0.29c-0.486-0.803-0.55-1.739-0.419-2.812l0.02-0.011c0.104,0.005,0.281,0.369,0.405,0.637
		c0.268,0.575,0.262,1.405,0.796,2.09c0.295,0.375,0.479,0.752,0.744,0.934c0.115-0.266,0.03-0.725,0.012-0.847
		c-0.061-0.436-0.333-1.198,0.411-1.872c0.348,1.005,0.821,0.713,0.886,1.195c0.088,0.676,0.059,0.568-0.01,1.086
		c0.036,0.715,0.685,0.916,1.261,1.372c1.299,0.708,2.162,1.09,2.727,1.995c0.276-1.527-3.848-1.834-3.316-4.781
		c-0.055-1.178,0.147-1.275-0.688-1.995c1.655,0.048,2.556,2.765,2.646,3.261c0.166,0.91,0.719,0.957,1.478,2.146
		c0.109,0.04-1.358-3.165,0.391-5.908c0,0,0.59,1.425,0.312,2.359c-0.167,0.563-0.012,1.187,0.02,1.539
		c0.032,0.36-0.072-1.301,1.177-2.159c0.078,0.628,0.68,1.602,0.109,2.644c-0.693,1.269-0.744,0.812-0.755,2.374
		c0.063-0.027,0.243-1.076,0.719-1.672c1.006-1.258,0.288-1.935,1.27-3.025c0.078,0.547,0.217,0.33,0.275,0.816
		c0.132,1.089-1.006,2.281-0.754,2.246c0.29-0.043,0.754-0.295,0.91-1.121c0,0,0.419,0.754,0.036,1.006
		c-0.694,0.456-0.839,0.946-0.731,1.498c0.557-0.665,1.318-1.402,1.186-2.348c0.063-0.572,0.683-0.804,0.806-2.132
		c0.021-0.22,0.24-0.487,0.46-0.604c-0.096,0.746,0.483,1.518-0.175,2.43c0.15,0.08,0.707-0.712,1.521-0.423
		c-1.635,0.294-1.158,2.065-2.41,2.885c-0.377,0.247-0.313,0.526-0.426,0.557c1.118-0.063,1.98-1.396,2.129-1.497
		c1.124-0.76,1.37-0.877,1.819-2.109c0.176-0.468,0.048-0.674,0.671-1.307c0.273,0.623-0.124,1.914-0.218,2.194
		c-0.201,0.594-0.908,1.108-0.758,1.108c3.013-1.33,2.975-2.223,3.695-3.175c0.217-0.364,1.289-0.995,1.689-1.054
		c-0.098,0.198-0.515,0.532-0.534,0.893c-0.037,0.666-0.251,1.072-0.588,1.607c0.188,0.231,0.547-0.439,0.915-0.103
		C29.535,30.333,29.318,30.874,28.941,31.193L28.941,31.193z M29.444,31.016c-0.179,0.878-0.482,1.691-1.011,2.447
		c-0.37,0.537-0.52-0.506-0.201-1.514C28.685,31.768,29.137,31.418,29.444,31.016L29.444,31.016z M27.149,8.746
		c-0.07-0.026-0.216-0.053-0.309-0.053c-0.092,0-0.142,0.131-0.027,0.162c0.073,0.02,0.21,0.045,0.341,0.051
		C27.244,8.914,27.215,8.773,27.149,8.746L27.149,8.746z M26.807,9.167c0.072,0.021,0.205,0.041,0.339,0.051
		c0.085,0.01,0.058-0.131-0.008-0.158c-0.066-0.024-0.212-0.052-0.303-0.053C26.738,9.007,26.692,9.133,26.807,9.167L26.807,9.167z
		 M26.807,11.086c-0.066-0.078-0.246-0.227-0.407-0.341c-0.092,0.076-0.283,0.215-0.404,0.277c-0.09-0.102-0.21-0.242-0.393-0.385
		c-0.11,0.075-0.427,0.365-0.561,0.441c0.193,0.004,0.481,0.069,0.492,0.248c0.007,0.146-0.011,1.053,0,1.219
		c0.118,0.026,0.258,0.014,0.43,0.004c0.008-0.128,0.005-1.175,0.008-1.303c0.058-0.031,0.125-0.065,0.159-0.094
		c0.067,0.049,0.269,0.282,0.386,0.344c0.08-0.061,0.29-0.245,0.382-0.332C26.997,11.07,26.892,11.009,26.807,11.086L26.807,11.086z
		 M26.277,9.561c0.11-0.199,0.272-0.521,0.261-0.767c-0.014-0.302-0.199-0.75-0.642-0.896c-0.561,0.199-0.908,0.642-0.923,1.165
		c-0.01,0.307,0.25,0.938,0.789,0.941C25.928,9.845,26.103,9.676,26.277,9.561L26.277,9.561z M25.937,9.68
		c-0.104-0.05-0.482-0.343-0.569-0.567c-0.113-0.302-0.113-0.635,0.208-0.831c0.25,0.092,0.543,0.339,0.569,0.565
		C26.18,9.142,26.095,9.489,25.937,9.68L25.937,9.68z M25.922,7.348l0.403-0.442c0,0-0.179-0.14-0.286-0.271
		c0-0.092,0-0.975,0.039-1.021c-0.303-0.271-0.524-0.306-0.655-0.288c-0.245,0.037-0.497,0.353-0.577,0.458
		c-0.058,0.083-0.043,0.188,0,0.227c0.049,0.04,0.112,0.08,0.179,0.12c-0.011-0.006-0.022-0.014-0.033-0.019
		c-0.115,0.108-0.282,0.42-0.277,0.631c0.002,0.212,0.193,0.521,0.322,0.636c0.142-0.11,0.353-0.294,0.661-0.354
		C25.733,7.173,25.805,7.262,25.922,7.348L25.922,7.348z M25.68,6.33c-0.198-0.071-0.59-0.255-0.732-0.373
		c-0.038-0.029-0.041-0.047,0.005-0.12c0.09-0.135,0.193-0.252,0.265-0.246c0.062,0,0.46,0.213,0.448,0.325
		C25.679,5.994,25.681,6.162,25.68,6.33L25.68,6.33z M25.683,6.927c-0.104,0.005-0.194,0.033-0.326,0.096
		c-0.108-0.088-0.39-0.429-0.182-0.809c-0.029-0.018-0.059-0.033-0.086-0.05c0.191,0.107,0.415,0.201,0.591,0.258
		c-0.001,0.15-0.006,0.288-0.006,0.336C25.672,6.824,25.677,6.876,25.683,6.927L25.683,6.927z M24.523,5.114
		c-0.095,0-0.732,0.013-0.749-0.023c-0.047-0.137-0.059-0.303,0.051-0.533c0.054-0.115-0.051-0.164-0.092-0.048
		c-0.041,0.113-0.359,0.555-0.691,0.696c-0.171,0.067,0.208,0.224,0.182,0.217c-0.002,0.425,0.059,1.062,0.15,1.317
		c0.056,0.152,0.229,0.4,0.347,0.325c0.077-0.049,0.244-0.38,0.296-0.422c0.092-0.075,0.002-0.202-0.075-0.125
		c-0.085,0.074-0.158-0.042-0.181-0.119c-0.028-0.076-0.106-1.01-0.067-1.029c0,0,0.753-0.091,0.829-0.091
		C24.575,5.279,24.577,5.114,24.523,5.114L24.523,5.114z M22.453,6.836l0.312-0.405c-0.227-0.039-0.319-0.081-0.478-0.261
		l0.007-1.005l-0.318-0.317l-0.109,0.012l-0.499,0.438c-0.051,0.076,0.083,0.076,0.149-0.015l0.362,0.208l0.016,0.972
		c0.028,0.116,0.124,0.229,0.268,0.373H22.453L22.453,6.836z M22.183,4.606l0.175-0.152V4.21l-0.236-0.229l-0.234,0.199l0.006,0.282
		l0.145,0.144H22.183L22.183,4.606z M21.384,4.296c-0.134-0.015-0.576,0.021-0.735,0.046c-0.16,0.024-0.16,0.102-0.027,0.118
		c0.133,0.014,0.158,0.042,0.228,0.221c0.063,0.179-0.255,0.993-0.335,1.184c-0.093-0.14-0.432-0.884-0.432-0.985
		c0-0.072,0.149-0.145,0.214-0.161c0.125-0.04,0.123-0.125,0.028-0.144c-0.265-0.038-1.198-0.119-1.362-0.14
		c-0.119-0.01-0.173,0.128-0.029,0.128c0.149,0.004,0.305-0.041,0.468,0.199c0.188,0.271,0.78,1.542,0.921,2.075
		c0.069-0.112,0.659-1.822,0.693-2.003c0.042-0.177,0.167-0.35,0.34-0.402C21.533,4.385,21.517,4.308,21.384,4.296L21.384,4.296z
		 M18.586,8.43c0.008,0.712,0.291,0.771,0.614,0.958c0.306,0.174,0.821,0.14,1.207,0.038c0.146-0.043,0.226-0.052,0.221,0.074
		c0,0.079,0.111,0.062,0.111,0.003s0.005-0.655,0.005-0.721c0-0.074-0.108-0.063-0.108,0c0,0.1,0,0.13-0.098,0.271
		c-0.266,0.393-0.93,0.376-1.286-0.104C19.13,8.786,19.02,8.567,19.16,8.527c0.14-0.044,0.567,0.045,0.851,0.068
		c0.169,0.011,0.56,0.051,0.609,0.08c0.043,0.032,0.109,0.073,0.109-0.012c0.004-0.084,0.004-0.358,0.004-0.442
		c0-0.081-0.064-0.043-0.112-0.014c-0.048,0.034-0.465,0.103-0.632,0.133c-0.167,0.031-0.684,0.073-0.82,0.026
		C19.03,8.32,19.076,8.041,19.2,7.881c0.36-0.477,1.087-0.443,1.351-0.047c0.09,0.138,0.09,0.17,0.09,0.274
		c0,0.062,0.104,0.069,0.104,0c0.006-0.068,0.009-0.788,0.009-0.845c0-0.056-0.105-0.076-0.105,0c0,0.053-0.116,0.083-0.229,0.053
		c-0.226-0.071-0.884,0.03-1.178,0.191C18.981,7.656,18.581,7.999,18.586,8.43L18.586,8.43z M18.712,9.692
		c0.008,0.202,0.082,1.942,0.06,2.183c-0.014,0.138,0.171,0.284,0.34,0.399c0.083-0.1,0.261-0.359,0.409-0.469
		c0.087-0.072,0.027-0.118-0.041-0.091c-0.133,0.062-0.267,0.013-0.28-0.141c-0.012-0.154-0.012-1.651,0-1.867
		C19.097,9.707,18.808,9.701,18.712,9.692L18.712,9.692z M20.146,11.114c-0.115,0.109-0.321,0.393-0.317,0.601
		c0.003,0.212,0.106,0.418,0.229,0.533c0.211-0.147,0.343-0.35,0.694-0.485c0.043,0.163,0.159,0.188,0.296,0.292
		c0.082-0.09,0.38-0.456,0.446-0.52c0.066-0.063,0.028-0.128-0.066-0.063c-0.094,0.063-0.159,0.024-0.316-0.145
		c0.006-0.092-0.011-0.84,0.026-0.881c-0.144-0.154-0.275-0.364-0.444-0.348c-0.246,0.02-0.559,0.449-0.636,0.56
		c-0.062,0.081,0.003,0.388,0.049,0.426C20.125,11.099,20.132,11.101,20.146,11.114L20.146,11.114z M20.318,11.239
		c0.137,0.077,0.207,0.029,0.419,0.007c-0.001,0.134-0.004,0.254-0.005,0.319c-0.094,0.067-0.209,0.126-0.342,0.191
		C20.285,11.669,20.131,11.595,20.318,11.239L20.318,11.239z M20.206,10.622c0.09-0.137,0.146-0.163,0.218-0.163
		c0.064,0.003,0.314,0.175,0.301,0.291c0.013,0.075,0.016,0.231,0.015,0.392c-0.187,0.022-0.318,0.044-0.528-0.133
		C20.172,10.978,20.162,10.693,20.206,10.622L20.206,10.622z M21.712,10.346c-0.159,0.079,0.213,0.227,0.188,0.22
		c-0.005,0.42-0.09,1.109,0.055,1.328c0.089,0.134,0.293,0.221,0.429,0.169c0.131-0.052,0.298-0.314,0.348-0.357
		c0.097-0.072,0.014-0.15-0.067-0.075c-0.08,0.075-0.298,0.021-0.327-0.054c-0.022-0.08-0.05-0.998-0.012-1.017
		c0,0,0.262-0.006,0.332-0.003c0.055,0,0.059-0.167,0.005-0.167c-0.095-0.001-0.307-0.021-0.319-0.059
		c-0.031-0.086,0.007-0.366,0.062-0.48c0.056-0.115-0.051-0.165-0.093-0.053C22.268,9.918,21.993,10.208,21.712,10.346
		L21.712,10.346z M21.789,8.434c0.016,0.397-0.191,0.816-0.417,1.005c0.39-0.101,0.441-0.333,0.654-0.608
		c0.118,0.176,0.337,0.386,0.497,0.477c0.113-0.075,0.431-0.434,0.501-0.507c-0.23-0.062-0.674-0.296-0.785-0.544
		c-0.087-0.184-0.066-0.271,0.021-0.416c0.077,0.102,0.617,0.351,0.86-0.064c-0.266-0.097-0.504-0.27-0.585-0.412
		c-0.071,0.06-0.309,0.318-0.442,0.4c-0.031-0.143-0.249-0.296-0.426-0.328c-0.058,0.061-0.474,0.379-0.664,0.471
		c-0.059,0.029-0.037,0.156,0.046,0.124c0.077-0.034,0.206-0.131,0.354-0.202C21.576,7.898,21.771,8.073,21.789,8.434L21.789,8.434z
		 M23.655,8.498c0.048-0.241,0.217-0.341,0.295-0.413c0.11,0.122,0.221,0.26,0.386,0.26c0.162,0.001,0.33-0.074,0.382-0.141
		c-0.134-0.107-0.438-0.428-0.499-0.488c-0.154,0.085-0.823,0.433-0.879,0.833c-0.082,0.591,0.105,0.708,0.365,1.034
		c0.146,0.185,0.391,0.193,0.501,0.164c0.12-0.083,0.558-0.498,0.606-0.551c0.044-0.051-0.019-0.098-0.074-0.045
		c-0.055,0.049-0.033,0.072-0.105,0.083c-0.074,0.011-0.372,0.061-0.545-0.028C23.872,9.092,23.59,8.825,23.655,8.498L23.655,8.498z
		 M23.328,10.385c-0.099,0.1-0.271,0.215-0.433,0.396c0.134,0.009,0.245,0.038,0.309,0.165c0.066,0.127,0.01,0.665,0.02,0.87
		c0.011,0.201,0.132,0.244,0.292,0.41c0.159-0.04,0.602-0.226,0.751-0.328c-0.014,0.165,0.195,0.35,0.318,0.386
		c0.083-0.09,0.172-0.139,0.293-0.252c-0.118-0.079-0.103-0.09-0.147-0.247c-0.034-0.151,0.009-0.725,0.013-0.971
		c-0.094-0.142-0.248-0.312-0.405-0.43c-0.111,0.101-0.261,0.237-0.437,0.422c0.131-0.017,0.389,0.035,0.401,0.145
		c0.007,0.142,0.029,0.453,0,0.694c-0.03,0.244-0.684,0.132-0.693-0.032c-0.014-0.169,0.034-0.653,0.037-0.882
		C23.554,10.59,23.499,10.512,23.328,10.385L23.328,10.385z M18.985,16.27v-0.024c-0.378-0.054-0.675-0.319-1.021-0.45
		c-0.479-0.181-0.986,0.188-0.986,0.247c0,0.129,0.136,0.195,0.523-0.048c-0.303,0.351,0.042,0.637,0.042,0.637
		c-0.126-0.019-0.306-0.061-0.421-0.127c-0.023,0.127,0.151,0.174,0.235,0.229C17.998,16.998,18.42,16.379,18.985,16.27
		L18.985,16.27z M17.902,16.597c0,0,0.171-0.185,0.17-0.317c0-0.179-0.169-0.31-0.169-0.31c0.145,0.042,0.489,0.236,0.613,0.317
		L17.902,16.597L17.902,16.597z M14.383,11.726l0.184-0.204c-0.208-0.039-0.111-0.037-0.221-0.137l-0.006-0.844l-0.27-0.396
		l-0.103,0.014l-0.422,0.395c-0.112,0.098-0.014,0.145,0.116,0.037l0.28,0.145l0.007,0.894c0.023,0.111,0.122,0.137,0.257,0.276
		L14.383,11.726L14.383,11.726z M14.475,8.788c0.143,0.406,0.479,0.533,0.729,0.553c0.074-0.138,0.213-0.35,0.289-0.447
		c0.112-0.15-0.002-0.239-0.081-0.066c-0.061,0.132-0.386-0.013-0.503-0.126c-0.158-0.147-0.257-0.534-0.13-0.669
		c0.127-0.138,0.31-0.075,0.545-0.081c0.155-0.008,0.188-0.151,0.215-0.224c-0.075-0.035-0.188-0.099-0.334-0.187
		c-0.152,0.096-0.386,0.295-0.487,0.378C14.59,8.025,14.332,8.394,14.475,8.788L14.475,8.788z M15.084,11.02
		c-0.152,0.157-0.267,0.331-0.265,0.55c0.008,0.208,0.077,0.416,0.289,0.51c0.188-0.138,0.43-0.307,0.663-0.35
		c0.114,0.137,0.29,0.229,0.395,0.311c0.072-0.087,0.305-0.277,0.369-0.335c0.061-0.063,0-0.15-0.064-0.068
		c-0.05,0.077-0.213,0.021-0.26-0.056c0-0.088-0.085-1.026-0.047-1.07c-0.135-0.151-0.369-0.491-0.526-0.474
		c-0.228,0.023-0.569,0.35-0.643,0.456c-0.056,0.081,0.017,0.466,0.06,0.504C15.067,11.007,15.073,11.009,15.084,11.02L15.084,11.02
		z M15.684,11.1c-0.172,0.004-0.32-0.049-0.508-0.215c-0.035-0.03-0.069-0.244-0.029-0.314c0.083-0.131,0.083-0.172,0.155-0.171
		c0.056,0,0.403,0.21,0.385,0.321C15.7,10.802,15.694,10.952,15.684,11.1L15.684,11.1z M15.229,11.131
		c0.158,0.107,0.249,0.092,0.448,0.073c-0.008,0.108-0.016,0.208-0.016,0.252c0,0.048,0.02,0.085,0.033,0.126
		c-0.103,0.038-0.234,0.06-0.335,0.109C15.267,11.611,14.929,11.38,15.229,11.131L15.229,11.131z M16.528,9.394l0.188-0.204
		c-0.211-0.041-0.211-0.027-0.324-0.128l0.008-0.977l-0.184-0.272l-0.099,0.013l-0.425,0.392c-0.114,0.103-0.012,0.151,0.115,0.038
		l0.22,0.134l0.008,0.92c0.022,0.11,0.119,0.148,0.254,0.288L16.528,9.394L16.528,9.394z M16.196,5.974
		c-0.087-0.006-0.22,0.154,0.291,0.207C16.566,6.189,16.673,6.002,16.196,5.974L16.196,5.974z M16.203,5.668
		c-0.084-0.005-0.216,0.228,0.292,0.208C16.575,5.874,16.634,5.692,16.203,5.668L16.203,5.668z M16.3,7.203l-0.218-0.227
		l-0.22,0.198l0.004,0.272L16,7.584h0.137L16.3,7.437V7.203L16.3,7.203z M15.855,5.113c-0.148-0.103-0.31-0.35-0.668-0.366
		c-0.361-0.015-0.767,0.311-0.899,0.516c-0.176,0.271,0.039,0.508,0.269,0.684c-0.146,0.126-0.35,0.319-0.539,0.496
		c0.075,0.082,0.488,0.277,0.719,0.271c0.35-0.007,0.674-0.188,0.873-0.348c0.364-0.288,0.238-0.594-0.133-0.81
		c-0.035-0.021-0.069-0.028-0.104-0.035C15.603,5.338,15.804,5.176,15.855,5.113L15.855,5.113z M14.936,5.866
		c0.122,0.055,0.246,0.11,0.381,0.189c0.195,0.111,0.095,0.321-0.116,0.418c-0.214,0.098-0.597-0.179-0.656-0.292
		C14.623,6.113,14.771,5.997,14.936,5.866L14.936,5.866z M15.322,5.352c-0.032,0.026-0.124,0.1-0.223,0.179
		c-0.059,0.01-0.118,0.018-0.179,0.009c-0.184-0.025-0.271-0.164-0.356-0.275c-0.087-0.116,0.139-0.212,0.249-0.201
		C14.925,5.081,15.174,5.213,15.322,5.352L15.322,5.352z M13.814,6.145c-0.536,0.136-0.787-0.294-0.84-0.409
		c0.216-0.221,0.584-0.583,0.809-0.767c-0.147-0.138-0.209-0.364-0.473-0.383c-0.229,0.005-0.765,0.266-0.859,0.946
		c-0.09,0.653,0.523,1.005,1.008,1.025c0.162,0,0.364-0.209,0.465-0.259C14.14,6.193,14.06,6.089,13.814,6.145L13.814,6.145z
		 M12.936,5.607c-0.135-0.435-0.084-0.585,0.186-0.799c0.061,0.149,0.216,0.257,0.302,0.31C13.271,5.266,13.034,5.534,12.936,5.607
		L12.936,5.607z M12.316,5.22c0.091-0.089-0.006-0.155-0.088-0.077c-0.061-0.073-0.215-0.232-0.298-0.33
		c-0.088,0.074-0.29,0.194-0.402,0.257c-0.088-0.101-0.196-0.101-0.373-0.239c-0.098,0.075-0.313,0.233-0.43,0.375
		c0.205,0.06,0.36,0.071,0.373,0.248c0.007,0.143-0.015,1.024-0.003,1.186c0.109,0.024,0.244,0.013,0.4,0.005
		c0.012-0.126,0.006-1.232,0.006-1.355c0.06-0.033,0.12-0.064,0.149-0.092c0.065,0.05,0.193,0.236,0.296,0.297
		C12.025,5.436,12.229,5.307,12.316,5.22L12.316,5.22z M10.625,7.504c-0.233,0.021-0.569,0.293-0.669,0.527
		C9.915,8.125,9.972,8.463,10.016,8.5c0.03,0.026,0.054,0.045,0.081,0.066C9.943,8.708,9.8,8.83,9.804,9.04
		c0.006,0.204,0.168,0.385,0.377,0.479c0.112-0.169,0.286-0.274,0.473-0.318c0.016,0.162,0.053,0.281,0.16,0.363
		c0.077-0.085,0.383-0.35,0.442-0.41c0.064-0.061,0.016-0.134-0.059-0.061c-0.045,0.042-0.155-0.02-0.187-0.073
		c0-0.089,0-1.024,0.04-1.067C10.911,7.804,10.779,7.487,10.625,7.504L10.625,7.504z M10.643,8.454
		c-0.259,0.168-0.342,0.163-0.521-0.039c-0.089-0.103-0.081-0.297-0.04-0.371c0.081-0.126,0.222-0.254,0.29-0.252
		c0.058,0.004,0.268,0.258,0.253,0.369C10.636,8.222,10.64,8.335,10.643,8.454L10.643,8.454z M10.646,8.923
		c-0.001,0.05,0,0.093,0.001,0.138c-0.05,0.013-0.106,0.025-0.177,0.061c-0.095-0.082-0.546-0.229-0.25-0.467
		c0.181,0.106,0.251,0.023,0.426-0.085C10.646,8.722,10.646,8.867,10.646,8.923L10.646,8.923z M10.443,6.94
		c-0.031-0.04-0.092-0.105-0.094-0.186c0-0.054,0.006-0.619,0.006-0.688c0-0.067-0.133-0.06-0.133,0
		c-0.006,0.1,0.009,0.27-0.08,0.409c-0.248,0.383-0.719,0.541-1.05,0.071C8.979,6.39,8.952,6.154,8.938,5.986
		C8.915,5.761,9.086,5.47,9.096,5.444c0.421-0.552,1.006-0.142,1.054,0.083c0.031,0.15,0.065,0.333,0.065,0.429
		c-0.004,0.064,0.134,0.057,0.137-0.009c0-0.068,0.004-0.917,0.004-0.977c0.003-0.055-0.111-0.073-0.114,0
		c-0.006,0.134-0.085,0.146-0.188,0.112C9.84,5.019,9.367,4.918,9.092,5.075C8.851,5.218,8.48,5.551,8.487,5.97
		c0.007,0.689,0.268,0.748,0.57,0.934C9.34,7.07,9.731,6.962,10.089,6.859c0.142-0.038,0.159,0.051,0.228,0.152
		C10.432,7.165,10.525,7.066,10.443,6.94L10.443,6.94z M8.531,7.916c-0.239,0.365-0.369,0.94,0.044,1.278
		c0.195,0.162,0.356,0.289,0.753,0.218c0.078-0.158,0.114-0.209,0.253-0.392C9.309,9.065,9.097,9.016,8.897,8.865
		c-0.412-0.32-0.284-0.834-0.163-1.01c0.222-0.33,0.538,0.142,0.595,0.206c0.073-0.087,0.2-0.213,0.323-0.311
		C9.53,7.588,9.43,7.438,9.346,7.341C9.083,7.435,8.696,7.671,8.531,7.916L8.531,7.916z M8.701,11.072
		c-0.088,0.656,0.531,1.048,0.829,1.174c0.075-0.151,0.227-0.396,0.376-0.568c0.113-0.131-0.012-0.167-0.114-0.065
		c-0.137,0.149-0.546,0.007-0.654-0.19c0.198-0.149,0.712-0.581,0.937-0.764c-0.148-0.139-0.377-0.484-0.413-0.681
		C9.463,10.111,8.802,10.39,8.701,11.072L8.701,11.072z M9.341,10.361c0.06,0.151,0.25,0.441,0.336,0.492
		c-0.148,0.148-0.511,0.396-0.613,0.466C8.878,11.086,8.777,10.706,9.341,10.361L9.341,10.361z M10.694,10.122
		c-0.128,0.122-0.229,0.232-0.417,0.38c0.087,0.1,0.235,0.226,0.248,0.398c0.012,0.174,0.005,0.982,0.016,1.185
		c0.138,0,0.113,0.014,0.35,0.005c-0.023-0.137-0.004-1.186-0.004-1.336c0.088-0.084,0.101-0.097,0.203-0.172
		c0.073,0.063,0.244,0.101,0.244,0.214c0,0.112,0.034,0.61-0.006,0.794c-0.05,0.224-0.027,0.385,0.094,0.612
		c0.092-0.103,0.436-0.343,0.51-0.403c0.073-0.063,0.035-0.112-0.06-0.085c-0.102,0.022-0.12,0.041-0.12-0.023
		c0-0.121-0.048-0.667-0.055-1.016c-0.013-0.349-0.183-0.452-0.281-0.5c-0.1,0.111-0.324,0.251-0.458,0.365
		C10.856,10.466,10.807,10.299,10.694,10.122L10.694,10.122z M12.102,9.276c0.118-0.094,0.205-0.252,0.252-0.29
		c0.091-0.075,0.016-0.152-0.06-0.08c-0.062,0.06-0.222-0.079-0.229-0.089c-0.052-0.061-0.128-0.861-0.093-0.879
		c0,0,0.509-0.062,0.576-0.062c0.05,0.004,0.057-0.159,0.002-0.161c-0.083,0-0.471,0.053-0.485,0.016
		c-0.021-0.085-0.074-0.37,0.054-0.615c0.06-0.107-0.002-0.21-0.042-0.101c-0.045,0.111-0.364,0.606-0.57,0.688
		c-0.167,0.069-0.149,0.107-0.041,0.136c0.086,0.016,0.175,0.119,0.159,0.118c-0.017,0.41-0.057,0.917,0.071,1.132
		C11.778,9.224,12,9.365,12.102,9.276L12.102,9.276z M13.85,9.458c-0.063,0.124-0.165,0.237-0.35,0.323
		c0.113,0.097,0.259,0.223,0.356,0.288c0.111-0.124,0.213-0.239,0.341-0.36C14.071,9.684,13.925,9.62,13.85,9.458L13.85,9.458z
		 M13.049,9.005c0.162-0.013,0.422,0.083,0.711,0.06c0.344-0.025,0.614-0.558,0.465-0.972c-0.138-0.394-0.576-0.325-0.872-0.418
		c-0.271-0.074-0.384-0.245-0.088-0.439c0.349-0.224,0.781,0.136,0.822,0.211c0.063,0.115,0.117,0.113,0.117-0.036
		c0.009-0.327-0.021-0.142-0.054-0.449c-0.011-0.11-0.091-0.119-0.098-0.014c-0.007,0.107-0.138,0.074-0.236,0.074
		c-0.1-0.002-0.391-0.046-0.642,0.093c-0.16,0.093-0.525,0.379-0.32,0.723c0.12,0.2,0.821,0.362,0.995,0.478
		c0.175,0.115,0.215,0.409,0.047,0.544c-0.208,0.166-0.775,0.025-0.863-0.075c-0.115-0.127-0.159-0.232-0.183-0.379
		c-0.024-0.151-0.151-0.138-0.151,0c0,0.137,0.033,0.608,0.058,0.719c0.022,0.115,0.138,0.077,0.148-0.01
		C12.919,9.036,12.974,9.011,13.049,9.005L13.049,9.005z M12.313,10.475c-0.133,0.1,0.158,0.24,0.131,0.232
		c0.011,0.413-0.049,0.835,0.091,1.043c0.089,0.13,0.365,0.225,0.413,0.102c0.046-0.126,0.256-0.381,0.303-0.425
		c0.087-0.077,0.01-0.147-0.063-0.071c-0.151,0.16-0.236,0.086-0.348-0.021c-0.054-0.062-0.074-0.637-0.035-0.654
		c0,0,0.278-0.04,0.344-0.04c0.052,0,0.047-0.16-0.007-0.16c-0.083,0-0.331,0.002-0.346-0.037c-0.031-0.08,0.05-0.467,0.064-0.643
		c0.011-0.123-0.055-0.161-0.088-0.047C12.737,9.867,12.471,10.361,12.313,10.475L12.313,10.475z"/>
</g>
<g>
</g>
<g>
</g>
<g>
</g>
<g>
</g>
<g>
</g>
<g>
</g>
</svg>
