<svg xmlns="http://www.w3.org/2000/svg" width="17.53" height="13.147" viewBox="0 0 17.53 13.147"><defs><style>.a{fill:#fff;}</style></defs><path class="a" d="M17.2,68.341a.206.206,0,0,1,.332.161v7a1.644,1.644,0,0,1-1.643,1.643H1.643A1.644,1.644,0,0,1,0,75.5v-7a.2.2,0,0,1,.332-.161c.767.6,1.784,1.352,5.276,3.889.722.527,1.941,1.637,3.157,1.63,1.222.01,2.465-1.123,3.16-1.63C15.417,69.7,16.431,68.937,17.2,68.341ZM8.765,72.765c.794.014,1.938-1,2.513-1.417,4.543-3.3,4.889-3.585,5.937-4.406a.819.819,0,0,0,.315-.647v-.651A1.644,1.644,0,0,0,15.887,64H1.643A1.644,1.644,0,0,0,0,65.643v.651a.824.824,0,0,0,.315.647c1.048.818,1.393,1.109,5.937,4.406C6.827,71.765,7.971,72.779,8.765,72.765Z" transform="translate(0 -64)"/></svg>
